<svg width="900px" height="389.2px" version="1.1" xmlns="http://www.w3.org/2000/svg" xmlns:xlink="http://www.w3.org/1999/xlink" xmlns:mei="http://www.music-encoding.org/ns/mei" overflow="visible">
 <desc>Engraved by Verovio 3.10.0-dev-e51b2ff</desc>
 <defs>
  <symbol id="E084-saef5f" viewBox="0 0 1000 1000" overflow="inherit">
   <path transform="scale(1,-1)" d="M208 -127h-172c-9 0 -11 6 -11 6s-7 11 -10 18c-1 2 -1 4 -1 6c0 6 3 11 3 11c26 37 56 87 82 168s31 155 31 155c1 6 6 12 13 12h149c4 0 7 -2 10 -4l22 -22c1 -1 3 -5 3 -10c0 -4 -1 -9 -5 -14c-118 -158 -230 -278 -230 -278h116v82c0 4 1 8 4 11l91 83c2 2 6 3 9 3h2 c2 0 3 0 5 -1l12 -6c4 -2 7 -7 7 -13v-159h90c8 0 14 -7 14 -14v-19c0 -8 -6 -15 -14 -15h-90v-74h90c8 0 14 -6 14 -14v-19c0 -8 -6 -14 -14 -14h-303c-7 0 -14 6 -14 14v19c0 8 7 14 14 14h83v74z" />
  </symbol>
  <symbol id="E050-saef5f" viewBox="0 0 1000 1000" overflow="inherit">
   <path transform="scale(1,-1)" d="M562 -21c0 89 -65 150 -155 150c7 -44 34 -203 55 -323c71 29 100 102 100 173zM420 -206l-58 329c-59 -14 -104 -63 -104 -124c0 -49 22 -75 61 -99c12 -8 22 -13 22 -22s-9 -13 -17 -13c-80 0 -135 96 -135 166c0 94 62 190 153 217c-7 41 -14 88 -23 142 c-15 -15 -31 -29 -48 -44c-88 -76 -174 -185 -174 -307c0 -151 122 -251 265 -251c19 0 38 2 58 6zM332 822c-8 -31 -11 -65 -11 -102c0 -42 5 -81 11 -121c69 68 146 146 146 250c0 69 -24 118 -39 118c-52 0 -98 -105 -107 -145zM122 -513c0 66 45 123 115 123 c75 0 116 -57 116 -111c0 -64 -47 -104 -94 -111c-3 -1 -5 -2 -5 -4c0 -1 2 -2 3 -3c2 0 23 -5 47 -5c101 0 154 55 154 159c0 53 -11 123 -30 219c-23 -4 -50 -7 -79 -7c-186 0 -349 147 -349 334c0 200 126 321 217 406c21 17 73 70 74 71c-17 112 -22 161 -22 215 c0 84 18 212 82 288c33 39 64 51 71 51c18 0 47 -35 71 -86c16 -36 44 -110 44 -201c0 -159 -73 -284 -179 -395c9 -56 19 -115 29 -175c146 0 253 -102 253 -253c0 -103 -73 -205 -171 -237c6 -39 12 -69 15 -89c10 -57 16 -102 16 -141c0 -63 -14 -129 -68 -167 c-36 -22 -77 -34 -124 -34c-135 0 -186 87 -186 153z" />
  </symbol>
  <symbol id="E083-saef5f" viewBox="0 0 1000 1000" overflow="inherit">
   <path transform="scale(1,-1)" d="M272 16h-2c44 -14 94 -45 94 -118c0 -109 -104 -142 -200 -142c-22 0 -71 1 -110 37c-36 33 -39 69 -39 82v4c0 36 29 65 65 65s64 -29 64 -65c0 -33 -27 -62 -60 -64c11 -8 37 -16 65 -16c42 0 87 18 87 85c0 70 -23 100 -67 106c-32 5 -55 5 -72 6c-11 1 -13 12 -13 12 v20s1 14 13 14s68 4 80 6s59 11 59 74c0 54 -45 79 -87 79c-19 0 -38 -5 -52 -15l-3 -3c28 -6 50 -34 50 -63c0 -36 -28 -64 -64 -64s-65 28 -65 64l1 2h-1s-5 122 167 122s175 -113 175 -122v-5c0 -18 -5 -70 -85 -101z" />
  </symbol>
  <symbol id="E062-saef5f" viewBox="0 0 1000 1000" overflow="inherit">
   <path transform="scale(1,-1)" d="M254 251c93 0 164 -29 211 -85c41 -49 63 -118 63 -201c0 -67 -25 -145 -69 -220c-25 -42 -56 -84 -92 -123c-40 -43 -86 -83 -137 -120c-91 -71 -205 -118 -206 -118s-4 -1 -5 -1c-6 0 -15 2 -18 12c0 2 -1 3 -1 5c0 12 12 19 12 19c1 0 99 45 203 140 c39 35 83 98 116 164c30 59 65 148 65 241c0 168 -50 250 -152 250c-35 0 -67 -6 -92 -20c-17 -9 -39 -29 -50 -45s-23 -45 -26 -64c8 7 25 17 35 21c9 3 20 5 32 5c17 0 37 -4 58 -18c30 -19 48 -51 48 -86c0 -39 -19 -75 -50 -92c-19 -11 -42 -17 -64 -17 c-13 0 -26 2 -38 6c-30 10 -53 29 -65 56c-9 19 -13 41 -13 65c0 17 2 35 7 53c9 35 32 86 90 129c1 0 62 44 138 44zM568 124c0 28 22 51 48 51s48 -23 48 -51s-22 -50 -48 -50s-48 22 -48 50zM568 -123c0 28 22 51 48 51s48 -23 48 -51s-22 -51 -48 -51s-48 23 -48 51z " />
  </symbol>
  <symbol id="E0A3-saef5f" viewBox="0 0 1000 1000" overflow="inherit">
   <path transform="scale(1,-1)" d="M213 132c62 0 112 -33 112 -92c0 -88 -109 -173 -213 -173c-81 0 -112 48 -112 91c0 93 116 174 213 174zM186 -44c3 2 104 50 104 93c0 22 -16 36 -40 36c-36 0 -107 -40 -111 -42s-104 -51 -104 -93c0 -9 7 -36 40 -36c35 0 108 40 111 42z" />
  </symbol>
  <symbol id="E0A4-saef5f" viewBox="0 0 1000 1000" overflow="inherit">
   <path transform="scale(1,-1)" d="M0 -42c0 92 116 174 213 174c62 0 112 -33 112 -92c0 -88 -109 -173 -213 -173c-81 0 -112 48 -112 91z" />
  </symbol>
  <symbol id="E240-saef5f" viewBox="0 0 1000 1000" overflow="inherit">
   <path transform="scale(1,-1)" d="M0 -227v226c0 7 6 13 13 13c6 0 11 -4 12 -8c0 0 9 -36 10 -39c2 -4 19 -61 56 -118c27 -42 122 -165 119 -165c0 0 74 -95 79 -224v-12c1 -63 -15 -169 -62 -252c-4 -7 -9 -11 -16 -11c-1 0 -3 0 -5 1c-4 2 -5 5 -5 9c-1 4 1 9 3 15c26 72 45 146 45 218 c0 83 -29 126 -47 157c-65 111 -151 165 -194 179c-7 3 -8 8 -8 11z" />
  </symbol>
  <symbol id="E241-saef5f" viewBox="0 0 1000 1000" overflow="inherit">
   <path transform="scale(1,-1)" d="M0 1v226c0 3 1 8 8 11c42 14 147 68 212 179c18 31 47 74 47 157c0 72 -16 125 -56 218c-2 4 -3 9 -3 12c0 6 2 10 7 12c1 1 3 1 5 1c6 0 12 -4 15 -11c53 -97 74 -173 74 -264c0 -88 -30 -154 -79 -224c-50 -70 -110 -117 -149 -182c-36 -59 -45 -97 -46 -101 c-1 -3 -10 -38 -10 -39c-1 -4 -7 -8 -12 -8c-7 0 -13 6 -13 13z" />
  </symbol>
  <symbol id="E262-saef5f" viewBox="0 0 1000 1000" overflow="inherit">
   <path transform="scale(1,-1)" d="M233 105l-38 -7v-165l33 7h2c8 0 14 -6 14 -14v-59c0 -6 -5 -13 -11 -14l-38 -7v-147h-28v141l-89 -18v-155h-28v149l-33 -7h-3c-8 0 -14 6 -14 14v58c0 6 5 13 11 14l39 8v165l-33 -7h-3c-8 0 -14 6 -14 14v-2v58v2c0 6 5 13 11 14l39 8v147h28v-141l89 18v155h28v-149 l33 7h2c8 0 14 -6 14 -14v-59c0 -6 -5 -13 -11 -14zM78 74v-166l89 19v165z" />
  </symbol>
 </defs>
 <style type="text/css">g.page-margin{font-family:Times;} g.ending, g.fing, g.reh, g.tempo{font-weight:bold;} g.dir, g.dynam, g.mNum{font-style:italic;} g.label{font-weight:normal;}</style>
 <svg class="definition-scale" color="black" viewBox="0 0 22500 9730">
  <g class="page-margin" transform="translate(300, 1000)">
   <g id="m-31" class="mdiv pageMilestone" />
   <g id="m-33" class="score pageMilestone" />
   <g id="shbhaz4" class="system">
    <path d="M5 540 L5 3060" stroke="currentColor" stroke-width="10" />
    <g id="gi9av82" class="grpSym">
     <path d="M-72,3042 C-432,2502 18,1980 -252,1800 C81,1980 -369,2502 -72,3042" stroke="currentColor" stroke-linecap="round" stroke-linejoin="round" stroke-width="18" />
     <path d="M-72,558 C-369,1098 81,1620 -252,1800 C18,1620 -432,1098 -72,558" stroke="currentColor" stroke-linecap="round" stroke-linejoin="round" stroke-width="18" />
    </g>
    <g id="m-45" class="sb" />
    <g id="m-43" class="section systemMilestone" />
    <g id="m-28" class="pb" />
    <g id="m-44" class="measure">
     <g id="m-46" class="staff">
      <path d="M0 540 L2567 540" stroke="currentColor" stroke-width="10" />
      <path d="M0 720 L2567 720" stroke="currentColor" stroke-width="10" />
      <path d="M0 900 L2567 900" stroke="currentColor" stroke-width="10" />
      <path d="M0 1080 L2567 1080" stroke="currentColor" stroke-width="10" />
      <path d="M0 1260 L2567 1260" stroke="currentColor" stroke-width="10" />
      <g id="cd1tkxg" class="clef">
       <use xlink:href="#E050-saef5f" x="145" y="1080" height="720px" width="720px" />
      </g>
      <g id="kj0816j" class="keySig">
       <g class="keyAccid">
        <use xlink:href="#E262-saef5f" x="803" y="540" height="720px" width="720px" />
       </g>
      </g>
      <g id="m2typuf" class="meterSig">
       <use xlink:href="#E083-saef5f" x="1177" y="720" height="720px" width="720px" />
       <use xlink:href="#E084-saef5f" x="1148" y="1080" height="720px" width="720px" />
      </g>
      <g id="m-47" class="layer">
       <g id="m-48" class="note">
        <g class="notehead">
         <use xlink:href="#E0A4-saef5f" x="1752" y="990" height="720px" width="720px" />
        </g>
        <g id="s2qj1np" class="stem">
         <rect x="1967" y="360" height="602" width="18" />
        </g>
        <g id="m-49" class="verse">
         <g id="m-50" class="syl">
          <text x="1662" y="1820" font-size="0px">
           <tspan id="t6th3u7" class="text">
            <tspan font-size="405px" class="text">Oh,</tspan>
           </tspan>
          </text>
         </g>
        </g>
       </g>
      </g>
     </g>
     <g id="m-51" class="staff">
      <path d="M0 2340 L2567 2340" stroke="currentColor" stroke-width="10" />
      <path d="M0 2520 L2567 2520" stroke="currentColor" stroke-width="10" />
      <path d="M0 2700 L2567 2700" stroke="currentColor" stroke-width="10" />
      <path d="M0 2880 L2567 2880" stroke="currentColor" stroke-width="10" />
      <path d="M0 3060 L2567 3060" stroke="currentColor" stroke-width="10" />
      <g id="cxduvj" class="clef">
       <use xlink:href="#E062-saef5f" x="145" y="2520" height="720px" width="720px" />
      </g>
      <g id="k3z8mhx" class="keySig">
       <g class="keyAccid">
        <use xlink:href="#E262-saef5f" x="803" y="2520" height="720px" width="720px" />
       </g>
      </g>
      <g id="m6jfzs5" class="meterSig">
       <use xlink:href="#E083-saef5f" x="1177" y="2520" height="720px" width="720px" />
       <use xlink:href="#E084-saef5f" x="1148" y="2880" height="720px" width="720px" />
      </g>
      <g id="m-52" class="layer">
       <g id="m-53" class="note">
        <g class="notehead">
         <use xlink:href="#E0A4-saef5f" x="1752" y="2700" height="720px" width="720px" />
        </g>
        <g id="sdc7tp8" class="stem">
         <rect x="1752" y="2730" height="570" width="18" />
        </g>
       </g>
      </g>
     </g>
     <g id="biohdny" class="barLine">
      <path d="M2562 1260 L2562 540" stroke="currentColor" stroke-width="10" />
      <path d="M2562 3060 L2562 2340" stroke="currentColor" stroke-width="10" />
     </g>
    </g>
    <g id="m-57" class="measure">
     <g id="m-58" class="staff">
      <path d="M2567 540 L5979 540" stroke="currentColor" stroke-width="10" />
      <path d="M2567 720 L5979 720" stroke="currentColor" stroke-width="10" />
      <path d="M2567 900 L5979 900" stroke="currentColor" stroke-width="10" />
      <path d="M2567 1080 L5979 1080" stroke="currentColor" stroke-width="10" />
      <path d="M2567 1260 L5979 1260" stroke="currentColor" stroke-width="10" />
      <g id="m-59" class="layer">
       <g id="m-61" class="beam">
        <polygon points="2979,315 3625,405 3625,495 2979,405 " />
        <g id="m-60" class="note">
         <g class="notehead">
          <use xlink:href="#E0A4-saef5f" x="2763" y="900" height="720px" width="720px" />
         </g>
         <g id="sii83oy" class="stem">
          <rect x="2979" y="333" height="539" width="18" />
         </g>
         <g id="m-65" class="verse">
          <g id="m-66" class="syl">
           <text x="2424" y="1820" font-size="0px">
            <tspan id="t8x0iwf" class="text">
             <tspan font-size="405px" class="text">pon</tspan>
            </tspan>
           </text>
           <rect x="3113" y="1717" height="22" width="108" />
          </g>
         </g>
        </g>
        <g id="m-62" class="note">
         <g class="notehead">
          <use xlink:href="#E0A4-saef5f" x="3391" y="990" height="720px" width="720px" />
         </g>
         <g id="sp09cxa" class="stem">
          <rect x="3607" y="423" height="539" width="18" />
         </g>
         <g id="m-67" class="verse">
          <g id="m-68" class="syl">
           <text x="3301" y="1820" font-size="0px">
            <tspan id="tjxkqzy" class="text">
             <tspan font-size="405px" class="text">der</tspan>
            </tspan>
           </text>
          </g>
         </g>
        </g>
       </g>
       <g id="m-63" class="note">
        <g class="notehead">
         <use xlink:href="#E0A4-saef5f" x="4072" y="1080" height="720px" width="720px" />
        </g>
        <g id="d3s0bsm" class="dots">
         <ellipse cx="4396" cy="990" rx="36" ry="36" />
        </g>
        <g id="s7jfwho" class="stem">
         <rect x="4287" y="450" height="602" width="18" />
        </g>
        <g id="m-69" class="verse">
         <g id="m-70" class="syl">
          <text x="3982" y="1820" font-size="0px">
           <tspan id="tjgsofz" class="text">
            <tspan font-size="405px" class="text">well!</tspan>
           </tspan>
          </text>
         </g>
        </g>
       </g>
       <g id="m-64" class="note">
        <g class="notehead">
         <use xlink:href="#E0A4-saef5f" x="5409" y="990" height="720px" width="720px" />
        </g>
        <g id="sdn9yft" class="stem">
         <rect x="5624" y="360" height="602" width="18" />
         <g id="ffeb60x" class="flag">
          <use xlink:href="#E240-saef5f" x="5624" y="360" height="720px" width="720px" />
         </g>
        </g>
        <g id="m-71" class="verse">
         <g id="m-72" class="syl">
          <text x="5319" y="1820" font-size="0px">
           <tspan id="t60y0cl" class="text">
            <tspan font-size="405px" class="text">be</tspan>
           </tspan>
          </text>
         </g>
        </g>
       </g>
      </g>
     </g>
     <g id="m-73" class="staff">
      <path d="M2567 2340 L5979 2340" stroke="currentColor" stroke-width="10" />
      <path d="M2567 2520 L5979 2520" stroke="currentColor" stroke-width="10" />
      <path d="M2567 2700 L5979 2700" stroke="currentColor" stroke-width="10" />
      <path d="M2567 2880 L5979 2880" stroke="currentColor" stroke-width="10" />
      <path d="M2567 3060 L5979 3060" stroke="currentColor" stroke-width="10" />
      <g id="m-74" class="layer">
       <g id="m-75" class="note">
        <g class="notehead">
         <use xlink:href="#E0A4-saef5f" x="2763" y="2430" height="720px" width="720px" />
        </g>
        <g id="s6rk8o7" class="stem">
         <rect x="2763" y="2460" height="600" width="18" />
        </g>
       </g>
       <g id="m-76" class="note">
        <g class="notehead">
         <use xlink:href="#E0A4-saef5f" x="4072" y="2250" height="720px" width="720px" />
        </g>
        <g id="s9sdtaw" class="stem">
         <rect x="4072" y="2280" height="600" width="18" />
        </g>
       </g>
       <g id="m-77" class="note">
        <g class="notehead">
         <use xlink:href="#E0A4-saef5f" x="4881" y="2700" height="720px" width="720px" />
        </g>
        <g id="swcqiaf" class="stem">
         <rect x="4881" y="2730" height="570" width="18" />
        </g>
       </g>
      </g>
     </g>
     <g id="bfmzndo" class="barLine">
      <path d="M5974 1260 L5974 540" stroke="currentColor" stroke-width="10" />
      <path d="M5974 3060 L5974 2340" stroke="currentColor" stroke-width="10" />
     </g>
    </g>
    <g id="m-78" class="measure">
     <g id="m-79" class="staff">
      <path d="M5979 540 L9177 540" stroke="currentColor" stroke-width="10" />
      <path d="M5979 720 L9177 720" stroke="currentColor" stroke-width="10" />
      <path d="M5979 900 L9177 900" stroke="currentColor" stroke-width="10" />
      <path d="M5979 1080 L9177 1080" stroke="currentColor" stroke-width="10" />
      <path d="M5979 1260 L9177 1260" stroke="currentColor" stroke-width="10" />
      <g id="m-80" class="layer">
       <g id="m-82" class="beam">
        <polygon points="6391,315 6938,360 6938,450 6391,405 " />
        <g id="m-81" class="note">
         <g class="notehead">
          <use xlink:href="#E0A4-saef5f" x="6175" y="900" height="720px" width="720px" />
         </g>
         <g id="sel02w9" class="stem">
          <rect x="6391" y="333" height="539" width="18" />
         </g>
         <g id="m-86" class="verse">
          <g id="m-87" class="syl">
           <text x="5943" y="1820" font-size="0px">
            <tspan id="t8msmv0" class="text">
             <tspan font-size="405px" class="text">not</tspan>
            </tspan>
           </text>
          </g>
         </g>
        </g>
        <g id="m-83" class="note">
         <g class="notehead">
          <use xlink:href="#E0A4-saef5f" x="6704" y="990" height="720px" width="720px" />
         </g>
         <g id="sd4937z" class="stem">
          <rect x="6920" y="378" height="584" width="18" />
         </g>
         <g id="m-88" class="verse">
          <g id="m-89" class="syl">
           <text x="6614" y="1820" font-size="0px">
            <tspan id="t5kui94" class="text">
             <tspan font-size="405px" class="text">se</tspan>
            </tspan>
           </text>
           <rect x="7030" y="1717" height="22" width="108" />
          </g>
         </g>
        </g>
       </g>
       <g id="m-84" class="note">
        <g class="notehead">
         <use xlink:href="#E0A4-saef5f" x="7307" y="1080" height="720px" width="720px" />
        </g>
        <g id="df3yb1c" class="dots">
         <ellipse cx="7631" cy="990" rx="36" ry="36" />
        </g>
        <g id="sf8d84o" class="stem">
         <rect x="7522" y="450" height="602" width="18" />
        </g>
        <g id="m-90" class="verse">
         <g id="m-91" class="syl">
          <text x="7217" y="1820" font-size="0px">
           <tspan id="tl5xh0l" class="text">
            <tspan font-size="405px" class="text">vere;</tspan>
           </tspan>
          </text>
         </g>
        </g>
       </g>
       <g id="m-85" class="note">
        <g class="notehead">
         <use xlink:href="#E0A4-saef5f" x="8644" y="900" height="720px" width="720px" />
        </g>
        <g id="s9mt4ah" class="stem">
         <rect x="8644" y="930" height="570" width="18" />
         <g id="fctjbk8" class="flag">
          <use xlink:href="#E241-saef5f" x="8644" y="1500" height="720px" width="720px" />
         </g>
        </g>
        <g id="m-92" class="verse">
         <g id="m-93" class="syl">
          <text x="8554" y="1820" font-size="0px">
           <tspan id="tw13med" class="text">
            <tspan font-size="405px" class="text">So</tspan>
           </tspan>
          </text>
         </g>
        </g>
       </g>
      </g>
     </g>
     <g id="m-94" class="staff">
      <path d="M5979 2340 L9177 2340" stroke="currentColor" stroke-width="10" />
      <path d="M5979 2520 L9177 2520" stroke="currentColor" stroke-width="10" />
      <path d="M5979 2700 L9177 2700" stroke="currentColor" stroke-width="10" />
      <path d="M5979 2880 L9177 2880" stroke="currentColor" stroke-width="10" />
      <path d="M5979 3060 L9177 3060" stroke="currentColor" stroke-width="10" />
      <g id="m-95" class="layer">
       <g id="m-96" class="note">
        <g class="notehead">
         <use xlink:href="#E0A4-saef5f" x="6175" y="2430" height="720px" width="720px" />
        </g>
        <g id="shxl1uq" class="stem">
         <rect x="6175" y="2460" height="600" width="18" />
        </g>
       </g>
       <g id="m-97" class="note">
        <g class="notehead">
         <use xlink:href="#E0A4-saef5f" x="7307" y="2250" height="720px" width="720px" />
        </g>
        <g id="si9d9z3" class="stem">
         <rect x="7307" y="2280" height="600" width="18" />
        </g>
       </g>
       <g id="m-98" class="note">
        <g class="notehead">
         <use xlink:href="#E0A4-saef5f" x="8116" y="2700" height="720px" width="720px" />
        </g>
        <g id="sp65trf" class="stem">
         <rect x="8116" y="2730" height="570" width="18" />
        </g>
       </g>
      </g>
     </g>
     <g id="be4k7rt" class="barLine">
      <path d="M9172 1260 L9172 540" stroke="currentColor" stroke-width="10" />
      <path d="M9172 3060 L9172 2340" stroke="currentColor" stroke-width="10" />
     </g>
    </g>
    <g id="m-99" class="measure">
     <g id="m-100" class="staff">
      <path d="M9177 540 L12530 540" stroke="currentColor" stroke-width="10" />
      <path d="M9177 720 L12530 720" stroke="currentColor" stroke-width="10" />
      <path d="M9177 900 L12530 900" stroke="currentColor" stroke-width="10" />
      <path d="M9177 1080 L12530 1080" stroke="currentColor" stroke-width="10" />
      <path d="M9177 1260 L12530 1260" stroke="currentColor" stroke-width="10" />
      <g id="m-101" class="layer">
       <g id="m-103" class="beam">
        <polygon points="9373,1440 10149,1260 10149,1170 9373,1350 " />
        <g id="m-102" class="note">
         <g class="notehead">
          <use xlink:href="#E0A4-saef5f" x="9373" y="810" height="720px" width="720px" />
         </g>
         <g id="swakjkz" class="stem">
          <rect x="9373" y="840" height="582" width="18" />
         </g>
         <g id="m-107" class="verse">
          <g id="m-108" class="syl">
           <text x="9150" y="1820" font-size="0px">
            <tspan id="tqwd313" class="text">
             <tspan font-size="405px" class="text">save</tspan>
            </tspan>
           </text>
          </g>
         </g>
        </g>
        <g id="m-104" class="note">
         <g class="notehead">
          <use xlink:href="#E0A4-saef5f" x="10131" y="630" height="720px" width="720px" />
         </g>
         <g id="sdjvvtp" class="stem">
          <rect x="10131" y="660" height="582" width="18" />
         </g>
         <g id="m-109" class="verse">
          <g id="m-110" class="syl">
           <text x="10041" y="1820" font-size="0px">
            <tspan id="tqijvdo" class="text">
             <tspan font-size="405px" class="text">a</tspan>
            </tspan>
           </text>
          </g>
         </g>
        </g>
       </g>
       <g id="m-105" class="note">
        <g class="notehead">
         <use xlink:href="#E0A4-saef5f" x="10659" y="720" height="720px" width="720px" />
        </g>
        <g id="ddivc8o" class="dots">
         <ellipse cx="10983" cy="630" rx="36" ry="36" />
        </g>
        <g id="sqgz1ho" class="stem">
         <rect x="10659" y="750" height="600" width="18" />
        </g>
        <g id="m-111" class="verse">
         <g id="m-112" class="syl">
          <text x="10497" y="1820" font-size="0px">
           <tspan id="ty7i67m" class="text">
            <tspan font-size="405px" class="text">wretch</tspan>
           </tspan>
          </text>
          <rect x="11690" y="1717" height="22" width="108" />
         </g>
        </g>
       </g>
       <g id="m-106" class="note">
        <g class="notehead">
         <use xlink:href="#E0A4-saef5f" x="11997" y="900" height="720px" width="720px" />
        </g>
        <g id="sy6f4we" class="stem">
         <rect x="11997" y="930" height="570" width="18" />
         <g id="f8r6077" class="flag">
          <use xlink:href="#E241-saef5f" x="11997" y="1500" height="720px" width="720px" />
         </g>
        </g>
        <g id="m-113" class="verse">
         <g id="m-114" class="syl">
          <text x="11907" y="1820" font-size="0px">
           <tspan id="tv1n600" class="text">
            <tspan font-size="405px" class="text">ed</tspan>
           </tspan>
          </text>
         </g>
        </g>
       </g>
      </g>
     </g>
     <g id="m-115" class="staff">
      <path d="M9177 2340 L12530 2340" stroke="currentColor" stroke-width="10" />
      <path d="M9177 2520 L12530 2520" stroke="currentColor" stroke-width="10" />
      <path d="M9177 2700 L12530 2700" stroke="currentColor" stroke-width="10" />
      <path d="M9177 2880 L12530 2880" stroke="currentColor" stroke-width="10" />
      <path d="M9177 3060 L12530 3060" stroke="currentColor" stroke-width="10" />
      <g id="m-116" class="layer">
       <g id="m-117" class="note">
        <g class="notehead">
         <use xlink:href="#E0A4-saef5f" x="9373" y="2610" height="720px" width="720px" />
        </g>
        <g id="si1ai9t" class="stem">
         <rect x="9373" y="2640" height="600" width="18" />
        </g>
       </g>
       <g id="m-118" class="note">
        <g class="notehead">
         <use xlink:href="#E0A4-saef5f" x="10659" y="2520" height="720px" width="720px" />
        </g>
        <g id="slnku2f" class="stem">
         <rect x="10659" y="2550" height="600" width="18" />
        </g>
        <g id="m-119" class="accid" />
       </g>
       <g id="m-120" class="note">
        <g class="notehead">
         <use xlink:href="#E0A4-saef5f" x="11469" y="2430" height="720px" width="720px" />
        </g>
        <g id="stgjjgd" class="stem">
         <rect x="11469" y="2460" height="600" width="18" />
        </g>
       </g>
      </g>
     </g>
     <g id="bl70189" class="barLine">
      <path d="M12525 1260 L12525 540" stroke="currentColor" stroke-width="10" />
      <path d="M12525 3060 L12525 2340" stroke="currentColor" stroke-width="10" />
     </g>
    </g>
    <g id="m-121" class="measure">
     <g id="m-122" class="staff">
      <path d="M12530 540 L15159 540" stroke="currentColor" stroke-width="10" />
      <path d="M12530 720 L15159 720" stroke="currentColor" stroke-width="10" />
      <path d="M12530 900 L15159 900" stroke="currentColor" stroke-width="10" />
      <path d="M12530 1080 L15159 1080" stroke="currentColor" stroke-width="10" />
      <path d="M12530 1260 L15159 1260" stroke="currentColor" stroke-width="10" />
      <g id="m-123" class="layer">
       <g id="m-124" class="note">
        <g class="notehead">
         <use xlink:href="#E0A3-saef5f" x="12726" y="990" height="720px" width="720px" />
        </g>
        <g id="slzzrpq" class="stem">
         <rect x="12941" y="360" height="602" width="18" />
        </g>
        <g id="m-126" class="verse">
         <g id="m-127" class="syl">
          <text x="12636" y="1820" font-size="0px">
           <tspan id="thc49el" class="text">
            <tspan font-size="405px" class="text">wife!</tspan>
           </tspan>
          </text>
         </g>
        </g>
       </g>
       <g id="m-125" class="note">
        <g class="notehead">
         <use xlink:href="#E0A4-saef5f" x="14345" y="900" height="720px" width="720px" />
        </g>
        <g id="s85idb6" class="stem">
         <rect x="14345" y="930" height="570" width="18" />
        </g>
        <g id="m-128" class="verse">
         <g id="m-129" class="syl">
          <text x="14255" y="1820" font-size="0px">
           <tspan id="tkul3ny" class="text">
            <tspan font-size="405px" class="text">For</tspan>
           </tspan>
          </text>
         </g>
        </g>
       </g>
      </g>
     </g>
     <g id="m-130" class="staff">
      <path d="M12530 2340 L15159 2340" stroke="currentColor" stroke-width="10" />
      <path d="M12530 2520 L15159 2520" stroke="currentColor" stroke-width="10" />
      <path d="M12530 2700 L15159 2700" stroke="currentColor" stroke-width="10" />
      <path d="M12530 2880 L15159 2880" stroke="currentColor" stroke-width="10" />
      <path d="M12530 3060 L15159 3060" stroke="currentColor" stroke-width="10" />
      <g id="m-131" class="layer">
       <g id="m-132" class="note">
        <g class="notehead">
         <use xlink:href="#E0A4-saef5f" x="12726" y="2700" height="720px" width="720px" />
        </g>
        <g id="sh77vlt" class="stem">
         <rect x="12726" y="2730" height="570" width="18" />
        </g>
       </g>
       <g id="m-133" class="note">
        <g class="notehead">
         <use xlink:href="#E0A4-saef5f" x="13536" y="2790" height="720px" width="720px" />
        </g>
        <g id="sziisak" class="stem">
         <rect x="13751" y="2160" height="602" width="18" />
        </g>
       </g>
       <g id="m-134" class="note">
        <g class="notehead">
         <use xlink:href="#E0A4-saef5f" x="14345" y="2880" height="720px" width="720px" />
        </g>
        <g id="suy00zi" class="stem">
         <rect x="14560" y="2250" height="602" width="18" />
        </g>
       </g>
      </g>
     </g>
     <g id="b1g2bqk" class="barLine">
      <path d="M15154 1260 L15154 540" stroke="currentColor" stroke-width="10" />
      <path d="M15154 3060 L15154 2340" stroke="currentColor" stroke-width="10" />
     </g>
    </g>
    <g id="m-136" class="sb" />
    <g id="m-135" class="measure">
     <g id="m-137" class="staff">
      <path d="M15159 540 L18107 540" stroke="currentColor" stroke-width="10" />
      <path d="M15159 720 L18107 720" stroke="currentColor" stroke-width="10" />
      <path d="M15159 900 L18107 900" stroke="currentColor" stroke-width="10" />
      <path d="M15159 1080 L18107 1080" stroke="currentColor" stroke-width="10" />
      <path d="M15159 1260 L18107 1260" stroke="currentColor" stroke-width="10" />
      <g id="m-138" class="layer">
       <g id="m-140" class="beam">
        <polygon points="15355,1485 15902,1440 15902,1350 15355,1395 " />
        <g id="m-139" class="note">
         <g class="notehead">
          <use xlink:href="#E0A4-saef5f" x="15355" y="810" height="720px" width="720px" />
         </g>
         <g id="sovw3xg" class="stem">
          <rect x="15355" y="840" height="627" width="18" />
         </g>
         <g id="m-144" class="verse">
          <g id="m-145" class="syl">
           <text x="15236" y="1820" font-size="0px">
            <tspan id="tbzccdm" class="text">
             <tspan font-size="405px" class="text">on</tspan>
            </tspan>
           </text>
          </g>
         </g>
        </g>
        <g id="m-141" class="note">
         <g class="notehead">
          <use xlink:href="#E0A4-saef5f" x="15884" y="630" height="720px" width="720px" />
         </g>
         <g id="s9bxp1a" class="stem">
          <rect x="15884" y="660" height="762" width="18" />
         </g>
         <g id="m-146" class="verse">
          <g id="m-147" class="syl">
           <text x="15794" y="1820" font-size="0px">
            <tspan id="thr0o8j" class="text">
             <tspan font-size="405px" class="text">the</tspan>
            </tspan>
           </text>
          </g>
         </g>
        </g>
       </g>
       <g id="m-142" class="note">
        <g class="notehead">
         <use xlink:href="#E0A4-saef5f" x="16541" y="720" height="720px" width="720px" />
        </g>
        <g id="d4ivvvn" class="dots">
         <ellipse cx="16865" cy="630" rx="36" ry="36" />
        </g>
        <g id="sa1dhid" class="stem">
         <rect x="16541" y="750" height="600" width="18" />
        </g>
        <g id="m-148" class="verse">
         <g id="m-149" class="syl">
          <text x="16451" y="1820" font-size="0px">
           <tspan id="t7hf2xo" class="text">
            <tspan font-size="405px" class="text">rope</tspan>
           </tspan>
          </text>
         </g>
        </g>
       </g>
       <g id="m-143" class="note">
        <g class="notehead">
         <use xlink:href="#E0A4-saef5f" x="17574" y="810" height="720px" width="720px" />
        </g>
        <g id="st5su9w" class="stem">
         <rect x="17574" y="840" height="600" width="18" />
         <g id="frb7ytu" class="flag">
          <use xlink:href="#E241-saef5f" x="17574" y="1440" height="720px" width="720px" />
         </g>
        </g>
        <g id="m-150" class="verse">
         <g id="m-151" class="syl">
          <text x="17437" y="1820" font-size="0px">
           <tspan id="ttze8v" class="text">
            <tspan font-size="405px" class="text">that</tspan>
           </tspan>
          </text>
         </g>
        </g>
       </g>
      </g>
     </g>
     <g id="m-152" class="staff">
      <path d="M15159 2340 L18107 2340" stroke="currentColor" stroke-width="10" />
      <path d="M15159 2520 L18107 2520" stroke="currentColor" stroke-width="10" />
      <path d="M15159 2700 L18107 2700" stroke="currentColor" stroke-width="10" />
      <path d="M15159 2880 L18107 2880" stroke="currentColor" stroke-width="10" />
      <path d="M15159 3060 L18107 3060" stroke="currentColor" stroke-width="10" />
      <g id="m-153" class="layer">
       <g id="m-154" class="note">
        <g class="notehead">
         <use xlink:href="#E0A3-saef5f" x="15355" y="2970" height="720px" width="720px" />
        </g>
        <g id="ds6mh1" class="dots">
         <ellipse cx="15679" cy="2970" rx="36" ry="36" />
        </g>
        <g id="ssufncu" class="stem">
         <rect x="15570" y="2340" height="602" width="18" />
        </g>
       </g>
      </g>
     </g>
     <g id="b5q2ui4" class="barLine">
      <path d="M18102 1260 L18102 540" stroke="currentColor" stroke-width="10" />
      <path d="M18102 3060 L18102 2340" stroke="currentColor" stroke-width="10" />
     </g>
    </g>
    <g id="m-155" class="measure">
     <g id="m-156" class="staff">
      <path d="M18107 540 L22005 540" stroke="currentColor" stroke-width="10" />
      <path d="M18107 720 L22005 720" stroke="currentColor" stroke-width="10" />
      <path d="M18107 900 L22005 900" stroke="currentColor" stroke-width="10" />
      <path d="M18107 1080 L22005 1080" stroke="currentColor" stroke-width="10" />
      <path d="M18107 1260 L22005 1260" stroke="currentColor" stroke-width="10" />
      <g id="m-157" class="layer">
       <g id="m-159" class="beam">
        <polygon points="18303,1305 19470,1485 19470,1395 18303,1215 " />
        <g id="m-158" class="note">
         <g class="notehead">
          <use xlink:href="#E0A4-saef5f" x="18303" y="720" height="720px" width="720px" />
         </g>
         <g id="seczozp" class="stem">
          <rect x="18303" y="750" height="537" width="18" />
         </g>
         <g id="m-163" class="verse">
          <g id="m-164" class="syl">
           <text x="18213" y="1820" font-size="0px">
            <tspan id="t8jxk5k" class="text">
             <tspan font-size="405px" class="text">hangs</tspan>
            </tspan>
           </text>
          </g>
         </g>
        </g>
        <g id="m-160" class="note">
         <g class="notehead">
          <use xlink:href="#E0A4-saef5f" x="19452" y="900" height="720px" width="720px" />
         </g>
         <g id="spkzj9g" class="stem">
          <rect x="19452" y="930" height="537" width="18" />
         </g>
         <g id="m-165" class="verse">
          <g id="m-166" class="syl">
           <text x="19362" y="1820" font-size="0px">
            <tspan id="twqfe18" class="text">
             <tspan font-size="405px" class="text">my</tspan>
            </tspan>
           </text>
          </g>
         </g>
        </g>
       </g>
       <g id="m-161" class="note">
        <g class="notehead">
         <use xlink:href="#E0A4-saef5f" x="20135" y="1080" height="720px" width="720px" />
        </g>
        <g id="dypoz3j" class="dots">
         <ellipse cx="20459" cy="990" rx="36" ry="36" />
        </g>
        <g id="sbma52m" class="stem">
         <rect x="20350" y="450" height="602" width="18" />
        </g>
        <g id="m-167" class="verse">
         <g id="m-168" class="syl">
          <text x="20045" y="1820" font-size="0px">
           <tspan id="t89ct7c" class="text">
            <tspan font-size="405px" class="text">Dear,</tspan>
           </tspan>
          </text>
         </g>
        </g>
       </g>
       <g id="m-162" class="note">
        <g class="notehead">
         <use xlink:href="#E0A4-saef5f" x="21472" y="720" height="720px" width="720px" />
        </g>
        <g id="se2d2mr" class="stem">
         <rect x="21472" y="750" height="600" width="18" />
         <g id="fw2eqo7" class="flag">
          <use xlink:href="#E241-saef5f" x="21472" y="1350" height="720px" width="720px" />
         </g>
        </g>
        <g id="m-181" class="verse">
         <g id="m-182" class="syl">
          <text x="21382" y="1820" font-size="0px">
           <tspan id="t26d1d4" class="text">
            <tspan font-size="405px" class="text">de</tspan>
           </tspan>
          </text>
          <rect x="21887" y="1717" height="22" width="108" />
         </g>
        </g>
       </g>
      </g>
     </g>
     <g id="m-169" class="staff">
      <path d="M18107 2340 L22005 2340" stroke="currentColor" stroke-width="10" />
      <path d="M18107 2520 L22005 2520" stroke="currentColor" stroke-width="10" />
      <path d="M18107 2700 L22005 2700" stroke="currentColor" stroke-width="10" />
      <path d="M18107 2880 L22005 2880" stroke="currentColor" stroke-width="10" />
      <path d="M18107 3060 L22005 3060" stroke="currentColor" stroke-width="10" />
      <g id="m-170" class="layer">
       <g id="m-171" class="note">
        <g class="notehead">
         <use xlink:href="#E0A3-saef5f" x="18303" y="3060" height="720px" width="720px" />
        </g>
        <g id="sufhc7b" class="stem">
         <rect x="18518" y="2430" height="602" width="18" />
        </g>
       </g>
       <g id="m-172" class="note">
        <g class="notehead">
         <use xlink:href="#E0A4-saef5f" x="20944" y="2880" height="720px" width="720px" />
        </g>
        <g id="sihza6v" class="stem">
         <rect x="21159" y="2250" height="602" width="18" />
        </g>
       </g>
      </g>
     </g>
     <g id="bxhn71o" class="barLine">
      <path d="M22000 1260 L22000 540" stroke="currentColor" stroke-width="10" />
      <path d="M22000 3060 L22000 2340" stroke="currentColor" stroke-width="10" />
     </g>
    </g>
   </g>
   <g id="sh4n7lv" class="system">
    <path d="M5 5279 L5 7799" stroke="currentColor" stroke-width="10" />
    <g id="gjnq4s1" class="grpSym">
     <path d="M-72,7781 C-432,7241 18,6719 -252,6539 C81,6719 -369,7241 -72,7781" stroke="currentColor" stroke-linecap="round" stroke-linejoin="round" stroke-width="18" />
     <path d="M-72,5297 C-369,5837 81,6359 -252,6539 C18,6359 -432,5837 -72,5297" stroke="currentColor" stroke-linecap="round" stroke-linejoin="round" stroke-width="18" />
    </g>
    <g id="m-173" class="measure">
     <g id="mmu0p37" class="mNum autogenerated">
      <text x="0" y="5036" text-anchor="middle" font-size="0px">
       <tspan id="tisrp4s" class="text">
        <tspan font-size="324px" class="text">8</tspan>
       </tspan>
      </text>
     </g>
     <g id="m-174" class="staff">
      <path d="M0 5279 L4661 5279" stroke="currentColor" stroke-width="10" />
      <path d="M0 5459 L4661 5459" stroke="currentColor" stroke-width="10" />
      <path d="M0 5639 L4661 5639" stroke="currentColor" stroke-width="10" />
      <path d="M0 5819 L4661 5819" stroke="currentColor" stroke-width="10" />
      <path d="M0 5999 L4661 5999" stroke="currentColor" stroke-width="10" />
      <g id="cu71pjd" class="clef">
       <use xlink:href="#E050-saef5f" x="145" y="5819" height="720px" width="720px" />
      </g>
      <g id="kmou2iw" class="keySig">
       <g class="keyAccid">
        <use xlink:href="#E262-saef5f" x="803" y="5279" height="720px" width="720px" />
       </g>
      </g>
      <g id="m-175" class="layer">
       <g id="m-177" class="beam">
        <polygon points="1248,5999 2321,5819 2321,5729 1248,5909 " />
        <g id="m-176" class="note">
         <g class="notehead">
          <use xlink:href="#E0A4-saef5f" x="1248" y="5369" height="720px" width="720px" />
         </g>
         <g id="sotfon5" class="stem">
          <rect x="1248" y="5399" height="582" width="18" />
         </g>
         <g id="m-183" class="verse">
          <g id="m-184" class="syl">
           <text x="1158" y="6551" font-size="0px">
            <tspan id="ty6zmny" class="text">
             <tspan font-size="405px" class="text">pends</tspan>
            </tspan>
           </text>
          </g>
         </g>
        </g>
        <g id="m-178" class="note">
         <g class="notehead">
          <use xlink:href="#E0A4-saef5f" x="2303" y="5189" height="720px" width="720px" />
         </g>
         <g id="s8k799s" class="stem">
          <rect x="2303" y="5219" height="582" width="18" />
         </g>
         <g id="m-185" class="verse">
          <g id="m-186" class="syl">
           <text x="2213" y="6551" font-size="0px">
            <tspan id="tnxro2f" class="text">
             <tspan font-size="405px" class="text">poor</tspan>
            </tspan>
           </text>
          </g>
         </g>
        </g>
       </g>
       <g id="m-179" class="note">
        <g class="notehead">
         <use xlink:href="#E0A4-saef5f" x="3155" y="5639" height="720px" width="720px" />
        </g>
        <g id="s1xsiy6" class="stem">
         <rect x="3155" y="5669" height="570" width="18" />
        </g>
        <g id="m-187" class="verse">
         <g id="m-188" class="syl">
          <text x="3065" y="6551" font-size="0px">
           <tspan id="tiz07g4" class="text">
            <tspan font-size="405px" class="text">Pol</tspan>
           </tspan>
          </text>
          <rect x="3661" y="6448" height="22" width="108" />
         </g>
        </g>
       </g>
       <g id="m-180" class="note">
        <g class="notehead">
         <use xlink:href="#E0A4-saef5f" x="3913" y="5729" height="720px" width="720px" />
        </g>
        <g id="sc6hpb1" class="stem">
         <rect x="4128" y="5099" height="602" width="18" />
        </g>
        <g id="m-189" class="verse">
         <g id="m-190" class="syl">
          <text x="3823" y="6551" font-size="0px">
           <tspan id="t40pyfc" class="text">
            <tspan font-size="405px" class="text">ly's</tspan>
           </tspan>
          </text>
         </g>
        </g>
       </g>
      </g>
     </g>
     <g id="m-191" class="staff">
      <path d="M0 7079 L4661 7079" stroke="currentColor" stroke-width="10" />
      <path d="M0 7259 L4661 7259" stroke="currentColor" stroke-width="10" />
      <path d="M0 7439 L4661 7439" stroke="currentColor" stroke-width="10" />
      <path d="M0 7619 L4661 7619" stroke="currentColor" stroke-width="10" />
      <path d="M0 7799 L4661 7799" stroke="currentColor" stroke-width="10" />
      <g id="cv8nzhy" class="clef">
       <use xlink:href="#E062-saef5f" x="145" y="7259" height="720px" width="720px" />
      </g>
      <g id="kealvq1" class="keySig">
       <g class="keyAccid">
        <use xlink:href="#E262-saef5f" x="803" y="7259" height="720px" width="720px" />
       </g>
      </g>
      <g id="m-192" class="layer">
       <g id="m-193" class="note">
        <g class="notehead">
         <use xlink:href="#E0A4-saef5f" x="1248" y="7529" height="720px" width="720px" />
        </g>
        <g id="s52gjtd" class="stem">
         <rect x="1463" y="6899" height="602" width="18" />
        </g>
       </g>
       <g id="m-194" class="note">
        <g class="notehead">
         <use xlink:href="#E0A3-saef5f" x="3155" y="7439" height="720px" width="720px" />
        </g>
        <g id="s90jnao" class="stem">
         <rect x="3155" y="7469" height="570" width="18" />
        </g>
       </g>
      </g>
     </g>
     <g id="brrx836" class="barLine">
      <path d="M4656 5999 L4656 5279" stroke="currentColor" stroke-width="10" />
      <path d="M4656 7799 L4656 7079" stroke="currentColor" stroke-width="10" />
     </g>
    </g>
    <g id="m-195" class="measure">
     <g id="m-196" class="staff">
      <path d="M4661 5279 L6139 5279" stroke="currentColor" stroke-width="10" />
      <path d="M4661 5459 L6139 5459" stroke="currentColor" stroke-width="10" />
      <path d="M4661 5639 L6139 5639" stroke="currentColor" stroke-width="10" />
      <path d="M4661 5819 L6139 5819" stroke="currentColor" stroke-width="10" />
      <path d="M4661 5999 L6139 5999" stroke="currentColor" stroke-width="10" />
      <g id="m-197" class="layer">
       <g id="m-198" class="note">
        <g class="notehead">
         <use xlink:href="#E0A3-saef5f" x="4841" y="5819" height="720px" width="720px" />
        </g>
        <g id="sjq6ddi" class="stem">
         <rect x="5056" y="5189" height="602" width="18" />
        </g>
        <g id="m-199" class="verse">
         <g id="m-200" class="syl">
          <text x="4751" y="6551" font-size="0px">
           <tspan id="tiet1cf" class="text">
            <tspan font-size="405px" class="text">life.</tspan>
           </tspan>
          </text>
         </g>
        </g>
       </g>
      </g>
     </g>
     <g id="m-201" class="staff">
      <path d="M4661 7079 L6139 7079" stroke="currentColor" stroke-width="10" />
      <path d="M4661 7259 L6139 7259" stroke="currentColor" stroke-width="10" />
      <path d="M4661 7439 L6139 7439" stroke="currentColor" stroke-width="10" />
      <path d="M4661 7619 L6139 7619" stroke="currentColor" stroke-width="10" />
      <path d="M4661 7799 L6139 7799" stroke="currentColor" stroke-width="10" />
      <g id="m-202" class="layer">
       <g id="m-203" class="note">
        <g class="notehead">
         <use xlink:href="#E0A3-saef5f" x="4841" y="7799" height="720px" width="720px" />
        </g>
        <g id="sj41wz5" class="stem">
         <rect x="5056" y="7169" height="602" width="18" />
        </g>
       </g>
      </g>
     </g>
     <g id="bdwu774" class="barLine">
      <path d="M5972 5999 L5972 5279" stroke="currentColor" stroke-width="10" />
      <path d="M6094 5999 L6094 5279" stroke="currentColor" stroke-width="90" />
      <path d="M5972 7799 L5972 7079" stroke="currentColor" stroke-width="10" />
      <path d="M6094 7799 L6094 7079" stroke="currentColor" stroke-width="90" />
     </g>
    </g>
    <g id="sf8lhaz" class="systemMilestoneEnd m-43" />
    <g class="syl spanning id-m-182">
     <rect x="969" y="6448" height="22" width="108" />
    </g>
   </g>
   <g id="pe5n5lu" class="pageMilestoneEnd m-33" />
   <g id="p69swjj" class="pageMilestoneEnd m-31" />
  </g>
 </svg>
</svg>
