<svg width="900px" height="392px" version="1.1" xmlns="http://www.w3.org/2000/svg" xmlns:xlink="http://www.w3.org/1999/xlink" xmlns:mei="http://www.music-encoding.org/ns/mei" overflow="visible">
 <desc>Engraved by Verovio 3.10.0-dev-e51b2ff</desc>
 <defs>
  <symbol id="E084-vsg5bc" viewBox="0 0 1000 1000" overflow="inherit">
   <path transform="scale(1,-1)" d="M208 -127h-172c-9 0 -11 6 -11 6s-7 11 -10 18c-1 2 -1 4 -1 6c0 6 3 11 3 11c26 37 56 87 82 168s31 155 31 155c1 6 6 12 13 12h149c4 0 7 -2 10 -4l22 -22c1 -1 3 -5 3 -10c0 -4 -1 -9 -5 -14c-118 -158 -230 -278 -230 -278h116v82c0 4 1 8 4 11l91 83c2 2 6 3 9 3h2 c2 0 3 0 5 -1l12 -6c4 -2 7 -7 7 -13v-159h90c8 0 14 -7 14 -14v-19c0 -8 -6 -15 -14 -15h-90v-74h90c8 0 14 -6 14 -14v-19c0 -8 -6 -14 -14 -14h-303c-7 0 -14 6 -14 14v19c0 8 7 14 14 14h83v74z" />
  </symbol>
  <symbol id="E086-vsg5bc" viewBox="0 0 1000 1000" overflow="inherit">
   <path transform="scale(1,-1)" d="M247 48c63 0 140 -37 140 -135c0 -116 -131 -157 -166 -157s-72 2 -130 46c-59 52 -76 121 -76 182c0 56 15 105 25 129c20 46 85 132 175 132c100 0 142 -53 155 -89c4 -8 6 -23 6 -32v-1v-2c0 -36 -29 -64 -65 -64s-64 28 -64 64c0 23 17 50 38 59 c-10 11 -25 19 -50 19c-54 0 -79 -46 -85 -83c-3 -18 -5 -32 -5 -48s2 -32 5 -53c14 15 36 33 97 33zM210 -202c33 0 61 45 61 101s-28 102 -61 102s-60 -46 -60 -102s27 -101 60 -101z" />
  </symbol>
  <symbol id="E044-vsg5bc" viewBox="0 0 1000 1000" overflow="inherit">
   <path transform="scale(1,-1)" d="M104 0c0 -29 -23 -53 -52 -53s-52 24 -52 53s23 53 52 53s52 -24 52 -53z" />
  </symbol>
  <symbol id="E050-vsg5bc" viewBox="0 0 1000 1000" overflow="inherit">
   <path transform="scale(1,-1)" d="M562 -21c0 89 -65 150 -155 150c7 -44 34 -203 55 -323c71 29 100 102 100 173zM420 -206l-58 329c-59 -14 -104 -63 -104 -124c0 -49 22 -75 61 -99c12 -8 22 -13 22 -22s-9 -13 -17 -13c-80 0 -135 96 -135 166c0 94 62 190 153 217c-7 41 -14 88 -23 142 c-15 -15 -31 -29 -48 -44c-88 -76 -174 -185 -174 -307c0 -151 122 -251 265 -251c19 0 38 2 58 6zM332 822c-8 -31 -11 -65 -11 -102c0 -42 5 -81 11 -121c69 68 146 146 146 250c0 69 -24 118 -39 118c-52 0 -98 -105 -107 -145zM122 -513c0 66 45 123 115 123 c75 0 116 -57 116 -111c0 -64 -47 -104 -94 -111c-3 -1 -5 -2 -5 -4c0 -1 2 -2 3 -3c2 0 23 -5 47 -5c101 0 154 55 154 159c0 53 -11 123 -30 219c-23 -4 -50 -7 -79 -7c-186 0 -349 147 -349 334c0 200 126 321 217 406c21 17 73 70 74 71c-17 112 -22 161 -22 215 c0 84 18 212 82 288c33 39 64 51 71 51c18 0 47 -35 71 -86c16 -36 44 -110 44 -201c0 -159 -73 -284 -179 -395c9 -56 19 -115 29 -175c146 0 253 -102 253 -253c0 -103 -73 -205 -171 -237c6 -39 12 -69 15 -89c10 -57 16 -102 16 -141c0 -63 -14 -129 -68 -167 c-36 -22 -77 -34 -124 -34c-135 0 -186 87 -186 153z" />
  </symbol>
  <symbol id="E062-vsg5bc" viewBox="0 0 1000 1000" overflow="inherit">
   <path transform="scale(1,-1)" d="M254 251c93 0 164 -29 211 -85c41 -49 63 -118 63 -201c0 -67 -25 -145 -69 -220c-25 -42 -56 -84 -92 -123c-40 -43 -86 -83 -137 -120c-91 -71 -205 -118 -206 -118s-4 -1 -5 -1c-6 0 -15 2 -18 12c0 2 -1 3 -1 5c0 12 12 19 12 19c1 0 99 45 203 140 c39 35 83 98 116 164c30 59 65 148 65 241c0 168 -50 250 -152 250c-35 0 -67 -6 -92 -20c-17 -9 -39 -29 -50 -45s-23 -45 -26 -64c8 7 25 17 35 21c9 3 20 5 32 5c17 0 37 -4 58 -18c30 -19 48 -51 48 -86c0 -39 -19 -75 -50 -92c-19 -11 -42 -17 -64 -17 c-13 0 -26 2 -38 6c-30 10 -53 29 -65 56c-9 19 -13 41 -13 65c0 17 2 35 7 53c9 35 32 86 90 129c1 0 62 44 138 44zM568 124c0 28 22 51 48 51s48 -23 48 -51s-22 -50 -48 -50s-48 22 -48 50zM568 -123c0 28 22 51 48 51s48 -23 48 -51s-22 -51 -48 -51s-48 23 -48 51z " />
  </symbol>
  <symbol id="E0A3-vsg5bc" viewBox="0 0 1000 1000" overflow="inherit">
   <path transform="scale(1,-1)" d="M213 132c62 0 112 -33 112 -92c0 -88 -109 -173 -213 -173c-81 0 -112 48 -112 91c0 93 116 174 213 174zM186 -44c3 2 104 50 104 93c0 22 -16 36 -40 36c-36 0 -107 -40 -111 -42s-104 -51 -104 -93c0 -9 7 -36 40 -36c35 0 108 40 111 42z" />
  </symbol>
  <symbol id="E0A4-vsg5bc" viewBox="0 0 1000 1000" overflow="inherit">
   <path transform="scale(1,-1)" d="M0 -42c0 92 116 174 213 174c62 0 112 -33 112 -92c0 -88 -109 -173 -213 -173c-81 0 -112 48 -112 91z" />
  </symbol>
  <symbol id="E240-vsg5bc" viewBox="0 0 1000 1000" overflow="inherit">
   <path transform="scale(1,-1)" d="M0 -227v226c0 7 6 13 13 13c6 0 11 -4 12 -8c0 0 9 -36 10 -39c2 -4 19 -61 56 -118c27 -42 122 -165 119 -165c0 0 74 -95 79 -224v-12c1 -63 -15 -169 -62 -252c-4 -7 -9 -11 -16 -11c-1 0 -3 0 -5 1c-4 2 -5 5 -5 9c-1 4 1 9 3 15c26 72 45 146 45 218 c0 83 -29 126 -47 157c-65 111 -151 165 -194 179c-7 3 -8 8 -8 11z" />
  </symbol>
  <symbol id="E241-vsg5bc" viewBox="0 0 1000 1000" overflow="inherit">
   <path transform="scale(1,-1)" d="M0 1v226c0 3 1 8 8 11c42 14 147 68 212 179c18 31 47 74 47 157c0 72 -16 125 -56 218c-2 4 -3 9 -3 12c0 6 2 10 7 12c1 1 3 1 5 1c6 0 12 -4 15 -11c53 -97 74 -173 74 -264c0 -88 -30 -154 -79 -224c-50 -70 -110 -117 -149 -182c-36 -59 -45 -97 -46 -101 c-1 -3 -10 -38 -10 -39c-1 -4 -7 -8 -12 -8c-7 0 -13 6 -13 13z" />
  </symbol>
  <symbol id="E260-vsg5bc" viewBox="0 0 1000 1000" overflow="inherit">
   <path transform="scale(1,-1)" d="M201 79c1 -8 2 -16 2 -25c0 -41 -15 -90 -53 -133c-54 -61 -119 -93 -123 -95c-2 -1 -6 -2 -8 -2c-8 0 -14 6 -14 14l-5 601c0 8 6 14 14 14h12c8 0 14 -6 14 -14l-4 -321c5 6 34 37 84 37c51 0 75 -37 81 -76zM132 40v11c0 21 -3 55 -39 55c-40 0 -55 -29 -57 -38 l-3 -195c19 15 53 42 70 68c25 38 29 84 29 99z" />
  </symbol>
  <symbol id="E4E5-vsg5bc" viewBox="0 0 1000 1000" overflow="inherit">
   <path transform="scale(1,-1)" d="M230 -166l2 -3c2 -3 3 -5 3 -8s-1 -5 -3 -9c-3 -4 -6 -5 -10 -5s-8 2 -8 2l-39 25c-8 5 -19 9 -32 9s-27 -4 -39 -16c-13 -13 -17 -29 -17 -42c0 -18 7 -32 7 -32s32 -58 35 -63c1 -2 3 -5 3 -9s-2 -8 -7 -12c-2 -2 -4 -2 -6 -2c-7 0 -12 6 -12 6s-75 95 -96 127 c-8 11 -11 25 -11 39c0 25 12 53 34 73c18 16 40 20 57 20c12 0 21 -2 25 -3l-112 139c-2 2 -3 5 -3 8v9c0 2 1 6 2 8l101 154c2 3 3 8 3 12c0 5 -1 9 -3 12l-76 104s-3 5 -3 11c0 3 1 7 5 10c3 2 5 3 8 3c6 0 10 -6 10 -6l162 -219c2 -2 3 -5 3 -8v-9c0 -2 -1 -5 -2 -7 l-102 -154c-1 -2 -2 -6 -2 -9c0 -2 1 -5 2 -6l115 -142c3 -4 5 -6 6 -7z" />
  </symbol>
 </defs>
 <style type="text/css">g.page-margin{font-family:Times;} g.ending, g.fing, g.reh, g.tempo{font-weight:bold;} g.dir, g.dynam, g.mNum{font-style:italic;} g.label{font-weight:normal;}</style>
 <svg class="definition-scale" color="black" viewBox="0 0 22500 9800">
  <g class="page-margin" transform="translate(300, 1000)">
   <g id="m-31" class="mdiv pageMilestone" />
   <g id="m-33" class="score pageMilestone" />
   <g id="s6vt622" class="system">
    <path d="M5 540 L5 3060" stroke="currentColor" stroke-width="10" />
    <g id="gq2j6tw" class="grpSym">
     <path d="M-72,3042 C-432,2502 18,1980 -252,1800 C81,1980 -369,2502 -72,3042" stroke="currentColor" stroke-linecap="round" stroke-linejoin="round" stroke-width="18" />
     <path d="M-72,558 C-369,1098 81,1620 -252,1800 C18,1620 -432,1098 -72,558" stroke="currentColor" stroke-linecap="round" stroke-linejoin="round" stroke-width="18" />
    </g>
    <g id="m-45" class="sb" />
    <g id="m-43" class="section systemMilestone" />
    <g id="m-28" class="pb" />
    <g id="m-44" class="measure">
     <g id="m-46" class="staff">
      <path d="M0 540 L2928 540" stroke="currentColor" stroke-width="10" />
      <path d="M0 720 L2928 720" stroke="currentColor" stroke-width="10" />
      <path d="M0 900 L2928 900" stroke="currentColor" stroke-width="10" />
      <path d="M0 1080 L2928 1080" stroke="currentColor" stroke-width="10" />
      <path d="M0 1260 L2928 1260" stroke="currentColor" stroke-width="10" />
      <g id="ckdbv8f" class="clef">
       <use xlink:href="#E050-vsg5bc" x="145" y="1080" height="720px" width="720px" />
      </g>
      <g id="kwqu9pu" class="keySig">
       <g class="keyAccid">
        <use xlink:href="#E260-vsg5bc" x="803" y="900" height="720px" width="720px" />
       </g>
       <g class="keyAccid">
        <use xlink:href="#E260-vsg5bc" x="992" y="630" height="720px" width="720px" />
       </g>
      </g>
      <g id="m96y7or" class="meterSig">
       <use xlink:href="#E086-vsg5bc" x="1328" y="720" height="720px" width="720px" />
       <use xlink:href="#E084-vsg5bc" x="1308" y="1080" height="720px" width="720px" />
      </g>
      <g id="m-47" class="layer">
       <g id="m-49" class="beam">
        <polygon points="2123,540 2671,540 2671,630 2123,630 " />
        <g id="m-48" class="note">
         <g class="notehead">
          <use xlink:href="#E0A4-vsg5bc" x="1907" y="1170" height="720px" width="720px" />
         </g>
         <g id="sb8si9r" class="stem">
          <rect x="2123" y="558" height="584" width="18" />
         </g>
         <g id="m-51" class="verse">
          <g id="m-52" class="syl">
           <text x="1817" y="1812" font-size="0px">
            <tspan id="txyum5j" class="text">
             <tspan font-size="405px" class="text">At</tspan>
            </tspan>
           </text>
          </g>
         </g>
        </g>
        <g id="m-50" class="note">
         <g class="notehead">
          <use xlink:href="#E0A4-vsg5bc" x="2437" y="1170" height="720px" width="720px" />
         </g>
         <g id="sab88fb" class="stem">
          <rect x="2653" y="558" height="584" width="18" />
         </g>
         <g id="m-53" class="verse">
          <g id="m-54" class="syl">
           <text x="2347" y="1812" font-size="0px">
            <tspan id="t10yuj3" class="text">
             <tspan font-size="405px" class="text">the</tspan>
            </tspan>
           </text>
          </g>
         </g>
        </g>
       </g>
      </g>
     </g>
     <g id="m-55" class="staff">
      <path d="M0 2340 L2928 2340" stroke="currentColor" stroke-width="10" />
      <path d="M0 2520 L2928 2520" stroke="currentColor" stroke-width="10" />
      <path d="M0 2700 L2928 2700" stroke="currentColor" stroke-width="10" />
      <path d="M0 2880 L2928 2880" stroke="currentColor" stroke-width="10" />
      <path d="M0 3060 L2928 3060" stroke="currentColor" stroke-width="10" />
      <g id="cg975q" class="clef">
       <use xlink:href="#E062-vsg5bc" x="145" y="2520" height="720px" width="720px" />
      </g>
      <g id="k291lcg" class="keySig">
       <g class="keyAccid">
        <use xlink:href="#E260-vsg5bc" x="803" y="2880" height="720px" width="720px" />
       </g>
       <g class="keyAccid">
        <use xlink:href="#E260-vsg5bc" x="992" y="2610" height="720px" width="720px" />
       </g>
      </g>
      <g id="mujjm52" class="meterSig">
       <use xlink:href="#E086-vsg5bc" x="1328" y="2520" height="720px" width="720px" />
       <use xlink:href="#E084-vsg5bc" x="1308" y="2880" height="720px" width="720px" />
      </g>
      <g id="m-56" class="layer">
       <g id="m-57" class="rest">
        <use xlink:href="#E4E5-vsg5bc" x="1907" y="2700" height="720px" width="720px" />
       </g>
      </g>
     </g>
     <g id="bpz1hxc" class="barLine">
      <path d="M2923 1260 L2923 540" stroke="currentColor" stroke-width="10" />
      <path d="M2923 3060 L2923 2340" stroke="currentColor" stroke-width="10" />
     </g>
    </g>
    <g id="m-61" class="measure">
     <g id="m-62" class="staff">
      <path d="M2928 540 L7491 540" stroke="currentColor" stroke-width="10" />
      <path d="M2928 720 L7491 720" stroke="currentColor" stroke-width="10" />
      <path d="M2928 900 L7491 900" stroke="currentColor" stroke-width="10" />
      <path d="M2928 1080 L7491 1080" stroke="currentColor" stroke-width="10" />
      <path d="M2928 1260 L7491 1260" stroke="currentColor" stroke-width="10" />
      <g id="m-63" class="layer">
       <g id="m-64" class="note">
        <g class="notehead">
         <use xlink:href="#E0A4-vsg5bc" x="3119" y="900" height="720px" width="720px" />
        </g>
        <g id="dl0c5co" class="dots">
         <ellipse cx="3443" cy="810" rx="36" ry="36" />
        </g>
        <g id="s2di5me" class="stem">
         <rect x="3119" y="930" height="570" width="18" />
        </g>
        <g id="m-65" class="accid" />
        <g id="m-72" class="verse">
         <g id="m-73" class="syl">
          <text x="3029" y="1812" font-size="0px">
           <tspan id="t7xoa1t" class="text">
            <tspan font-size="405px" class="text">Tree</tspan>
           </tspan>
          </text>
         </g>
        </g>
       </g>
       <g id="m-66" class="note">
        <g class="notehead">
         <use xlink:href="#E0A4-vsg5bc" x="4072" y="810" height="720px" width="720px" />
        </g>
        <g id="so8eujw" class="stem">
         <rect x="4072" y="840" height="600" width="18" />
         <g id="f2c9djs" class="flag">
          <use xlink:href="#E241-vsg5bc" x="4072" y="1440" height="720px" width="720px" />
         </g>
        </g>
        <g id="m-74" class="verse">
         <g id="m-75" class="syl">
          <text x="3982" y="1812" font-size="0px">
           <tspan id="tf2gdp1" class="text">
            <tspan font-size="405px" class="text">I</tspan>
           </tspan>
          </text>
         </g>
        </g>
       </g>
       <g id="m-67" class="note">
        <g class="notehead">
         <use xlink:href="#E0A4-vsg5bc" x="4558" y="900" height="720px" width="720px" />
        </g>
        <g id="si00zsc" class="stem">
         <rect x="4558" y="930" height="570" width="18" />
        </g>
        <g id="m-68" class="accid" />
        <g id="m-76" class="verse">
         <g id="m-77" class="syl">
          <text x="4299" y="1812" font-size="0px">
           <tspan id="t8xrehx" class="text">
            <tspan font-size="405px" class="text">shall</tspan>
           </tspan>
          </text>
         </g>
        </g>
       </g>
       <g id="m-69" class="note">
        <g class="notehead">
         <use xlink:href="#E0A4-vsg5bc" x="5305" y="810" height="720px" width="720px" />
        </g>
        <g id="d7i7zui" class="dots">
         <ellipse cx="5629" cy="810" rx="36" ry="36" />
        </g>
        <g id="sk56tzw" class="stem">
         <rect x="5305" y="840" height="600" width="18" />
        </g>
        <g id="m-78" class="verse">
         <g id="m-79" class="syl">
          <text x="5215" y="1812" font-size="0px">
           <tspan id="tkrfp30" class="text">
            <tspan font-size="405px" class="text">suf</tspan>
           </tspan>
          </text>
          <rect x="5836" y="1709" height="22" width="108" />
         </g>
        </g>
       </g>
       <g id="m-70" class="note">
        <g class="notehead">
         <use xlink:href="#E0A4-vsg5bc" x="6258" y="720" height="720px" width="720px" />
        </g>
        <g id="slhlzpm" class="stem">
         <rect x="6258" y="750" height="600" width="18" />
         <g id="fgw2swu" class="flag">
          <use xlink:href="#E241-vsg5bc" x="6258" y="1350" height="720px" width="720px" />
         </g>
        </g>
        <g id="m-80" class="verse">
         <g id="m-81" class="syl">
          <text x="6070" y="1812" font-size="0px">
           <tspan id="tuxin9d" class="text">
            <tspan font-size="405px" class="text">fer</tspan>
           </tspan>
          </text>
         </g>
        </g>
       </g>
       <g id="m-71" class="note">
        <g class="notehead">
         <use xlink:href="#E0A4-vsg5bc" x="6744" y="810" height="720px" width="720px" />
        </g>
        <g id="szcscx1" class="stem">
         <rect x="6744" y="840" height="600" width="18" />
        </g>
        <g id="m-82" class="verse">
         <g id="m-83" class="syl">
          <text x="6654" y="1812" font-size="0px">
           <tspan id="td55h8x" class="text">
            <tspan font-size="405px" class="text">with</tspan>
           </tspan>
          </text>
         </g>
        </g>
       </g>
      </g>
     </g>
     <g id="m-84" class="staff">
      <path d="M2928 2340 L7491 2340" stroke="currentColor" stroke-width="10" />
      <path d="M2928 2520 L7491 2520" stroke="currentColor" stroke-width="10" />
      <path d="M2928 2700 L7491 2700" stroke="currentColor" stroke-width="10" />
      <path d="M2928 2880 L7491 2880" stroke="currentColor" stroke-width="10" />
      <path d="M2928 3060 L7491 3060" stroke="currentColor" stroke-width="10" />
      <g id="m-85" class="layer">
       <g id="m-86" class="note">
        <g class="notehead">
         <use xlink:href="#E0A3-vsg5bc" x="3119" y="2250" height="720px" width="720px" />
        </g>
        <g id="d1m3i2" class="dots">
         <ellipse cx="3443" cy="2250" rx="36" ry="36" />
        </g>
        <g id="stihzg8" class="stem">
         <rect x="3119" y="2280" height="600" width="18" />
        </g>
        <g id="m-87" class="accid" />
       </g>
       <g id="m-88" class="note">
        <g class="notehead">
         <use xlink:href="#E0A3-vsg5bc" x="5305" y="2520" height="720px" width="720px" />
        </g>
        <g id="d2n69n3" class="dots">
         <ellipse cx="5629" cy="2430" rx="36" ry="36" />
        </g>
        <g id="sgkvukl" class="stem">
         <rect x="5305" y="2550" height="600" width="18" />
        </g>
       </g>
      </g>
     </g>
     <g id="b8t744k" class="barLine" />
    </g>
    <g id="m-89" class="measure">
     <g id="m-90" class="staff">
      <path d="M7491 540 L12224 540" stroke="currentColor" stroke-width="10" />
      <path d="M7491 720 L12224 720" stroke="currentColor" stroke-width="10" />
      <path d="M7491 900 L12224 900" stroke="currentColor" stroke-width="10" />
      <path d="M7491 1080 L12224 1080" stroke="currentColor" stroke-width="10" />
      <path d="M7491 1260 L12224 1260" stroke="currentColor" stroke-width="10" />
      <g id="m-91" class="layer">
       <g id="m-92" class="note">
        <g class="notehead">
         <use xlink:href="#E0A4-vsg5bc" x="8063" y="720" height="720px" width="720px" />
        </g>
        <g id="sp9yslq" class="stem">
         <rect x="8063" y="750" height="600" width="18" />
        </g>
        <g id="m-101" class="verse">
         <g id="m-102" class="syl">
          <text x="7787" y="1812" font-size="0px">
           <tspan id="tpjceu7" class="text">
            <tspan font-size="405px" class="text">plea</tspan>
           </tspan>
          </text>
          <rect x="8537" y="1709" height="22" width="108" />
         </g>
        </g>
       </g>
       <g id="m-93" class="note">
        <g class="notehead">
         <use xlink:href="#E0A3-vsg5bc" x="8810" y="900" height="720px" width="720px" />
        </g>
        <g id="sirba8b" class="stem">
         <rect x="8810" y="930" height="570" width="18" />
        </g>
        <g id="m-94" class="accid" />
        <g id="m-103" class="verse">
         <g id="m-104" class="syl">
          <text x="8720" y="1812" font-size="0px">
           <tspan id="tleazla" class="text">
            <tspan font-size="405px" class="text">sure:</tspan>
           </tspan>
          </text>
          <rect x="9554" y="1790" height="22" width="627" />
         </g>
        </g>
       </g>
       <g id="m-96" class="note">
        <g class="notehead">
         <use xlink:href="#E0A3-vsg5bc" x="9947" y="900" height="720px" width="720px" />
        </g>
        <g id="s9p75cs" class="stem">
         <rect x="9947" y="930" height="570" width="18" />
        </g>
        <g id="m-97" class="accid" />
       </g>
       <g id="m-99" class="beam">
        <polygon points="11084,1305 11588,1305 11588,1215 11084,1215 " />
        <g id="m-98" class="note">
         <g class="notehead">
          <use xlink:href="#E0A4-vsg5bc" x="11084" y="720" height="720px" width="720px" />
         </g>
         <g id="sc0p1ir" class="stem">
          <rect x="11084" y="750" height="537" width="18" />
         </g>
         <g id="m-105" class="verse">
          <g id="m-106" class="syl">
           <text x="10805" y="1812" font-size="0px">
            <tspan id="ty59g7q" class="text">
             <tspan font-size="405px" class="text">Let</tspan>
            </tspan>
           </text>
          </g>
         </g>
        </g>
        <g id="m-100" class="note">
         <g class="notehead">
          <use xlink:href="#E0A4-vsg5bc" x="11570" y="720" height="720px" width="720px" />
         </g>
         <g id="sikc2r4" class="stem">
          <rect x="11570" y="750" height="537" width="18" />
         </g>
         <g id="m-107" class="verse">
          <g id="m-108" class="syl">
           <text x="11480" y="1812" font-size="0px">
            <tspan id="tr6uwi0" class="text">
             <tspan font-size="405px" class="text">me</tspan>
            </tspan>
           </text>
          </g>
         </g>
        </g>
       </g>
      </g>
     </g>
     <g id="m-109" class="staff">
      <path d="M7491 2340 L12224 2340" stroke="currentColor" stroke-width="10" />
      <path d="M7491 2520 L12224 2520" stroke="currentColor" stroke-width="10" />
      <path d="M7491 2700 L12224 2700" stroke="currentColor" stroke-width="10" />
      <path d="M7491 2880 L12224 2880" stroke="currentColor" stroke-width="10" />
      <path d="M7491 3060 L12224 3060" stroke="currentColor" stroke-width="10" />
      <g id="m-110" class="layer">
       <g id="m-111" class="note">
        <g class="notehead">
         <use xlink:href="#E0A3-vsg5bc" x="8063" y="2880" height="720px" width="720px" />
        </g>
        <g id="djbxa89" class="dots">
         <ellipse cx="8387" cy="2790" rx="36" ry="36" />
        </g>
        <g id="sszo7g3" class="stem">
         <rect x="8278" y="2250" height="602" width="18" />
        </g>
        <g id="m-112" class="accid" />
       </g>
       <g id="m-114" class="note">
        <g class="notehead">
         <use xlink:href="#E0A3-vsg5bc" x="9947" y="2880" height="720px" width="720px" />
        </g>
        <g id="svxn446" class="stem">
         <rect x="10162" y="2250" height="602" width="18" />
        </g>
        <g id="m-115" class="accid" />
       </g>
       <g id="m-116" class="rest">
        <use xlink:href="#E4E5-vsg5bc" x="11084" y="2700" height="720px" width="720px" />
       </g>
      </g>
     </g>
     <g id="m-95" class="tie">
      <path d="M9089,855 C9285,699 9704,699 9902,855 C9690,746 9299,746 9089,855" stroke="currentColor" stroke-linecap="round" stroke-linejoin="round" stroke-width="9" />
     </g>
     <g id="m-113" class="tie">
      <path d="M8342,2925 C8735,3035 9508,3035 9902,2925 C9516,3083 8727,3083 8342,2925" stroke="currentColor" stroke-linecap="round" stroke-linejoin="round" stroke-width="9" />
     </g>
     <g id="bh064b8" class="barLine">
      <path d="M7626 1260 L7626 540" stroke="currentColor" stroke-width="90" />
      <path d="M7748 1260 L7748 540" stroke="currentColor" stroke-width="10" />
      <use xlink:href="#E044-vsg5bc" x="7785" y="810" height="720px" width="720px" />
      <use xlink:href="#E044-vsg5bc" x="7785" y="990" height="720px" width="720px" />
      <path d="M7626 3060 L7626 2340" stroke="currentColor" stroke-width="90" />
      <path d="M7748 3060 L7748 2340" stroke="currentColor" stroke-width="10" />
      <use xlink:href="#E044-vsg5bc" x="7785" y="2610" height="720px" width="720px" />
      <use xlink:href="#E044-vsg5bc" x="7785" y="2790" height="720px" width="720px" />
     </g>
     <g id="bv152w3" class="barLine">
      <path d="M12057 1260 L12057 540" stroke="currentColor" stroke-width="10" />
      <path d="M12179 1260 L12179 540" stroke="currentColor" stroke-width="90" />
      <use xlink:href="#E044-vsg5bc" x="11946" y="810" height="720px" width="720px" />
      <use xlink:href="#E044-vsg5bc" x="11946" y="990" height="720px" width="720px" />
      <path d="M12057 3060 L12057 2340" stroke="currentColor" stroke-width="10" />
      <path d="M12179 3060 L12179 2340" stroke="currentColor" stroke-width="90" />
      <use xlink:href="#E044-vsg5bc" x="11946" y="2610" height="720px" width="720px" />
      <use xlink:href="#E044-vsg5bc" x="11946" y="2790" height="720px" width="720px" />
     </g>
    </g>
    <g id="m-117" class="measure">
     <g id="m-118" class="staff">
      <path d="M12224 540 L17161 540" stroke="currentColor" stroke-width="10" />
      <path d="M12224 720 L17161 720" stroke="currentColor" stroke-width="10" />
      <path d="M12224 900 L17161 900" stroke="currentColor" stroke-width="10" />
      <path d="M12224 1080 L17161 1080" stroke="currentColor" stroke-width="10" />
      <path d="M12224 1260 L17161 1260" stroke="currentColor" stroke-width="10" />
      <g id="m-119" class="layer">
       <g id="m-120" class="note">
        <g class="notehead">
         <use xlink:href="#E0A4-vsg5bc" x="12415" y="630" height="720px" width="720px" />
        </g>
        <g id="d3aga88" class="dots">
         <ellipse cx="12739" cy="630" rx="36" ry="36" />
        </g>
        <g id="secbiiv" class="stem">
         <rect x="12415" y="660" height="600" width="18" />
        </g>
        <g id="m-121" class="accid" />
        <g id="m-130" class="verse">
         <g id="m-131" class="syl">
          <text x="12325" y="1812" font-size="0px">
           <tspan id="tki0lv5" class="text">
            <tspan font-size="405px" class="text">go</tspan>
           </tspan>
          </text>
         </g>
        </g>
       </g>
       <g id="m-122" class="note">
        <g class="notehead">
         <use xlink:href="#E0A4-vsg5bc" x="13368" y="540" height="720px" width="720px" />
        </g>
        <g id="sgg3zql" class="stem">
         <rect x="13368" y="570" height="600" width="18" />
         <g id="fdlth8w" class="flag">
          <use xlink:href="#E241-vsg5bc" x="13368" y="1170" height="720px" width="720px" />
         </g>
        </g>
        <g id="m-132" class="verse">
         <g id="m-133" class="syl">
          <text x="13008" y="1812" font-size="0px">
           <tspan id="t5xmaz1" class="text">
            <tspan font-size="405px" class="text">where</tspan>
           </tspan>
          </text>
         </g>
        </g>
       </g>
       <g id="m-123" class="note">
        <g class="notehead">
         <use xlink:href="#E0A4-vsg5bc" x="14223" y="630" height="720px" width="720px" />
        </g>
        <g id="sj96d4k" class="stem">
         <rect x="14223" y="660" height="600" width="18" />
        </g>
        <g id="m-124" class="accid" />
        <g id="m-134" class="verse">
         <g id="m-135" class="syl">
          <text x="14133" y="1812" font-size="0px">
           <tspan id="txi6wse" class="text">
            <tspan font-size="405px" class="text">I</tspan>
           </tspan>
          </text>
         </g>
        </g>
       </g>
       <g id="m-125" class="note">
        <g class="notehead">
         <use xlink:href="#E0A4-vsg5bc" x="14970" y="720" height="720px" width="720px" />
        </g>
        <g id="dtrjg93" class="dots">
         <ellipse cx="15294" cy="630" rx="36" ry="36" />
        </g>
        <g id="snehsua" class="stem">
         <rect x="14970" y="750" height="600" width="18" />
        </g>
        <g id="m-136" class="verse">
         <g id="m-137" class="syl">
          <text x="14880" y="1812" font-size="0px">
           <tspan id="tvicr63" class="text">
            <tspan font-size="405px" class="text">will,</tspan>
           </tspan>
          </text>
          <rect x="15639" y="1790" height="22" width="518" />
         </g>
        </g>
       </g>
       <g id="m-127" class="note">
        <g class="notehead">
         <use xlink:href="#E0A4-vsg5bc" x="15923" y="630" height="720px" width="720px" />
        </g>
        <g id="sz3if0s" class="stem">
         <rect x="15923" y="660" height="600" width="18" />
         <g id="fac96n" class="flag">
          <use xlink:href="#E241-vsg5bc" x="15923" y="1260" height="720px" width="720px" />
         </g>
        </g>
        <g id="m-128" class="accid" />
       </g>
       <g id="m-129" class="note">
        <g class="notehead">
         <use xlink:href="#E0A4-vsg5bc" x="16410" y="720" height="720px" width="720px" />
        </g>
        <g id="sg30fkq" class="stem">
         <rect x="16410" y="750" height="600" width="18" />
        </g>
        <g id="m-138" class="verse">
         <g id="m-139" class="syl">
          <text x="16320" y="1812" font-size="0px">
           <tspan id="teiy8tb" class="text">
            <tspan font-size="405px" class="text">In</tspan>
           </tspan>
          </text>
         </g>
        </g>
       </g>
      </g>
     </g>
     <g id="m-140" class="staff">
      <path d="M12224 2340 L17161 2340" stroke="currentColor" stroke-width="10" />
      <path d="M12224 2520 L17161 2520" stroke="currentColor" stroke-width="10" />
      <path d="M12224 2700 L17161 2700" stroke="currentColor" stroke-width="10" />
      <path d="M12224 2880 L17161 2880" stroke="currentColor" stroke-width="10" />
      <path d="M12224 3060 L17161 3060" stroke="currentColor" stroke-width="10" />
      <g id="m-141" class="layer">
       <g id="m-142" class="note">
        <g class="notehead">
         <use xlink:href="#E0A3-vsg5bc" x="12415" y="2610" height="720px" width="720px" />
        </g>
        <g id="d8fpxpc" class="dots">
         <ellipse cx="12739" cy="2610" rx="36" ry="36" />
        </g>
        <g id="s1xyvoq" class="stem">
         <rect x="12415" y="2640" height="600" width="18" />
        </g>
        <g id="m-143" class="accid" />
       </g>
       <g id="m-144" class="note">
        <g class="notehead">
         <use xlink:href="#E0A3-vsg5bc" x="14970" y="2250" height="720px" width="720px" />
        </g>
        <g id="dd7emm6" class="dots">
         <ellipse cx="15294" cy="2250" rx="36" ry="36" />
        </g>
        <g id="s9b4oaz" class="stem">
         <rect x="14970" y="2280" height="600" width="18" />
        </g>
        <g id="m-145" class="accid" />
       </g>
      </g>
     </g>
     <g id="m-126" class="tie">
      <path d="M15249,518 C15522,362 16091,362 16365,518 C16080,410 15533,410 15249,518" stroke="currentColor" stroke-linecap="round" stroke-linejoin="round" stroke-width="9" />
     </g>
     <g id="ben8hbu" class="barLine">
      <path d="M17156 1260 L17156 540" stroke="currentColor" stroke-width="10" />
      <path d="M17156 3060 L17156 2340" stroke="currentColor" stroke-width="10" />
     </g>
    </g>
    <g id="m-147" class="sb" />
    <g id="m-146" class="measure">
     <g id="m-148" class="staff">
      <path d="M17161 540 L22002 540" stroke="currentColor" stroke-width="10" />
      <path d="M17161 720 L22002 720" stroke="currentColor" stroke-width="10" />
      <path d="M17161 900 L22002 900" stroke="currentColor" stroke-width="10" />
      <path d="M17161 1080 L22002 1080" stroke="currentColor" stroke-width="10" />
      <path d="M17161 1260 L22002 1260" stroke="currentColor" stroke-width="10" />
      <g id="m-149" class="layer">
       <g id="m-150" class="note">
        <g class="notehead">
         <use xlink:href="#E0A4-vsg5bc" x="17352" y="810" height="720px" width="720px" />
        </g>
        <g id="d2854ze" class="dots">
         <ellipse cx="17676" cy="810" rx="36" ry="36" />
        </g>
        <g id="scs9vm7" class="stem">
         <rect x="17352" y="840" height="600" width="18" />
        </g>
        <g id="m-156" class="verse">
         <g id="m-157" class="syl">
          <text x="17262" y="1812" font-size="0px">
           <tspan id="tk1d6dn" class="text">
            <tspan font-size="405px" class="text">all</tspan>
           </tspan>
          </text>
         </g>
        </g>
       </g>
       <g id="m-151" class="note">
        <g class="notehead">
         <use xlink:href="#E0A4-vsg5bc" x="18305" y="720" height="720px" width="720px" />
        </g>
        <g id="s7erip4" class="stem">
         <rect x="18305" y="750" height="600" width="18" />
         <g id="flzmhs9" class="flag">
          <use xlink:href="#E241-vsg5bc" x="18305" y="1350" height="720px" width="720px" />
         </g>
        </g>
        <g id="m-158" class="verse">
         <g id="m-159" class="syl">
          <text x="17945" y="1812" font-size="0px">
           <tspan id="tkorw8y" class="text">
            <tspan font-size="405px" class="text">kinds</tspan>
           </tspan>
          </text>
         </g>
        </g>
       </g>
       <g id="m-152" class="note">
        <g class="notehead">
         <use xlink:href="#E0A4-vsg5bc" x="19064" y="810" height="720px" width="720px" />
        </g>
        <g id="s443zyo" class="stem">
         <rect x="19064" y="840" height="600" width="18" />
        </g>
        <g id="m-160" class="verse">
         <g id="m-161" class="syl">
          <text x="18974" y="1812" font-size="0px">
           <tspan id="tx6tkx3" class="text">
            <tspan font-size="405px" class="text">of</tspan>
           </tspan>
          </text>
         </g>
        </g>
       </g>
       <g id="m-153" class="note">
        <g class="notehead">
         <use xlink:href="#E0A4-vsg5bc" x="19811" y="990" height="720px" width="720px" />
        </g>
        <g id="d96qoje" class="dots">
         <ellipse cx="20135" cy="990" rx="36" ry="36" />
        </g>
        <g id="s8g4hh" class="stem">
         <rect x="20026" y="360" height="602" width="18" />
        </g>
        <g id="m-162" class="verse">
         <g id="m-163" class="syl">
          <text x="19721" y="1812" font-size="0px">
           <tspan id="tipb7ak" class="text">
            <tspan font-size="405px" class="text">ill,</tspan>
           </tspan>
          </text>
         </g>
        </g>
       </g>
       <g id="m-154" class="note">
        <g class="notehead">
         <use xlink:href="#E0A4-vsg5bc" x="20764" y="1080" height="720px" width="720px" />
        </g>
        <g id="sn6qixq" class="stem">
         <rect x="20979" y="450" height="602" width="18" />
         <g id="f5w51go" class="flag">
          <use xlink:href="#E240-vsg5bc" x="20979" y="450" height="720px" width="720px" />
         </g>
        </g>
        <g id="m-164" class="verse">
         <g id="m-165" class="syl">
          <text x="20674" y="1812" font-size="0px">
           <tspan id="ti4das5" class="text">
            <tspan font-size="405px" class="text">I</tspan>
           </tspan>
          </text>
         </g>
        </g>
       </g>
       <g id="m-155" class="note">
        <g class="notehead">
         <use xlink:href="#E0A4-vsg5bc" x="21250" y="1170" height="720px" width="720px" />
        </g>
        <g id="s8rgp5r" class="stem">
         <rect x="21465" y="540" height="602" width="18" />
        </g>
        <g id="m-166" class="verse">
         <g id="m-167" class="syl">
          <text x="21160" y="1812" font-size="0px">
           <tspan id="twatg4f" class="text">
            <tspan font-size="405px" class="text">shall</tspan>
           </tspan>
          </text>
         </g>
        </g>
       </g>
      </g>
     </g>
     <g id="m-168" class="staff">
      <path d="M17161 2340 L22002 2340" stroke="currentColor" stroke-width="10" />
      <path d="M17161 2520 L22002 2520" stroke="currentColor" stroke-width="10" />
      <path d="M17161 2700 L22002 2700" stroke="currentColor" stroke-width="10" />
      <path d="M17161 2880 L22002 2880" stroke="currentColor" stroke-width="10" />
      <path d="M17161 3060 L22002 3060" stroke="currentColor" stroke-width="10" />
      <g id="m-169" class="layer">
       <g id="m-170" class="note">
        <g class="notehead">
         <use xlink:href="#E0A3-vsg5bc" x="17352" y="2610" height="720px" width="720px" />
        </g>
        <g id="d84ajpm" class="dots">
         <ellipse cx="17676" cy="2610" rx="36" ry="36" />
        </g>
        <g id="swz73at" class="stem">
         <rect x="17352" y="2640" height="600" width="18" />
        </g>
        <g id="m-171" class="accid" />
       </g>
       <g id="m-172" class="note">
        <g class="notehead">
         <use xlink:href="#E0A3-vsg5bc" x="19811" y="2520" height="720px" width="720px" />
        </g>
        <g id="dw2v14b" class="dots">
         <ellipse cx="20135" cy="2430" rx="36" ry="36" />
        </g>
        <g id="se0n5pp" class="stem">
         <rect x="19811" y="2550" height="600" width="18" />
        </g>
       </g>
      </g>
     </g>
     <g id="bu7ef2i" class="barLine">
      <path d="M21997 1260 L21997 540" stroke="currentColor" stroke-width="10" />
      <path d="M21997 3060 L21997 2340" stroke="currentColor" stroke-width="10" />
     </g>
    </g>
   </g>
   <g id="s8wo9rq" class="system">
    <path d="M5 5344 L5 7864" stroke="currentColor" stroke-width="10" />
    <g id="g8j81zr" class="grpSym">
     <path d="M-72,7846 C-432,7306 18,6784 -252,6604 C81,6784 -369,7306 -72,7846" stroke="currentColor" stroke-linecap="round" stroke-linejoin="round" stroke-width="18" />
     <path d="M-72,5362 C-369,5902 81,6424 -252,6604 C18,6424 -432,5902 -72,5362" stroke="currentColor" stroke-linecap="round" stroke-linejoin="round" stroke-width="18" />
    </g>
    <g id="m-173" class="measure">
     <g id="mu5qsmh" class="mNum autogenerated">
      <text x="0" y="5101" text-anchor="middle" font-size="0px">
       <tspan id="tfeg0g7" class="text">
        <tspan font-size="324px" class="text">6</tspan>
       </tspan>
      </text>
     </g>
     <g id="m-174" class="staff">
      <path d="M0 5344 L5688 5344" stroke="currentColor" stroke-width="10" />
      <path d="M0 5524 L5688 5524" stroke="currentColor" stroke-width="10" />
      <path d="M0 5704 L5688 5704" stroke="currentColor" stroke-width="10" />
      <path d="M0 5884 L5688 5884" stroke="currentColor" stroke-width="10" />
      <path d="M0 6064 L5688 6064" stroke="currentColor" stroke-width="10" />
      <g id="crkt2yh" class="clef">
       <use xlink:href="#E050-vsg5bc" x="145" y="5884" height="720px" width="720px" />
      </g>
      <g id="kfcq0n5" class="keySig">
       <g class="keyAccid">
        <use xlink:href="#E260-vsg5bc" x="803" y="5704" height="720px" width="720px" />
       </g>
       <g class="keyAccid">
        <use xlink:href="#E260-vsg5bc" x="992" y="5434" height="720px" width="720px" />
       </g>
      </g>
      <g id="m-175" class="layer">
       <g id="m-176" class="note">
        <g class="notehead">
         <use xlink:href="#E0A4-vsg5bc" x="1408" y="5704" height="720px" width="720px" />
        </g>
        <g id="dt0kc76" class="dots">
         <ellipse cx="1732" cy="5614" rx="36" ry="36" />
        </g>
        <g id="sxtce0j" class="stem">
         <rect x="1408" y="5734" height="570" width="18" />
        </g>
        <g id="m-177" class="accid" />
        <g id="m-184" class="verse">
         <g id="m-185" class="syl">
          <text x="1318" y="6616" font-size="0px">
           <tspan id="tdozrgr" class="text">
            <tspan font-size="405px" class="text">find</tspan>
           </tspan>
          </text>
         </g>
        </g>
       </g>
       <g id="m-178" class="note">
        <g class="notehead">
         <use xlink:href="#E0A4-vsg5bc" x="2309" y="5614" height="720px" width="720px" />
        </g>
        <g id="shvm78l" class="stem">
         <rect x="2309" y="5644" height="600" width="18" />
         <g id="fa4x0j" class="flag">
          <use xlink:href="#E241-vsg5bc" x="2309" y="6244" height="720px" width="720px" />
         </g>
        </g>
        <g id="m-186" class="verse">
         <g id="m-187" class="syl">
          <text x="2165" y="6616" font-size="0px">
           <tspan id="tcx56xd" class="text">
            <tspan font-size="405px" class="text">no</tspan>
           </tspan>
          </text>
         </g>
        </g>
       </g>
       <g id="m-179" class="note">
        <g class="notehead">
         <use xlink:href="#E0A4-vsg5bc" x="2769" y="5704" height="720px" width="720px" />
        </g>
        <g id="s330pqx" class="stem">
         <rect x="2769" y="5734" height="570" width="18" />
        </g>
        <g id="m-180" class="accid" />
        <g id="m-188" class="verse">
         <g id="m-189" class="syl">
          <text x="2679" y="6616" font-size="0px">
           <tspan id="teekmf5" class="text">
            <tspan font-size="405px" class="text">such</tspan>
           </tspan>
          </text>
         </g>
        </g>
       </g>
       <g id="m-181" class="note">
        <g class="notehead">
         <use xlink:href="#E0A4-vsg5bc" x="3621" y="5614" height="720px" width="720px" />
        </g>
        <g id="dh2jkik" class="dots">
         <ellipse cx="3945" cy="5614" rx="36" ry="36" />
        </g>
        <g id="s5npa1v" class="stem">
         <rect x="3621" y="5644" height="600" width="18" />
        </g>
        <g id="m-190" class="verse">
         <g id="m-191" class="syl">
          <text x="3531" y="6616" font-size="0px">
           <tspan id="tt7u9yt" class="text">
            <tspan font-size="405px" class="text">Fur</tspan>
           </tspan>
          </text>
          <rect x="4160" y="6513" height="22" width="108" />
         </g>
        </g>
       </g>
       <g id="m-182" class="note">
        <g class="notehead">
         <use xlink:href="#E0A4-vsg5bc" x="4522" y="5524" height="720px" width="720px" />
        </g>
        <g id="s2utecy" class="stem">
         <rect x="4522" y="5554" height="600" width="18" />
         <g id="f7mkbpb" class="flag">
          <use xlink:href="#E241-vsg5bc" x="4522" y="6154" height="720px" width="720px" />
         </g>
        </g>
        <g id="m-192" class="verse">
         <g id="m-193" class="syl">
          <text x="4333" y="6616" font-size="0px">
           <tspan id="tthce9t" class="text">
            <tspan font-size="405px" class="text">ies</tspan>
           </tspan>
          </text>
         </g>
        </g>
       </g>
       <g id="m-183" class="note">
        <g class="notehead">
         <use xlink:href="#E0A4-vsg5bc" x="4982" y="5614" height="720px" width="720px" />
        </g>
        <g id="s1qy2w3" class="stem">
         <rect x="4982" y="5644" height="600" width="18" />
        </g>
        <g id="m-194" class="verse">
         <g id="m-195" class="syl">
          <text x="4892" y="6616" font-size="0px">
           <tspan id="tz8uvwr" class="text">
            <tspan font-size="405px" class="text">as</tspan>
           </tspan>
          </text>
         </g>
        </g>
       </g>
      </g>
     </g>
     <g id="m-196" class="staff">
      <path d="M0 7144 L5688 7144" stroke="currentColor" stroke-width="10" />
      <path d="M0 7324 L5688 7324" stroke="currentColor" stroke-width="10" />
      <path d="M0 7504 L5688 7504" stroke="currentColor" stroke-width="10" />
      <path d="M0 7684 L5688 7684" stroke="currentColor" stroke-width="10" />
      <path d="M0 7864 L5688 7864" stroke="currentColor" stroke-width="10" />
      <g id="c8wfl81" class="clef">
       <use xlink:href="#E062-vsg5bc" x="145" y="7324" height="720px" width="720px" />
      </g>
      <g id="k3ssias" class="keySig">
       <g class="keyAccid">
        <use xlink:href="#E260-vsg5bc" x="803" y="7684" height="720px" width="720px" />
       </g>
       <g class="keyAccid">
        <use xlink:href="#E260-vsg5bc" x="992" y="7414" height="720px" width="720px" />
       </g>
      </g>
      <g id="m-197" class="layer">
       <g id="m-198" class="note">
        <g class="notehead">
         <use xlink:href="#E0A3-vsg5bc" x="1408" y="7504" height="720px" width="720px" />
        </g>
        <g id="dlpe1o8" class="dots">
         <ellipse cx="1732" cy="7414" rx="36" ry="36" />
        </g>
        <g id="sl4um1c" class="stem">
         <rect x="1408" y="7534" height="570" width="18" />
        </g>
       </g>
       <g id="m-199" class="note">
        <g class="notehead">
         <use xlink:href="#E0A3-vsg5bc" x="3621" y="7324" height="720px" width="720px" />
        </g>
        <g id="db8nqb7" class="dots">
         <ellipse cx="3945" cy="7234" rx="36" ry="36" />
        </g>
        <g id="sk6o1ed" class="stem">
         <rect x="3621" y="7354" height="600" width="18" />
        </g>
       </g>
      </g>
     </g>
     <g id="bk9f2vw" class="barLine" />
    </g>
    <g id="m-200" class="measure">
     <g id="m-201" class="staff">
      <path d="M5688 5344 L9965 5344" stroke="currentColor" stroke-width="10" />
      <path d="M5688 5524 L9965 5524" stroke="currentColor" stroke-width="10" />
      <path d="M5688 5704 L9965 5704" stroke="currentColor" stroke-width="10" />
      <path d="M5688 5884 L9965 5884" stroke="currentColor" stroke-width="10" />
      <path d="M5688 6064 L9965 6064" stroke="currentColor" stroke-width="10" />
      <g id="m-202" class="layer">
       <g id="m-203" class="note">
        <g class="notehead">
         <use xlink:href="#E0A4-vsg5bc" x="6236" y="5524" height="720px" width="720px" />
        </g>
        <g id="s8gfry8" class="stem">
         <rect x="6236" y="5554" height="600" width="18" />
        </g>
        <g id="m-210" class="verse">
         <g id="m-211" class="syl">
          <text x="5910" y="6616" font-size="0px">
           <tspan id="t60bc2n" class="text">
            <tspan font-size="405px" class="text">these</tspan>
           </tspan>
          </text>
         </g>
        </g>
       </g>
       <g id="m-204" class="note">
        <g class="notehead">
         <use xlink:href="#E0A3-vsg5bc" x="6942" y="5704" height="720px" width="720px" />
        </g>
        <g id="svvjv54" class="stem">
         <rect x="6942" y="5734" height="570" width="18" />
        </g>
        <g id="m-205" class="accid" />
        <g id="m-212" class="verse">
         <g id="m-213" class="syl">
          <text x="6852" y="6616" font-size="0px">
           <tspan id="td0sior" class="text">
            <tspan font-size="405px" class="text">are.</tspan>
           </tspan>
          </text>
         </g>
        </g>
       </g>
       <g id="m-207" class="note">
        <g class="notehead">
         <use xlink:href="#E0A3-vsg5bc" x="8017" y="5704" height="720px" width="720px" />
        </g>
        <g id="soodoy6" class="stem">
         <rect x="8017" y="5734" height="570" width="18" />
        </g>
        <g id="m-208" class="accid" />
       </g>
       <g id="m-209" class="space" />
      </g>
     </g>
     <g id="m-214" class="staff">
      <path d="M5688 7144 L9965 7144" stroke="currentColor" stroke-width="10" />
      <path d="M5688 7324 L9965 7324" stroke="currentColor" stroke-width="10" />
      <path d="M5688 7504 L9965 7504" stroke="currentColor" stroke-width="10" />
      <path d="M5688 7684 L9965 7684" stroke="currentColor" stroke-width="10" />
      <path d="M5688 7864 L9965 7864" stroke="currentColor" stroke-width="10" />
      <g id="m-215" class="layer">
       <g id="m-216" class="note">
        <g class="notehead">
         <use xlink:href="#E0A3-vsg5bc" x="6236" y="7684" height="720px" width="720px" />
        </g>
        <g id="dhe5zac" class="dots">
         <ellipse cx="6560" cy="7594" rx="36" ry="36" />
        </g>
        <g id="sgrcb93" class="stem">
         <rect x="6451" y="7054" height="602" width="18" />
        </g>
        <g id="m-217" class="accid" />
       </g>
       <g id="m-219" class="note">
        <g class="notehead">
         <use xlink:href="#E0A3-vsg5bc" x="8017" y="7684" height="720px" width="720px" />
        </g>
        <g id="sg6jmze" class="stem">
         <rect x="8232" y="7054" height="602" width="18" />
        </g>
        <g id="m-220" class="accid" />
       </g>
       <g id="m-221" class="space" />
      </g>
     </g>
     <g id="m-206" class="tie">
      <path d="M7221,5659 C7400,5502 7789,5502 7972,5659 C7774,5551 7415,5551 7221,5659" stroke="currentColor" stroke-linecap="round" stroke-linejoin="round" stroke-width="9" />
     </g>
     <g id="m-218" class="tie">
      <path d="M6515,7729 C6883,7839 7602,7839 7972,7729 C7611,7887 6874,7887 6515,7729" stroke="currentColor" stroke-linecap="round" stroke-linejoin="round" stroke-width="9" />
     </g>
     <g id="bcnhur2" class="barLine">
      <path d="M5823 6064 L5823 5344" stroke="currentColor" stroke-width="90" />
      <path d="M5945 6064 L5945 5344" stroke="currentColor" stroke-width="10" />
      <use xlink:href="#E044-vsg5bc" x="5982" y="5614" height="720px" width="720px" />
      <use xlink:href="#E044-vsg5bc" x="5982" y="5794" height="720px" width="720px" />
      <path d="M5823 7864 L5823 7144" stroke="currentColor" stroke-width="90" />
      <path d="M5945 7864 L5945 7144" stroke="currentColor" stroke-width="10" />
      <use xlink:href="#E044-vsg5bc" x="5982" y="7414" height="720px" width="720px" />
      <use xlink:href="#E044-vsg5bc" x="5982" y="7594" height="720px" width="720px" />
     </g>
     <g id="be4xqkn" class="barLine">
      <path d="M9798 6064 L9798 5344" stroke="currentColor" stroke-width="10" />
      <path d="M9920 6064 L9920 5344" stroke="currentColor" stroke-width="90" />
      <use xlink:href="#E044-vsg5bc" x="9687" y="5614" height="720px" width="720px" />
      <use xlink:href="#E044-vsg5bc" x="9687" y="5794" height="720px" width="720px" />
      <path d="M9798 7864 L9798 7144" stroke="currentColor" stroke-width="10" />
      <path d="M9920 7864 L9920 7144" stroke="currentColor" stroke-width="90" />
      <use xlink:href="#E044-vsg5bc" x="9687" y="7414" height="720px" width="720px" />
      <use xlink:href="#E044-vsg5bc" x="9687" y="7594" height="720px" width="720px" />
     </g>
    </g>
    <g id="sj2kwu1" class="systemMilestoneEnd m-43" />
   </g>
   <g id="p70wqyc" class="pageMilestoneEnd m-33" />
   <g id="pp7f0um" class="pageMilestoneEnd m-31" />
  </g>
 </svg>
</svg>
