<svg width="1002px" height="200px" version="1.1" xmlns="http://www.w3.org/2000/svg" xmlns:xlink="http://www.w3.org/1999/xlink" xmlns:mei="http://www.music-encoding.org/ns/mei" overflow="visible">
 <desc>Engraved by Verovio 3.10.0-dev-e51b2ff</desc>
 <defs>
  <symbol id="E084-hul94i" viewBox="0 0 1000 1000" overflow="inherit">
   <path transform="scale(1,-1)" d="M208 -127h-172c-9 0 -11 6 -11 6s-7 11 -10 18c-1 2 -1 4 -1 6c0 6 3 11 3 11c26 37 56 87 82 168s31 155 31 155c1 6 6 12 13 12h149c4 0 7 -2 10 -4l22 -22c1 -1 3 -5 3 -10c0 -4 -1 -9 -5 -14c-118 -158 -230 -278 -230 -278h116v82c0 4 1 8 4 11l91 83c2 2 6 3 9 3h2 c2 0 3 0 5 -1l12 -6c4 -2 7 -7 7 -13v-159h90c8 0 14 -7 14 -14v-19c0 -8 -6 -15 -14 -15h-90v-74h90c8 0 14 -6 14 -14v-19c0 -8 -6 -14 -14 -14h-303c-7 0 -14 6 -14 14v19c0 8 7 14 14 14h83v74z" />
  </symbol>
  <symbol id="E050-hul94i" viewBox="0 0 1000 1000" overflow="inherit">
   <path transform="scale(1,-1)" d="M562 -21c0 89 -65 150 -155 150c7 -44 34 -203 55 -323c71 29 100 102 100 173zM420 -206l-58 329c-59 -14 -104 -63 -104 -124c0 -49 22 -75 61 -99c12 -8 22 -13 22 -22s-9 -13 -17 -13c-80 0 -135 96 -135 166c0 94 62 190 153 217c-7 41 -14 88 -23 142 c-15 -15 -31 -29 -48 -44c-88 -76 -174 -185 -174 -307c0 -151 122 -251 265 -251c19 0 38 2 58 6zM332 822c-8 -31 -11 -65 -11 -102c0 -42 5 -81 11 -121c69 68 146 146 146 250c0 69 -24 118 -39 118c-52 0 -98 -105 -107 -145zM122 -513c0 66 45 123 115 123 c75 0 116 -57 116 -111c0 -64 -47 -104 -94 -111c-3 -1 -5 -2 -5 -4c0 -1 2 -2 3 -3c2 0 23 -5 47 -5c101 0 154 55 154 159c0 53 -11 123 -30 219c-23 -4 -50 -7 -79 -7c-186 0 -349 147 -349 334c0 200 126 321 217 406c21 17 73 70 74 71c-17 112 -22 161 -22 215 c0 84 18 212 82 288c33 39 64 51 71 51c18 0 47 -35 71 -86c16 -36 44 -110 44 -201c0 -159 -73 -284 -179 -395c9 -56 19 -115 29 -175c146 0 253 -102 253 -253c0 -103 -73 -205 -171 -237c6 -39 12 -69 15 -89c10 -57 16 -102 16 -141c0 -63 -14 -129 -68 -167 c-36 -22 -77 -34 -124 -34c-135 0 -186 87 -186 153z" />
  </symbol>
  <symbol id="E062-hul94i" viewBox="0 0 1000 1000" overflow="inherit">
   <path transform="scale(1,-1)" d="M254 251c93 0 164 -29 211 -85c41 -49 63 -118 63 -201c0 -67 -25 -145 -69 -220c-25 -42 -56 -84 -92 -123c-40 -43 -86 -83 -137 -120c-91 -71 -205 -118 -206 -118s-4 -1 -5 -1c-6 0 -15 2 -18 12c0 2 -1 3 -1 5c0 12 12 19 12 19c1 0 99 45 203 140 c39 35 83 98 116 164c30 59 65 148 65 241c0 168 -50 250 -152 250c-35 0 -67 -6 -92 -20c-17 -9 -39 -29 -50 -45s-23 -45 -26 -64c8 7 25 17 35 21c9 3 20 5 32 5c17 0 37 -4 58 -18c30 -19 48 -51 48 -86c0 -39 -19 -75 -50 -92c-19 -11 -42 -17 -64 -17 c-13 0 -26 2 -38 6c-30 10 -53 29 -65 56c-9 19 -13 41 -13 65c0 17 2 35 7 53c9 35 32 86 90 129c1 0 62 44 138 44zM568 124c0 28 22 51 48 51s48 -23 48 -51s-22 -50 -48 -50s-48 22 -48 50zM568 -123c0 28 22 51 48 51s48 -23 48 -51s-22 -51 -48 -51s-48 23 -48 51z " />
  </symbol>
  <symbol id="E0A2-hul94i" viewBox="0 0 1000 1000" overflow="inherit">
   <path transform="scale(1,-1)" d="M187 136c138 0 186 -70 186 -135s-48 -135 -186 -135s-187 70 -187 135s49 135 187 135zM238 -96c24 7 32 25 32 51c0 25 -18 89 -32 116s-32 33 -60 33c-15 0 -31 -2 -43 -6c-24 -8 -34 -24 -32 -51c1 -27 19 -91 32 -116s32 -33 60 -33c15 0 31 2 43 6z" />
  </symbol>
  <symbol id="E0A3-hul94i" viewBox="0 0 1000 1000" overflow="inherit">
   <path transform="scale(1,-1)" d="M213 132c62 0 112 -33 112 -92c0 -88 -109 -173 -213 -173c-81 0 -112 48 -112 91c0 93 116 174 213 174zM186 -44c3 2 104 50 104 93c0 22 -16 36 -40 36c-36 0 -107 -40 -111 -42s-104 -51 -104 -93c0 -9 7 -36 40 -36c35 0 108 40 111 42z" />
  </symbol>
  <symbol id="E0A4-hul94i" viewBox="0 0 1000 1000" overflow="inherit">
   <path transform="scale(1,-1)" d="M0 -42c0 92 116 174 213 174c62 0 112 -33 112 -92c0 -88 -109 -173 -213 -173c-81 0 -112 48 -112 91z" />
  </symbol>
  <symbol id="E262-hul94i" viewBox="0 0 1000 1000" overflow="inherit">
   <path transform="scale(1,-1)" d="M233 105l-38 -7v-165l33 7h2c8 0 14 -6 14 -14v-59c0 -6 -5 -13 -11 -14l-38 -7v-147h-28v141l-89 -18v-155h-28v149l-33 -7h-3c-8 0 -14 6 -14 14v58c0 6 5 13 11 14l39 8v165l-33 -7h-3c-8 0 -14 6 -14 14v-2v58v2c0 6 5 13 11 14l39 8v147h28v-141l89 18v155h28v-149 l33 7h2c8 0 14 -6 14 -14v-59c0 -6 -5 -13 -11 -14zM78 74v-166l89 19v165z" />
  </symbol>
 </defs>
 <style type="text/css">g.page-margin{font-family:Times;} g.ending, g.fing, g.reh, g.tempo{font-weight:bold;} g.dir, g.dynam, g.mNum{font-style:italic;} g.label{font-weight:normal;}</style>
 <svg class="definition-scale" color="black" viewBox="0 0 25050 5000">
  <g class="page-margin" transform="translate(300, 1000)">
   <g id="m-31" class="mdiv pageMilestone" />
   <g id="m-33" class="score pageMilestone" />
   <g id="s1ipiom" class="system">
    <path d="M5 540 L5 3060" stroke="currentColor" stroke-width="10" />
    <g id="gqz0k1s" class="grpSym">
     <path d="M-72,3042 C-432,2502 18,1980 -252,1800 C81,1980 -369,2502 -72,3042" stroke="currentColor" stroke-linecap="round" stroke-linejoin="round" stroke-width="18" />
     <path d="M-72,558 C-369,1098 81,1620 -252,1800 C18,1620 -432,1098 -72,558" stroke="currentColor" stroke-linecap="round" stroke-linejoin="round" stroke-width="18" />
    </g>
    <g id="m-45" class="sb" />
    <g id="m-43" class="section systemMilestone" />
    <g id="m-28" class="pb" />
    <g id="m-44" class="measure">
     <g id="m-46" class="staff">
      <path d="M0 540 L6539 540" stroke="currentColor" stroke-width="10" />
      <path d="M0 720 L6539 720" stroke="currentColor" stroke-width="10" />
      <path d="M0 900 L6539 900" stroke="currentColor" stroke-width="10" />
      <path d="M0 1080 L6539 1080" stroke="currentColor" stroke-width="10" />
      <path d="M0 1260 L6539 1260" stroke="currentColor" stroke-width="10" />
      <g id="cv3zfeh" class="clef">
       <use xlink:href="#E050-hul94i" x="145" y="1080" height="720px" width="720px" />
      </g>
      <g id="ky70t5p" class="keySig">
       <g class="keyAccid">
        <use xlink:href="#E262-hul94i" x="803" y="540" height="720px" width="720px" />
       </g>
      </g>
      <g id="mp61hw7" class="meterSig">
       <use xlink:href="#E084-hul94i" x="1148" y="720" height="720px" width="720px" />
       <use xlink:href="#E084-hul94i" x="1148" y="1080" height="720px" width="720px" />
      </g>
      <g id="m-47" class="layer">
       <g id="m-48" class="note">
        <g class="notehead">
         <use xlink:href="#E0A3-hul94i" x="1900" y="720" height="720px" width="720px" />
        </g>
        <g id="sjtd4xg" class="stem">
         <rect x="1900" y="750" height="600" width="18" />
        </g>
        <g id="m-51" class="verse">
         <g id="m-52" class="syl">
          <text x="1810" y="1842" font-size="0px">
           <tspan id="th3dv9k" class="text">
            <tspan font-size="405px" class="text">O</tspan>
           </tspan>
          </text>
         </g>
        </g>
       </g>
       <g id="m-49" class="note">
        <g class="notehead">
         <use xlink:href="#E0A4-hul94i" x="3902" y="630" height="720px" width="720px" />
        </g>
        <g id="sta23kh" class="stem">
         <rect x="3902" y="660" height="600" width="18" />
        </g>
        <g id="m-53" class="verse">
         <g id="m-54" class="syl">
          <text x="3768" y="1842" font-size="0px">
           <tspan id="teza4yd" class="text">
            <tspan font-size="405px" class="text">cru</tspan>
           </tspan>
          </text>
          <rect x="4653" y="1739" height="22" width="108" />
         </g>
        </g>
       </g>
       <g id="m-50" class="note">
        <g class="notehead">
         <use xlink:href="#E0A4-hul94i" x="5218" y="720" height="720px" width="720px" />
        </g>
        <g id="s1xzy7r" class="stem">
         <rect x="5218" y="750" height="600" width="18" />
        </g>
        <g id="m-55" class="verse">
         <g id="m-56" class="syl">
          <text x="5128" y="1842" font-size="0px">
           <tspan id="tpm2h4c" class="text">
            <tspan font-size="405px" class="text">el,</tspan>
           </tspan>
          </text>
         </g>
        </g>
       </g>
      </g>
     </g>
     <g id="m-57" class="staff">
      <path d="M0 2340 L6539 2340" stroke="currentColor" stroke-width="10" />
      <path d="M0 2520 L6539 2520" stroke="currentColor" stroke-width="10" />
      <path d="M0 2700 L6539 2700" stroke="currentColor" stroke-width="10" />
      <path d="M0 2880 L6539 2880" stroke="currentColor" stroke-width="10" />
      <path d="M0 3060 L6539 3060" stroke="currentColor" stroke-width="10" />
      <g id="cb5jv1c" class="clef">
       <use xlink:href="#E062-hul94i" x="145" y="2520" height="720px" width="720px" />
      </g>
      <g id="kdh93qs" class="keySig">
       <g class="keyAccid">
        <use xlink:href="#E262-hul94i" x="803" y="2520" height="720px" width="720px" />
       </g>
      </g>
      <g id="m7gotuz" class="meterSig">
       <use xlink:href="#E084-hul94i" x="1148" y="2520" height="720px" width="720px" />
       <use xlink:href="#E084-hul94i" x="1148" y="2880" height="720px" width="720px" />
      </g>
      <g id="m-58" class="layer">
       <g id="m-59" class="note">
        <g class="notehead">
         <use xlink:href="#E0A3-hul94i" x="1900" y="2430" height="720px" width="720px" />
        </g>
        <g id="swn57cj" class="stem">
         <rect x="1900" y="2460" height="600" width="18" />
        </g>
       </g>
       <g id="m-60" class="note">
        <g class="notehead">
         <use xlink:href="#E0A4-hul94i" x="3902" y="2790" height="720px" width="720px" />
        </g>
        <g id="s9o0zbz" class="stem">
         <rect x="4117" y="2160" height="602" width="18" />
        </g>
       </g>
       <g id="m-61" class="note">
        <g class="notehead">
         <use xlink:href="#E0A4-hul94i" x="5218" y="2430" height="720px" width="720px" />
        </g>
        <g id="spk23ab" class="stem">
         <rect x="5218" y="2460" height="600" width="18" />
        </g>
       </g>
      </g>
     </g>
     <g id="b7nyzvb" class="barLine">
      <path d="M6534 1260 L6534 540" stroke="currentColor" stroke-width="10" />
      <path d="M6534 3060 L6534 2340" stroke="currentColor" stroke-width="10" />
     </g>
    </g>
    <g id="m-65" class="measure">
     <g id="m-66" class="staff">
      <path d="M6539 540 L12993 540" stroke="currentColor" stroke-width="10" />
      <path d="M6539 720 L12993 720" stroke="currentColor" stroke-width="10" />
      <path d="M6539 900 L12993 900" stroke="currentColor" stroke-width="10" />
      <path d="M6539 1080 L12993 1080" stroke="currentColor" stroke-width="10" />
      <path d="M6539 1260 L12993 1260" stroke="currentColor" stroke-width="10" />
      <g id="m-67" class="layer">
       <g id="m-69" class="beam">
        <polygon points="6883,1350 10145,1530 10145,1440 6883,1260 " />
        <g id="m-68" class="note">
         <g class="notehead">
          <use xlink:href="#E0A4-hul94i" x="6883" y="720" height="720px" width="720px" />
         </g>
         <g id="szeo5az" class="stem">
          <rect x="6883" y="750" height="582" width="18" />
         </g>
         <g id="m-74" class="verse">
          <g id="m-75" class="syl">
           <text x="6523" y="1842" font-size="0px">
            <tspan id="tv2pbcr" class="text">
             <tspan font-size="405px" class="text">cru</tspan>
            </tspan>
           </text>
           <rect x="7305" y="1739" height="22" width="108" />
          </g>
         </g>
        </g>
        <g id="m-70" class="note">
         <g class="notehead">
          <use xlink:href="#E0A4-hul94i" x="7768" y="810" height="720px" width="720px" />
         </g>
         <g id="sb6undm" class="stem">
          <rect x="7768" y="840" height="542" width="18" />
         </g>
         <g id="m-76" class="verse">
          <g id="m-77" class="syl">
           <text x="7678" y="1842" font-size="0px">
            <tspan id="t49pbhx" class="text">
             <tspan font-size="405px" class="text">el,</tspan>
            </tspan>
           </text>
          </g>
         </g>
        </g>
        <g id="m-71" class="note">
         <g class="notehead">
          <use xlink:href="#E0A4-hul94i" x="8727" y="900" height="720px" width="720px" />
         </g>
         <g id="ses76w6" class="stem">
          <rect x="8727" y="930" height="505" width="18" />
         </g>
         <g id="m-78" class="verse">
          <g id="m-79" class="syl">
           <text x="8637" y="1842" font-size="0px">
            <tspan id="td2inc9" class="text">
             <tspan font-size="405px" class="text">cru</tspan>
            </tspan>
           </text>
           <rect x="9542" y="1739" height="22" width="108" />
          </g>
         </g>
        </g>
        <g id="m-72" class="note">
         <g class="notehead">
          <use xlink:href="#E0A4-hul94i" x="10127" y="990" height="720px" width="720px" />
         </g>
         <g id="sc01oj8" class="stem">
          <rect x="10127" y="1020" height="492" width="18" />
         </g>
         <g id="m-80" class="verse">
          <g id="m-81" class="syl">
           <text x="10037" y="1842" font-size="0px">
            <tspan id="tjtz3i0" class="text">
             <tspan font-size="405px" class="text">el</tspan>
            </tspan>
           </text>
          </g>
         </g>
        </g>
       </g>
       <g id="m-73" class="note">
        <g class="notehead">
         <use xlink:href="#E0A3-hul94i" x="10985" y="1080" height="720px" width="720px" />
        </g>
        <g id="s2rezei" class="stem">
         <rect x="11200" y="450" height="602" width="18" />
        </g>
        <g id="m-82" class="verse">
         <g id="m-83" class="syl">
          <text x="10895" y="1842" font-size="0px">
           <tspan id="t5c8ep4" class="text">
            <tspan font-size="405px" class="text">case!</tspan>
           </tspan>
          </text>
         </g>
        </g>
       </g>
      </g>
     </g>
     <g id="m-84" class="staff">
      <path d="M6539 2340 L12993 2340" stroke="currentColor" stroke-width="10" />
      <path d="M6539 2520 L12993 2520" stroke="currentColor" stroke-width="10" />
      <path d="M6539 2700 L12993 2700" stroke="currentColor" stroke-width="10" />
      <path d="M6539 2880 L12993 2880" stroke="currentColor" stroke-width="10" />
      <path d="M6539 3060 L12993 3060" stroke="currentColor" stroke-width="10" />
      <g class="ledgerLines above">
       <path d="M6835 2160 L7165 2160" stroke="currentColor" stroke-width="22" />
      </g>
      <g id="m-85" class="layer">
       <g id="m-86" class="note">
        <g class="notehead">
         <use xlink:href="#E0A4-hul94i" x="6883" y="2070" height="720px" width="720px" />
        </g>
        <g id="sv4xjxy" class="stem">
         <rect x="6883" y="2100" height="600" width="18" />
        </g>
       </g>
       <g id="m-87" class="note">
        <g class="notehead">
         <use xlink:href="#E0A4-hul94i" x="8727" y="2700" height="720px" width="720px" />
        </g>
        <g id="s5zj1wg" class="stem">
         <rect x="8727" y="2730" height="570" width="18" />
        </g>
       </g>
       <g id="m-88" class="note">
        <g class="notehead">
         <use xlink:href="#E0A3-hul94i" x="10985" y="3060" height="720px" width="720px" />
        </g>
        <g id="s5bi724" class="stem">
         <rect x="11200" y="2430" height="602" width="18" />
        </g>
       </g>
      </g>
     </g>
     <g id="bsiqypa" class="barLine">
      <path d="M12988 1260 L12988 540" stroke="currentColor" stroke-width="10" />
      <path d="M12988 3060 L12988 2340" stroke="currentColor" stroke-width="10" />
     </g>
    </g>
    <g id="m-89" class="measure">
     <g id="m-90" class="staff">
      <path d="M12993 540 L18606 540" stroke="currentColor" stroke-width="10" />
      <path d="M12993 720 L18606 720" stroke="currentColor" stroke-width="10" />
      <path d="M12993 900 L18606 900" stroke="currentColor" stroke-width="10" />
      <path d="M12993 1080 L18606 1080" stroke="currentColor" stroke-width="10" />
      <path d="M12993 1260 L18606 1260" stroke="currentColor" stroke-width="10" />
      <g id="m-91" class="layer">
       <g id="m-92" class="note">
        <g class="notehead">
         <use xlink:href="#E0A4-hul94i" x="13337" y="900" height="720px" width="720px" />
        </g>
        <g id="s26h56d" class="stem">
         <rect x="13337" y="930" height="570" width="18" />
        </g>
        <g id="m-96" class="verse">
         <g id="m-97" class="syl">
          <text x="12994" y="1842" font-size="0px">
           <tspan id="tecy2gl" class="text">
            <tspan font-size="405px" class="text">Must</tspan>
           </tspan>
          </text>
         </g>
        </g>
       </g>
       <g id="m-93" class="note">
        <g class="notehead">
         <use xlink:href="#E0A4-hul94i" x="14653" y="990" height="720px" width="720px" />
        </g>
        <g id="snlf5fe" class="stem">
         <rect x="14868" y="360" height="602" width="18" />
        </g>
        <g id="m-98" class="verse">
         <g id="m-99" class="syl">
          <text x="14563" y="1842" font-size="0px">
           <tspan id="tx71eyv" class="text">
            <tspan font-size="405px" class="text">I</tspan>
           </tspan>
          </text>
         </g>
        </g>
       </g>
       <g id="m-94" class="note">
        <g class="notehead">
         <use xlink:href="#E0A4-hul94i" x="15969" y="810" height="720px" width="720px" />
        </g>
        <g id="shqjo3i" class="stem">
         <rect x="15969" y="840" height="600" width="18" />
        </g>
        <g id="m-100" class="verse">
         <g id="m-101" class="syl">
          <text x="15857" y="1842" font-size="0px">
           <tspan id="tbxr50x" class="text">
            <tspan font-size="405px" class="text">suf</tspan>
           </tspan>
          </text>
          <rect x="16720" y="1739" height="22" width="108" />
         </g>
        </g>
       </g>
       <g id="m-95" class="note">
        <g class="notehead">
         <use xlink:href="#E0A4-hul94i" x="17285" y="900" height="720px" width="720px" />
        </g>
        <g id="st0ulc7" class="stem">
         <rect x="17285" y="930" height="570" width="18" />
        </g>
        <g id="m-102" class="verse">
         <g id="m-103" class="syl">
          <text x="17195" y="1842" font-size="0px">
           <tspan id="tpcqsdr" class="text">
            <tspan font-size="405px" class="text">fer</tspan>
           </tspan>
          </text>
         </g>
        </g>
       </g>
      </g>
     </g>
     <g id="m-104" class="staff">
      <path d="M12993 2340 L18606 2340" stroke="currentColor" stroke-width="10" />
      <path d="M12993 2520 L18606 2520" stroke="currentColor" stroke-width="10" />
      <path d="M12993 2700 L18606 2700" stroke="currentColor" stroke-width="10" />
      <path d="M12993 2880 L18606 2880" stroke="currentColor" stroke-width="10" />
      <path d="M12993 3060 L18606 3060" stroke="currentColor" stroke-width="10" />
      <g id="m-105" class="layer">
       <g id="m-106" class="note">
        <g class="notehead">
         <use xlink:href="#E0A4-hul94i" x="13337" y="2430" height="720px" width="720px" />
        </g>
        <g id="sgdm6n6" class="stem">
         <rect x="13337" y="2460" height="600" width="18" />
        </g>
       </g>
       <g id="m-107" class="note">
        <g class="notehead">
         <use xlink:href="#E0A4-hul94i" x="14653" y="2520" height="720px" width="720px" />
        </g>
        <g id="sxbh0gm" class="stem">
         <rect x="14653" y="2550" height="600" width="18" />
        </g>
        <g id="m-108" class="accid" />
       </g>
       <g id="m-109" class="note">
        <g class="notehead">
         <use xlink:href="#E0A4-hul94i" x="15969" y="2610" height="720px" width="720px" />
        </g>
        <g id="skjx3oc" class="stem">
         <rect x="15969" y="2640" height="600" width="18" />
        </g>
       </g>
       <g id="m-110" class="note">
        <g class="notehead">
         <use xlink:href="#E0A4-hul94i" x="17285" y="2790" height="720px" width="720px" />
        </g>
        <g id="so9ym5l" class="stem">
         <rect x="17500" y="2160" height="602" width="18" />
        </g>
       </g>
      </g>
     </g>
     <g id="by4fgrk" class="barLine">
      <path d="M18601 1260 L18601 540" stroke="currentColor" stroke-width="10" />
      <path d="M18601 3060 L18601 2340" stroke="currentColor" stroke-width="10" />
     </g>
    </g>
    <g id="m-111" class="measure">
     <g id="m-112" class="staff">
      <path d="M18606 540 L24552 540" stroke="currentColor" stroke-width="10" />
      <path d="M18606 720 L24552 720" stroke="currentColor" stroke-width="10" />
      <path d="M18606 900 L24552 900" stroke="currentColor" stroke-width="10" />
      <path d="M18606 1080 L24552 1080" stroke="currentColor" stroke-width="10" />
      <path d="M18606 1260 L24552 1260" stroke="currentColor" stroke-width="10" />
      <g id="m-113" class="layer">
       <g id="m-115" class="beam">
        <polygon points="19166,360 21759,315 21759,405 19166,450 " />
        <g id="m-114" class="note">
         <g class="notehead">
          <use xlink:href="#E0A4-hul94i" x="18950" y="990" height="720px" width="720px" />
         </g>
         <g id="srxy2r3" class="stem">
          <rect x="19166" y="378" height="584" width="18" />
         </g>
         <g id="m-120" class="verse">
          <g id="m-121" class="syl">
           <text x="18860" y="1842" font-size="0px">
            <tspan id="tnbw664" class="text">
             <tspan font-size="405px" class="text">this</tspan>
            </tspan>
           </text>
           <rect x="19492" y="1820" height="22" width="550" />
          </g>
         </g>
        </g>
        <g id="m-116" class="note">
         <g class="notehead">
          <use xlink:href="#E0A4-hul94i" x="19808" y="1080" height="720px" width="720px" />
         </g>
         <g id="sigiwbm" class="stem">
          <rect x="20024" y="364" height="688" width="18" />
         </g>
        </g>
        <g id="m-117" class="note">
         <g class="notehead">
          <use xlink:href="#E0A4-hul94i" x="20666" y="990" height="720px" width="720px" />
         </g>
         <g id="sv77aop" class="stem">
          <rect x="20882" y="349" height="613" width="18" />
         </g>
         <g id="m-122" class="verse">
          <g id="m-123" class="syl">
           <text x="20576" y="1842" font-size="0px">
            <tspan id="t57v8bn" class="text">
             <tspan font-size="405px" class="text">dis</tspan>
            </tspan>
           </text>
           <rect x="21617" y="1739" height="22" width="108" />
          </g>
         </g>
        </g>
        <g id="m-118" class="note">
         <g class="notehead">
          <use xlink:href="#E0A4-hul94i" x="21525" y="900" height="720px" width="720px" />
         </g>
         <g id="srjoq2n" class="stem">
          <rect x="21741" y="333" height="539" width="18" />
         </g>
        </g>
       </g>
       <g id="m-119" class="note">
        <g class="notehead">
         <use xlink:href="#E0A3-hul94i" x="22383" y="990" height="720px" width="720px" />
        </g>
        <g id="snflr8q" class="stem">
         <rect x="22598" y="360" height="602" width="18" />
        </g>
        <g id="m-124" class="verse">
         <g id="m-125" class="syl">
          <text x="22293" y="1842" font-size="0px">
           <tspan id="tvxansz" class="text">
            <tspan font-size="405px" class="text">grace?</tspan>
           </tspan>
          </text>
         </g>
        </g>
       </g>
      </g>
     </g>
     <g id="m-126" class="staff">
      <path d="M18606 2340 L24552 2340" stroke="currentColor" stroke-width="10" />
      <path d="M18606 2520 L24552 2520" stroke="currentColor" stroke-width="10" />
      <path d="M18606 2700 L24552 2700" stroke="currentColor" stroke-width="10" />
      <path d="M18606 2880 L24552 2880" stroke="currentColor" stroke-width="10" />
      <path d="M18606 3060 L24552 3060" stroke="currentColor" stroke-width="10" />
      <g id="m-127" class="layer">
       <g id="m-128" class="note">
        <g class="notehead">
         <use xlink:href="#E0A2-hul94i" x="18950" y="2700" height="720px" width="720px" />
        </g>
       </g>
      </g>
     </g>
     <g id="b72a5ug" class="barLine">
      <path d="M24385 1260 L24385 540" stroke="currentColor" stroke-width="10" />
      <path d="M24507 1260 L24507 540" stroke="currentColor" stroke-width="90" />
      <path d="M24385 3060 L24385 2340" stroke="currentColor" stroke-width="10" />
      <path d="M24507 3060 L24507 2340" stroke="currentColor" stroke-width="90" />
     </g>
    </g>
    <g id="s8pzl33" class="systemMilestoneEnd m-43" />
   </g>
   <g id="pc9nfk0" class="pageMilestoneEnd m-33" />
   <g id="pirj3u8" class="pageMilestoneEnd m-31" />
  </g>
 </svg>
</svg>
