<svg width="1002px" height="389.2px" version="1.1" xmlns="http://www.w3.org/2000/svg" xmlns:xlink="http://www.w3.org/1999/xlink" xmlns:mei="http://www.music-encoding.org/ns/mei" overflow="visible">
 <desc>Engraved by Verovio 3.10.0-dev-e51b2ff</desc>
 <defs>
  <symbol id="E084-mwv3tq" viewBox="0 0 1000 1000" overflow="inherit">
   <path transform="scale(1,-1)" d="M208 -127h-172c-9 0 -11 6 -11 6s-7 11 -10 18c-1 2 -1 4 -1 6c0 6 3 11 3 11c26 37 56 87 82 168s31 155 31 155c1 6 6 12 13 12h149c4 0 7 -2 10 -4l22 -22c1 -1 3 -5 3 -10c0 -4 -1 -9 -5 -14c-118 -158 -230 -278 -230 -278h116v82c0 4 1 8 4 11l91 83c2 2 6 3 9 3h2 c2 0 3 0 5 -1l12 -6c4 -2 7 -7 7 -13v-159h90c8 0 14 -7 14 -14v-19c0 -8 -6 -15 -14 -15h-90v-74h90c8 0 14 -6 14 -14v-19c0 -8 -6 -14 -14 -14h-303c-7 0 -14 6 -14 14v19c0 8 7 14 14 14h83v74z" />
  </symbol>
  <symbol id="E086-mwv3tq" viewBox="0 0 1000 1000" overflow="inherit">
   <path transform="scale(1,-1)" d="M247 48c63 0 140 -37 140 -135c0 -116 -131 -157 -166 -157s-72 2 -130 46c-59 52 -76 121 -76 182c0 56 15 105 25 129c20 46 85 132 175 132c100 0 142 -53 155 -89c4 -8 6 -23 6 -32v-1v-2c0 -36 -29 -64 -65 -64s-64 28 -64 64c0 23 17 50 38 59 c-10 11 -25 19 -50 19c-54 0 -79 -46 -85 -83c-3 -18 -5 -32 -5 -48s2 -32 5 -53c14 15 36 33 97 33zM210 -202c33 0 61 45 61 101s-28 102 -61 102s-60 -46 -60 -102s27 -101 60 -101z" />
  </symbol>
  <symbol id="E050-mwv3tq" viewBox="0 0 1000 1000" overflow="inherit">
   <path transform="scale(1,-1)" d="M562 -21c0 89 -65 150 -155 150c7 -44 34 -203 55 -323c71 29 100 102 100 173zM420 -206l-58 329c-59 -14 -104 -63 -104 -124c0 -49 22 -75 61 -99c12 -8 22 -13 22 -22s-9 -13 -17 -13c-80 0 -135 96 -135 166c0 94 62 190 153 217c-7 41 -14 88 -23 142 c-15 -15 -31 -29 -48 -44c-88 -76 -174 -185 -174 -307c0 -151 122 -251 265 -251c19 0 38 2 58 6zM332 822c-8 -31 -11 -65 -11 -102c0 -42 5 -81 11 -121c69 68 146 146 146 250c0 69 -24 118 -39 118c-52 0 -98 -105 -107 -145zM122 -513c0 66 45 123 115 123 c75 0 116 -57 116 -111c0 -64 -47 -104 -94 -111c-3 -1 -5 -2 -5 -4c0 -1 2 -2 3 -3c2 0 23 -5 47 -5c101 0 154 55 154 159c0 53 -11 123 -30 219c-23 -4 -50 -7 -79 -7c-186 0 -349 147 -349 334c0 200 126 321 217 406c21 17 73 70 74 71c-17 112 -22 161 -22 215 c0 84 18 212 82 288c33 39 64 51 71 51c18 0 47 -35 71 -86c16 -36 44 -110 44 -201c0 -159 -73 -284 -179 -395c9 -56 19 -115 29 -175c146 0 253 -102 253 -253c0 -103 -73 -205 -171 -237c6 -39 12 -69 15 -89c10 -57 16 -102 16 -141c0 -63 -14 -129 -68 -167 c-36 -22 -77 -34 -124 -34c-135 0 -186 87 -186 153z" />
  </symbol>
  <symbol id="E062-mwv3tq" viewBox="0 0 1000 1000" overflow="inherit">
   <path transform="scale(1,-1)" d="M254 251c93 0 164 -29 211 -85c41 -49 63 -118 63 -201c0 -67 -25 -145 -69 -220c-25 -42 -56 -84 -92 -123c-40 -43 -86 -83 -137 -120c-91 -71 -205 -118 -206 -118s-4 -1 -5 -1c-6 0 -15 2 -18 12c0 2 -1 3 -1 5c0 12 12 19 12 19c1 0 99 45 203 140 c39 35 83 98 116 164c30 59 65 148 65 241c0 168 -50 250 -152 250c-35 0 -67 -6 -92 -20c-17 -9 -39 -29 -50 -45s-23 -45 -26 -64c8 7 25 17 35 21c9 3 20 5 32 5c17 0 37 -4 58 -18c30 -19 48 -51 48 -86c0 -39 -19 -75 -50 -92c-19 -11 -42 -17 -64 -17 c-13 0 -26 2 -38 6c-30 10 -53 29 -65 56c-9 19 -13 41 -13 65c0 17 2 35 7 53c9 35 32 86 90 129c1 0 62 44 138 44zM568 124c0 28 22 51 48 51s48 -23 48 -51s-22 -50 -48 -50s-48 22 -48 50zM568 -123c0 28 22 51 48 51s48 -23 48 -51s-22 -51 -48 -51s-48 23 -48 51z " />
  </symbol>
  <symbol id="E0A3-mwv3tq" viewBox="0 0 1000 1000" overflow="inherit">
   <path transform="scale(1,-1)" d="M213 132c62 0 112 -33 112 -92c0 -88 -109 -173 -213 -173c-81 0 -112 48 -112 91c0 93 116 174 213 174zM186 -44c3 2 104 50 104 93c0 22 -16 36 -40 36c-36 0 -107 -40 -111 -42s-104 -51 -104 -93c0 -9 7 -36 40 -36c35 0 108 40 111 42z" />
  </symbol>
  <symbol id="E0A4-mwv3tq" viewBox="0 0 1000 1000" overflow="inherit">
   <path transform="scale(1,-1)" d="M0 -42c0 92 116 174 213 174c62 0 112 -33 112 -92c0 -88 -109 -173 -213 -173c-81 0 -112 48 -112 91z" />
  </symbol>
  <symbol id="E241-mwv3tq" viewBox="0 0 1000 1000" overflow="inherit">
   <path transform="scale(1,-1)" d="M0 1v226c0 3 1 8 8 11c42 14 147 68 212 179c18 31 47 74 47 157c0 72 -16 125 -56 218c-2 4 -3 9 -3 12c0 6 2 10 7 12c1 1 3 1 5 1c6 0 12 -4 15 -11c53 -97 74 -173 74 -264c0 -88 -30 -154 -79 -224c-50 -70 -110 -117 -149 -182c-36 -59 -45 -97 -46 -101 c-1 -3 -10 -38 -10 -39c-1 -4 -7 -8 -12 -8c-7 0 -13 6 -13 13z" />
  </symbol>
  <symbol id="E262-mwv3tq" viewBox="0 0 1000 1000" overflow="inherit">
   <path transform="scale(1,-1)" d="M233 105l-38 -7v-165l33 7h2c8 0 14 -6 14 -14v-59c0 -6 -5 -13 -11 -14l-38 -7v-147h-28v141l-89 -18v-155h-28v149l-33 -7h-3c-8 0 -14 6 -14 14v58c0 6 5 13 11 14l39 8v165l-33 -7h-3c-8 0 -14 6 -14 14v-2v58v2c0 6 5 13 11 14l39 8v147h28v-141l89 18v155h28v-149 l33 7h2c8 0 14 -6 14 -14v-59c0 -6 -5 -13 -11 -14zM78 74v-166l89 19v165z" />
  </symbol>
  <symbol id="E4E5-mwv3tq" viewBox="0 0 1000 1000" overflow="inherit">
   <path transform="scale(1,-1)" d="M230 -166l2 -3c2 -3 3 -5 3 -8s-1 -5 -3 -9c-3 -4 -6 -5 -10 -5s-8 2 -8 2l-39 25c-8 5 -19 9 -32 9s-27 -4 -39 -16c-13 -13 -17 -29 -17 -42c0 -18 7 -32 7 -32s32 -58 35 -63c1 -2 3 -5 3 -9s-2 -8 -7 -12c-2 -2 -4 -2 -6 -2c-7 0 -12 6 -12 6s-75 95 -96 127 c-8 11 -11 25 -11 39c0 25 12 53 34 73c18 16 40 20 57 20c12 0 21 -2 25 -3l-112 139c-2 2 -3 5 -3 8v9c0 2 1 6 2 8l101 154c2 3 3 8 3 12c0 5 -1 9 -3 12l-76 104s-3 5 -3 11c0 3 1 7 5 10c3 2 5 3 8 3c6 0 10 -6 10 -6l162 -219c2 -2 3 -5 3 -8v-9c0 -2 -1 -5 -2 -7 l-102 -154c-1 -2 -2 -6 -2 -9c0 -2 1 -5 2 -6l115 -142c3 -4 5 -6 6 -7z" />
  </symbol>
 </defs>
 <style type="text/css">g.page-margin{font-family:Times;} g.ending, g.fing, g.reh, g.tempo{font-weight:bold;} g.dir, g.dynam, g.mNum{font-style:italic;} g.label{font-weight:normal;}</style>
 <svg class="definition-scale" color="black" viewBox="0 0 25050 9730">
  <g class="page-margin" transform="translate(300, 1000)">
   <g id="m-31" class="mdiv pageMilestone" />
   <g id="m-33" class="score pageMilestone" />
   <g id="sfqvg5b" class="system">
    <path d="M5 540 L5 3060" stroke="currentColor" stroke-width="10" />
    <g id="gr3zyct" class="grpSym">
     <path d="M-72,3042 C-432,2502 18,1980 -252,1800 C81,1980 -369,2502 -72,3042" stroke="currentColor" stroke-linecap="round" stroke-linejoin="round" stroke-width="18" />
     <path d="M-72,558 C-369,1098 81,1620 -252,1800 C18,1620 -432,1098 -72,558" stroke="currentColor" stroke-linecap="round" stroke-linejoin="round" stroke-width="18" />
    </g>
    <g id="m-45" class="sb" />
    <g id="m-43" class="section systemMilestone" />
    <g id="m-28" class="pb" />
    <g id="m-44" class="measure">
     <g id="m-46" class="staff">
      <path d="M0 540 L3155 540" stroke="currentColor" stroke-width="10" />
      <path d="M0 720 L3155 720" stroke="currentColor" stroke-width="10" />
      <path d="M0 900 L3155 900" stroke="currentColor" stroke-width="10" />
      <path d="M0 1080 L3155 1080" stroke="currentColor" stroke-width="10" />
      <path d="M0 1260 L3155 1260" stroke="currentColor" stroke-width="10" />
      <g id="clk29gn" class="clef">
       <use xlink:href="#E050-mwv3tq" x="145" y="1080" height="720px" width="720px" />
      </g>
      <g id="kb8cq76" class="keySig">
       <g class="keyAccid">
        <use xlink:href="#E262-mwv3tq" x="803" y="540" height="720px" width="720px" />
       </g>
       <g class="keyAccid">
        <use xlink:href="#E262-mwv3tq" x="1015" y="810" height="720px" width="720px" />
       </g>
      </g>
      <g id="mkg1d1d" class="meterSig">
       <use xlink:href="#E086-mwv3tq" x="1380" y="720" height="720px" width="720px" />
       <use xlink:href="#E084-mwv3tq" x="1360" y="1080" height="720px" width="720px" />
      </g>
      <g id="m-47" class="layer">
       <g id="m-49" class="beam">
        <polygon points="2186,360 2804,360 2804,450 2186,450 " />
        <g id="m-48" class="note">
         <g class="notehead">
          <use xlink:href="#E0A4-mwv3tq" x="1970" y="990" height="720px" width="720px" />
         </g>
         <g id="skb7ctx" class="stem">
          <rect x="2186" y="378" height="584" width="18" />
         </g>
         <g id="m-51" class="verse">
          <g id="m-52" class="syl">
           <text x="1880" y="1820" font-size="0px">
            <tspan id="tm67v62" class="text">
             <tspan font-size="405px" class="text">So</tspan>
            </tspan>
           </text>
          </g>
         </g>
        </g>
        <g id="m-50" class="note">
         <g class="notehead">
          <use xlink:href="#E0A4-mwv3tq" x="2570" y="990" height="720px" width="720px" />
         </g>
         <g id="se29h0p" class="stem">
          <rect x="2786" y="378" height="584" width="18" />
         </g>
         <g id="m-53" class="verse">
          <g id="m-54" class="syl">
           <text x="2480" y="1820" font-size="0px">
            <tspan id="tst6c5i" class="text">
             <tspan font-size="405px" class="text">I</tspan>
            </tspan>
           </text>
          </g>
         </g>
        </g>
       </g>
      </g>
     </g>
     <g id="m-55" class="staff">
      <path d="M0 2340 L3155 2340" stroke="currentColor" stroke-width="10" />
      <path d="M0 2520 L3155 2520" stroke="currentColor" stroke-width="10" />
      <path d="M0 2700 L3155 2700" stroke="currentColor" stroke-width="10" />
      <path d="M0 2880 L3155 2880" stroke="currentColor" stroke-width="10" />
      <path d="M0 3060 L3155 3060" stroke="currentColor" stroke-width="10" />
      <g id="cja23o5" class="clef">
       <use xlink:href="#E062-mwv3tq" x="145" y="2520" height="720px" width="720px" />
      </g>
      <g id="kk8gs29" class="keySig">
       <g class="keyAccid">
        <use xlink:href="#E262-mwv3tq" x="803" y="2520" height="720px" width="720px" />
       </g>
       <g class="keyAccid">
        <use xlink:href="#E262-mwv3tq" x="1015" y="2790" height="720px" width="720px" />
       </g>
      </g>
      <g id="mvyghn" class="meterSig">
       <use xlink:href="#E086-mwv3tq" x="1380" y="2520" height="720px" width="720px" />
       <use xlink:href="#E084-mwv3tq" x="1360" y="2880" height="720px" width="720px" />
      </g>
      <g id="m-56" class="layer">
       <g id="m-57" class="rest">
        <use xlink:href="#E4E5-mwv3tq" x="1970" y="2700" height="720px" width="720px" />
       </g>
      </g>
     </g>
     <g id="bcttqa5" class="barLine">
      <path d="M3150 1260 L3150 540" stroke="currentColor" stroke-width="10" />
      <path d="M3150 3060 L3150 2340" stroke="currentColor" stroke-width="10" />
     </g>
    </g>
    <g id="m-61" class="measure">
     <g id="m-62" class="staff">
      <path d="M3155 540 L8619 540" stroke="currentColor" stroke-width="10" />
      <path d="M3155 720 L8619 720" stroke="currentColor" stroke-width="10" />
      <path d="M3155 900 L8619 900" stroke="currentColor" stroke-width="10" />
      <path d="M3155 1080 L8619 1080" stroke="currentColor" stroke-width="10" />
      <path d="M3155 1260 L8619 1260" stroke="currentColor" stroke-width="10" />
      <g id="m-63" class="layer">
       <g id="m-64" class="note">
        <g class="notehead">
         <use xlink:href="#E0A4-mwv3tq" x="3357" y="900" height="720px" width="720px" />
        </g>
        <g id="dtdf3sa" class="dots">
         <ellipse cx="3681" cy="810" rx="36" ry="36" />
        </g>
        <g id="skloott" class="stem">
         <rect x="3357" y="930" height="570" width="18" />
        </g>
        <g id="m-72" class="verse">
         <g id="m-73" class="syl">
          <text x="3267" y="1820" font-size="0px">
           <tspan id="tndjsbt" class="text">
            <tspan font-size="405px" class="text">drink</tspan>
           </tspan>
          </text>
         </g>
        </g>
       </g>
       <g id="m-65" class="note">
        <g class="notehead">
         <use xlink:href="#E0A4-mwv3tq" x="4493" y="810" height="720px" width="720px" />
        </g>
        <g id="suckys7" class="stem">
         <rect x="4493" y="840" height="600" width="18" />
         <g id="f5jcmnu" class="flag">
          <use xlink:href="#E241-mwv3tq" x="4493" y="1440" height="720px" width="720px" />
         </g>
        </g>
        <g id="m-66" class="accid" />
        <g id="m-74" class="verse">
         <g id="m-75" class="syl">
          <text x="4352" y="1820" font-size="0px">
           <tspan id="tk6zlsr" class="text">
            <tspan font-size="405px" class="text">off</tspan>
           </tspan>
          </text>
         </g>
        </g>
       </g>
       <g id="m-67" class="note">
        <g class="notehead">
         <use xlink:href="#E0A4-mwv3tq" x="5085" y="720" height="720px" width="720px" />
        </g>
        <g id="s43iqj4" class="stem">
         <rect x="5085" y="750" height="600" width="18" />
        </g>
        <g id="m-76" class="verse">
         <g id="m-77" class="syl">
          <text x="4995" y="1820" font-size="0px">
           <tspan id="tp4mby8" class="text">
            <tspan font-size="405px" class="text">this</tspan>
           </tspan>
          </text>
         </g>
        </g>
       </g>
       <g id="m-68" class="note">
        <g class="notehead">
         <use xlink:href="#E0A4-mwv3tq" x="5975" y="810" height="720px" width="720px" />
        </g>
        <g id="dek1cm6" class="dots">
         <ellipse cx="6299" cy="810" rx="36" ry="36" />
        </g>
        <g id="s2gi0fz" class="stem">
         <rect x="5975" y="840" height="600" width="18" />
        </g>
        <g id="m-69" class="accid" />
        <g id="m-78" class="verse">
         <g id="m-79" class="syl">
          <text x="5885" y="1820" font-size="0px">
           <tspan id="tb5yr39" class="text">
            <tspan font-size="405px" class="text">bum</tspan>
           </tspan>
          </text>
          <rect x="6721" y="1717" height="22" width="108" />
         </g>
        </g>
       </g>
       <g id="m-70" class="note">
        <g class="notehead">
         <use xlink:href="#E0A4-mwv3tq" x="7111" y="900" height="720px" width="720px" />
        </g>
        <g id="sgl9zsd" class="stem">
         <rect x="7111" y="930" height="570" width="18" />
         <g id="fc2ays6" class="flag">
          <use xlink:href="#E241-mwv3tq" x="7111" y="1500" height="720px" width="720px" />
         </g>
        </g>
        <g id="m-80" class="verse">
         <g id="m-81" class="syl">
          <text x="6943" y="1820" font-size="0px">
           <tspan id="tohv56k" class="text">
            <tspan font-size="405px" class="text">per</tspan>
           </tspan>
          </text>
         </g>
        </g>
       </g>
       <g id="m-71" class="note">
        <g class="notehead">
         <use xlink:href="#E0A4-mwv3tq" x="7724" y="990" height="720px" width="720px" />
        </g>
        <g id="sbryvm6" class="stem">
         <rect x="7939" y="360" height="602" width="18" />
        </g>
        <g id="m-82" class="verse">
         <g id="m-83" class="syl">
          <text x="7634" y="1820" font-size="0px">
           <tspan id="t5xv3o" class="text">
            <tspan font-size="405px" class="text">And</tspan>
           </tspan>
          </text>
         </g>
        </g>
       </g>
      </g>
     </g>
     <g id="m-84" class="staff">
      <path d="M3155 2340 L8619 2340" stroke="currentColor" stroke-width="10" />
      <path d="M3155 2520 L8619 2520" stroke="currentColor" stroke-width="10" />
      <path d="M3155 2700 L8619 2700" stroke="currentColor" stroke-width="10" />
      <path d="M3155 2880 L8619 2880" stroke="currentColor" stroke-width="10" />
      <path d="M3155 3060 L8619 3060" stroke="currentColor" stroke-width="10" />
      <g id="m-85" class="layer">
       <g id="m-86" class="note">
        <g class="notehead">
         <use xlink:href="#E0A3-mwv3tq" x="3357" y="2430" height="720px" width="720px" />
        </g>
        <g id="d9nnhg" class="dots">
         <ellipse cx="3681" cy="2430" rx="36" ry="36" />
        </g>
        <g id="spn8imc" class="stem">
         <rect x="3357" y="2460" height="600" width="18" />
        </g>
       </g>
       <g id="m-87" class="note">
        <g class="notehead">
         <use xlink:href="#E0A3-mwv3tq" x="5975" y="2340" height="720px" width="720px" />
        </g>
        <g id="duua17u" class="dots">
         <ellipse cx="6299" cy="2250" rx="36" ry="36" />
        </g>
        <g id="s3b57j1" class="stem">
         <rect x="5975" y="2370" height="600" width="18" />
        </g>
       </g>
      </g>
     </g>
     <g id="bij1tuw" class="barLine">
      <path d="M8614 1260 L8614 540" stroke="currentColor" stroke-width="10" />
      <path d="M8614 3060 L8614 2340" stroke="currentColor" stroke-width="10" />
     </g>
    </g>
    <g id="m-88" class="measure">
     <g id="m-89" class="staff">
      <path d="M8619 540 L14102 540" stroke="currentColor" stroke-width="10" />
      <path d="M8619 720 L14102 720" stroke="currentColor" stroke-width="10" />
      <path d="M8619 900 L14102 900" stroke="currentColor" stroke-width="10" />
      <path d="M8619 1080 L14102 1080" stroke="currentColor" stroke-width="10" />
      <path d="M8619 1260 L14102 1260" stroke="currentColor" stroke-width="10" />
      <g id="m-90" class="layer">
       <g id="m-91" class="note">
        <g class="notehead">
         <use xlink:href="#E0A4-mwv3tq" x="8821" y="720" height="720px" width="720px" />
        </g>
        <g id="dzib0lb" class="dots">
         <ellipse cx="9145" cy="630" rx="36" ry="36" />
        </g>
        <g id="sox8d3f" class="stem">
         <rect x="8821" y="750" height="600" width="18" />
        </g>
        <g id="m-100" class="verse">
         <g id="m-101" class="syl">
          <text x="8731" y="1820" font-size="0px">
           <tspan id="tvljrpo" class="text">
            <tspan font-size="405px" class="text">now</tspan>
           </tspan>
          </text>
         </g>
        </g>
       </g>
       <g id="m-92" class="note">
        <g class="notehead">
         <use xlink:href="#E0A4-mwv3tq" x="9957" y="810" height="720px" width="720px" />
        </g>
        <g id="smiutgf" class="stem">
         <rect x="9957" y="840" height="600" width="18" />
         <g id="fxnrggg" class="flag">
          <use xlink:href="#E241-mwv3tq" x="9957" y="1440" height="720px" width="720px" />
         </g>
        </g>
        <g id="m-93" class="accid" />
        <g id="m-102" class="verse">
         <g id="m-103" class="syl">
          <text x="9867" y="1820" font-size="0px">
           <tspan id="ttzpbei" class="text">
            <tspan font-size="405px" class="text">I</tspan>
           </tspan>
          </text>
         </g>
        </g>
       </g>
       <g id="m-94" class="note">
        <g class="notehead">
         <use xlink:href="#E0A4-mwv3tq" x="10537" y="900" height="720px" width="720px" />
        </g>
        <g id="sclteih" class="stem">
         <rect x="10537" y="930" height="570" width="18" />
        </g>
        <g id="m-104" class="verse">
         <g id="m-105" class="syl">
          <text x="10447" y="1820" font-size="0px">
           <tspan id="t9iowuy" class="text">
            <tspan font-size="405px" class="text">can</tspan>
           </tspan>
          </text>
         </g>
        </g>
       </g>
       <g id="m-95" class="note">
        <g class="notehead">
         <use xlink:href="#E0A4-mwv3tq" x="11427" y="990" height="720px" width="720px" />
        </g>
        <g id="sqylsiw" class="stem">
         <rect x="11642" y="360" height="602" width="18" />
        </g>
        <g id="m-106" class="verse">
         <g id="m-107" class="syl">
          <text x="11337" y="1820" font-size="0px">
           <tspan id="tj7ces0" class="text">
            <tspan font-size="405px" class="text">stand</tspan>
           </tspan>
          </text>
          <rect x="12239" y="1798" height="22" width="312" />
         </g>
        </g>
       </g>
       <g id="m-97" class="note">
        <g class="notehead">
         <use xlink:href="#E0A4-mwv3tq" x="12317" y="1170" height="720px" width="720px" />
        </g>
        <g id="seji1q9" class="stem">
         <rect x="12532" y="540" height="602" width="18" />
        </g>
        <g id="m-98" class="accid" />
       </g>
       <g id="m-99" class="note">
        <g class="notehead">
         <use xlink:href="#E0A4-mwv3tq" x="13207" y="990" height="720px" width="720px" />
        </g>
        <g id="sbw2qdr" class="stem">
         <rect x="13422" y="360" height="602" width="18" />
        </g>
        <g id="m-108" class="verse">
         <g id="m-109" class="syl">
          <text x="13117" y="1820" font-size="0px">
           <tspan id="ti7i9an" class="text">
            <tspan font-size="405px" class="text">the</tspan>
           </tspan>
          </text>
         </g>
        </g>
       </g>
      </g>
     </g>
     <g id="m-110" class="staff">
      <path d="M8619 2340 L14102 2340" stroke="currentColor" stroke-width="10" />
      <path d="M8619 2520 L14102 2520" stroke="currentColor" stroke-width="10" />
      <path d="M8619 2700 L14102 2700" stroke="currentColor" stroke-width="10" />
      <path d="M8619 2880 L14102 2880" stroke="currentColor" stroke-width="10" />
      <path d="M8619 3060 L14102 3060" stroke="currentColor" stroke-width="10" />
      <g id="m-111" class="layer">
       <g id="m-112" class="note">
        <g class="notehead">
         <use xlink:href="#E0A3-mwv3tq" x="8821" y="2520" height="720px" width="720px" />
        </g>
        <g id="strndjh" class="stem">
         <rect x="8821" y="2550" height="600" width="18" />
        </g>
        <g id="m-113" class="accid" />
       </g>
       <g id="m-114" class="note">
        <g class="notehead">
         <use xlink:href="#E0A4-mwv3tq" x="10537" y="2430" height="720px" width="720px" />
        </g>
        <g id="svrdax0" class="stem">
         <rect x="10537" y="2460" height="600" width="18" />
        </g>
       </g>
       <g id="m-115" class="note">
        <g class="notehead">
         <use xlink:href="#E0A3-mwv3tq" x="11427" y="2700" height="720px" width="720px" />
        </g>
        <g id="dywtrqr" class="dots">
         <ellipse cx="11751" cy="2610" rx="36" ry="36" />
        </g>
        <g id="simen7" class="stem">
         <rect x="11427" y="2730" height="570" width="18" />
        </g>
       </g>
      </g>
     </g>
     <g id="m-96" class="tie">
      <path d="M11706,1035 C12074,1145 12793,1145 13162,1035 C12802,1193 12065,1193 11706,1035" stroke="currentColor" stroke-linecap="round" stroke-linejoin="round" stroke-width="9" />
     </g>
     <g id="bnbjub9" class="barLine">
      <path d="M14097 1260 L14097 540" stroke="currentColor" stroke-width="10" />
      <path d="M14097 3060 L14097 2340" stroke="currentColor" stroke-width="10" />
     </g>
    </g>
    <g id="m-116" class="measure">
     <g id="m-117" class="staff">
      <path d="M14102 540 L18559 540" stroke="currentColor" stroke-width="10" />
      <path d="M14102 720 L18559 720" stroke="currentColor" stroke-width="10" />
      <path d="M14102 900 L18559 900" stroke="currentColor" stroke-width="10" />
      <path d="M14102 1080 L18559 1080" stroke="currentColor" stroke-width="10" />
      <path d="M14102 1260 L18559 1260" stroke="currentColor" stroke-width="10" />
      <g id="m-118" class="layer">
       <g id="m-119" class="note">
        <g class="notehead">
         <use xlink:href="#E0A3-mwv3tq" x="14304" y="1260" height="720px" width="720px" />
        </g>
        <g id="dbt9npg" class="dots">
         <ellipse cx="14628" cy="1170" rx="36" ry="36" />
        </g>
        <g id="srqyley" class="stem">
         <rect x="14519" y="630" height="602" width="18" />
        </g>
        <g id="m-125" class="verse">
         <g id="m-126" class="syl">
          <text x="14214" y="1820" font-size="0px">
           <tspan id="tds587e" class="text">
            <tspan font-size="405px" class="text">test.</tspan>
           </tspan>
          </text>
          <rect x="14925" y="1798" height="22" width="1342" />
         </g>
        </g>
       </g>
       <g id="m-121" class="note">
        <g class="notehead">
         <use xlink:href="#E0A3-mwv3tq" x="16033" y="1260" height="720px" width="720px" />
        </g>
        <g id="s3uu21d" class="stem">
         <rect x="16248" y="630" height="602" width="18" />
        </g>
       </g>
       <g id="m-123" class="beam">
        <polygon points="17604,360 18208,360 18208,450 17604,450 " />
        <g id="m-122" class="note">
         <g class="notehead">
          <use xlink:href="#E0A4-mwv3tq" x="17388" y="990" height="720px" width="720px" />
         </g>
         <g id="sj5o21e" class="stem">
          <rect x="17604" y="378" height="584" width="18" />
         </g>
         <g id="m-127" class="verse">
          <g id="m-128" class="syl">
           <text x="17028" y="1820" font-size="0px">
            <tspan id="t1dt3gz" class="text">
             <tspan font-size="405px" class="text">And</tspan>
            </tspan>
           </text>
          </g>
         </g>
        </g>
        <g id="m-124" class="note">
         <g class="notehead">
          <use xlink:href="#E0A4-mwv3tq" x="17974" y="990" height="720px" width="720px" />
         </g>
         <g id="sz7j074" class="stem">
          <rect x="18190" y="378" height="584" width="18" />
         </g>
         <g id="m-129" class="verse">
          <g id="m-130" class="syl">
           <text x="17884" y="1820" font-size="0px">
            <tspan id="tpi21ds" class="text">
             <tspan font-size="405px" class="text">my</tspan>
            </tspan>
           </text>
          </g>
         </g>
        </g>
       </g>
      </g>
     </g>
     <g id="m-131" class="staff">
      <path d="M14102 2340 L18559 2340" stroke="currentColor" stroke-width="10" />
      <path d="M14102 2520 L18559 2520" stroke="currentColor" stroke-width="10" />
      <path d="M14102 2700 L18559 2700" stroke="currentColor" stroke-width="10" />
      <path d="M14102 2880 L18559 2880" stroke="currentColor" stroke-width="10" />
      <path d="M14102 3060 L18559 3060" stroke="currentColor" stroke-width="10" />
      <g id="m-132" class="layer">
       <g id="m-133" class="note">
        <g class="notehead">
         <use xlink:href="#E0A3-mwv3tq" x="14304" y="2340" height="720px" width="720px" />
        </g>
        <g id="ds2ozmi" class="dots">
         <ellipse cx="14628" cy="2250" rx="36" ry="36" />
        </g>
        <g id="slgene8" class="stem">
         <rect x="14304" y="2370" height="600" width="18" />
        </g>
       </g>
       <g id="m-135" class="note">
        <g class="notehead">
         <use xlink:href="#E0A3-mwv3tq" x="16033" y="2340" height="720px" width="720px" />
        </g>
        <g id="sn0r34c" class="stem">
         <rect x="16033" y="2370" height="600" width="18" />
        </g>
       </g>
       <g id="m-136" class="note">
        <g class="notehead">
         <use xlink:href="#E0A4-mwv3tq" x="17388" y="2700" height="720px" width="720px" />
        </g>
        <g id="s6ft7h7" class="stem">
         <rect x="17388" y="2730" height="570" width="18" />
        </g>
       </g>
      </g>
     </g>
     <g id="m-120" class="tie">
      <path d="M14583,1305 C14938,1415 15631,1415 15988,1305 C15640,1463 14929,1463 14583,1305" stroke="currentColor" stroke-linecap="round" stroke-linejoin="round" stroke-width="9" />
     </g>
     <g id="m-134" class="tie">
      <path d="M14583,2138 C14929,1982 15640,1982 15988,2138 C15631,2030 14938,2030 14583,2138" stroke="currentColor" stroke-linecap="round" stroke-linejoin="round" stroke-width="9" />
     </g>
     <g id="bhjxe4u" class="barLine">
      <path d="M18554 1260 L18554 540" stroke="currentColor" stroke-width="10" />
      <path d="M18554 3060 L18554 2340" stroke="currentColor" stroke-width="10" />
     </g>
    </g>
    <g id="m-138" class="sb" />
    <g id="m-137" class="measure">
     <g id="m-139" class="staff">
      <path d="M18559 540 L24553 540" stroke="currentColor" stroke-width="10" />
      <path d="M18559 720 L24553 720" stroke="currentColor" stroke-width="10" />
      <path d="M18559 900 L24553 900" stroke="currentColor" stroke-width="10" />
      <path d="M18559 1080 L24553 1080" stroke="currentColor" stroke-width="10" />
      <path d="M18559 1260 L24553 1260" stroke="currentColor" stroke-width="10" />
      <g id="m-140" class="layer">
       <g id="m-141" class="note">
        <g class="notehead">
         <use xlink:href="#E0A4-mwv3tq" x="18761" y="900" height="720px" width="720px" />
        </g>
        <g id="dhxgg5s" class="dots">
         <ellipse cx="19085" cy="810" rx="36" ry="36" />
        </g>
        <g id="sbherlu" class="stem">
         <rect x="18761" y="930" height="570" width="18" />
        </g>
        <g id="m-149" class="verse">
         <g id="m-150" class="syl">
          <text x="18671" y="1820" font-size="0px">
           <tspan id="tnt7zjx" class="text">
            <tspan font-size="405px" class="text">Com</tspan>
           </tspan>
          </text>
          <rect x="19575" y="1717" height="22" width="108" />
         </g>
        </g>
       </g>
       <g id="m-142" class="note">
        <g class="notehead">
         <use xlink:href="#E0A4-mwv3tq" x="19897" y="810" height="720px" width="720px" />
        </g>
        <g id="sbcez0x" class="stem">
         <rect x="19897" y="840" height="600" width="18" />
         <g id="fryg1zz" class="flag">
          <use xlink:href="#E241-mwv3tq" x="19897" y="1440" height="720px" width="720px" />
         </g>
        </g>
        <g id="m-143" class="accid" />
        <g id="m-151" class="verse">
         <g id="m-152" class="syl">
          <text x="19797" y="1820" font-size="0px">
           <tspan id="tn05h3h" class="text">
            <tspan font-size="405px" class="text">rades</tspan>
           </tspan>
          </text>
         </g>
        </g>
       </g>
       <g id="m-144" class="note">
        <g class="notehead">
         <use xlink:href="#E0A4-mwv3tq" x="20963" y="720" height="720px" width="720px" />
        </g>
        <g id="ssqt4kn" class="stem">
         <rect x="20963" y="750" height="600" width="18" />
        </g>
        <g id="m-153" class="verse">
         <g id="m-154" class="syl">
          <text x="20873" y="1820" font-size="0px">
           <tspan id="tymogr0" class="text">
            <tspan font-size="405px" class="text">shall</tspan>
           </tspan>
          </text>
         </g>
        </g>
       </g>
       <g id="m-145" class="note">
        <g class="notehead">
         <use xlink:href="#E0A4-mwv3tq" x="21941" y="810" height="720px" width="720px" />
        </g>
        <g id="dhh1wy1" class="dots">
         <ellipse cx="22265" cy="810" rx="36" ry="36" />
        </g>
        <g id="sx4dj6a" class="stem">
         <rect x="21941" y="840" height="600" width="18" />
        </g>
        <g id="m-146" class="accid" />
        <g id="m-155" class="verse">
         <g id="m-156" class="syl">
          <text x="21851" y="1820" font-size="0px">
           <tspan id="td613wm" class="text">
            <tspan font-size="405px" class="text">see,</tspan>
           </tspan>
          </text>
         </g>
        </g>
       </g>
       <g id="m-147" class="note">
        <g class="notehead">
         <use xlink:href="#E0A4-mwv3tq" x="23077" y="900" height="720px" width="720px" />
        </g>
        <g id="srxr71l" class="stem">
         <rect x="23077" y="930" height="570" width="18" />
         <g id="fldvrjl" class="flag">
          <use xlink:href="#E241-mwv3tq" x="23077" y="1500" height="720px" width="720px" />
         </g>
        </g>
        <g id="m-157" class="verse">
         <g id="m-158" class="syl">
          <text x="22789" y="1820" font-size="0px">
           <tspan id="txmxgvm" class="text">
            <tspan font-size="405px" class="text">that</tspan>
           </tspan>
          </text>
         </g>
        </g>
       </g>
       <g id="m-148" class="note">
        <g class="notehead">
         <use xlink:href="#E0A4-mwv3tq" x="23658" y="990" height="720px" width="720px" />
        </g>
        <g id="skjfi1m" class="stem">
         <rect x="23873" y="360" height="602" width="18" />
        </g>
        <g id="m-159" class="verse">
         <g id="m-160" class="syl">
          <text x="23568" y="1820" font-size="0px">
           <tspan id="twpge4t" class="text">
            <tspan font-size="405px" class="text">I</tspan>
           </tspan>
          </text>
         </g>
        </g>
       </g>
      </g>
     </g>
     <g id="m-161" class="staff">
      <path d="M18559 2340 L24553 2340" stroke="currentColor" stroke-width="10" />
      <path d="M18559 2520 L24553 2520" stroke="currentColor" stroke-width="10" />
      <path d="M18559 2700 L24553 2700" stroke="currentColor" stroke-width="10" />
      <path d="M18559 2880 L24553 2880" stroke="currentColor" stroke-width="10" />
      <path d="M18559 3060 L24553 3060" stroke="currentColor" stroke-width="10" />
      <g id="m-162" class="layer">
       <g id="m-163" class="note">
        <g class="notehead">
         <use xlink:href="#E0A3-mwv3tq" x="18761" y="2430" height="720px" width="720px" />
        </g>
        <g id="dz0bm1l" class="dots">
         <ellipse cx="19085" cy="2430" rx="36" ry="36" />
        </g>
        <g id="s1or6i1" class="stem">
         <rect x="18761" y="2460" height="600" width="18" />
        </g>
       </g>
       <g id="m-164" class="note">
        <g class="notehead">
         <use xlink:href="#E0A3-mwv3tq" x="21941" y="2340" height="720px" width="720px" />
        </g>
        <g id="dcf1kj8" class="dots">
         <ellipse cx="22265" cy="2250" rx="36" ry="36" />
        </g>
        <g id="sqzrzs6" class="stem">
         <rect x="21941" y="2370" height="600" width="18" />
        </g>
       </g>
      </g>
     </g>
     <g id="bpicrz2" class="barLine">
      <path d="M24548 1260 L24548 540" stroke="currentColor" stroke-width="10" />
      <path d="M24548 3060 L24548 2340" stroke="currentColor" stroke-width="10" />
     </g>
    </g>
   </g>
   <g id="s4q9ca2" class="system">
    <path d="M5 5279 L5 7799" stroke="currentColor" stroke-width="10" />
    <g id="gaqdxre" class="grpSym">
     <path d="M-72,7781 C-432,7241 18,6719 -252,6539 C81,6719 -369,7241 -72,7781" stroke="currentColor" stroke-linecap="round" stroke-linejoin="round" stroke-width="18" />
     <path d="M-72,5297 C-369,5837 81,6359 -252,6539 C18,6359 -432,5837 -72,5297" stroke="currentColor" stroke-linecap="round" stroke-linejoin="round" stroke-width="18" />
    </g>
    <g id="m-165" class="measure">
     <g id="mlviv9w" class="mNum autogenerated">
      <text x="0" y="5036" text-anchor="middle" font-size="0px">
       <tspan id="tknemq7" class="text">
        <tspan font-size="324px" class="text">6</tspan>
       </tspan>
      </text>
     </g>
     <g id="m-166" class="staff">
      <path d="M0 5279 L5861 5279" stroke="currentColor" stroke-width="10" />
      <path d="M0 5459 L5861 5459" stroke="currentColor" stroke-width="10" />
      <path d="M0 5639 L5861 5639" stroke="currentColor" stroke-width="10" />
      <path d="M0 5819 L5861 5819" stroke="currentColor" stroke-width="10" />
      <path d="M0 5999 L5861 5999" stroke="currentColor" stroke-width="10" />
      <g id="c70gsh7" class="clef">
       <use xlink:href="#E050-mwv3tq" x="145" y="5819" height="720px" width="720px" />
      </g>
      <g id="k3ojo4m" class="keySig">
       <g class="keyAccid">
        <use xlink:href="#E262-mwv3tq" x="803" y="5279" height="720px" width="720px" />
       </g>
       <g class="keyAccid">
        <use xlink:href="#E262-mwv3tq" x="1015" y="5549" height="720px" width="720px" />
       </g>
      </g>
      <g id="m-167" class="layer">
       <g id="m-168" class="note">
        <g class="notehead">
         <use xlink:href="#E0A3-mwv3tq" x="1460" y="5459" height="720px" width="720px" />
        </g>
        <g id="se11z36" class="stem">
         <rect x="1460" y="5489" height="600" width="18" />
        </g>
        <g id="m-174" class="verse">
         <g id="m-175" class="syl">
          <text x="1370" y="6630" font-size="0px">
           <tspan id="tsyti46" class="text">
            <tspan font-size="405px" class="text">die</tspan>
           </tspan>
          </text>
         </g>
        </g>
       </g>
       <g id="m-169" class="note">
        <g class="notehead">
         <use xlink:href="#E0A4-mwv3tq" x="2672" y="5639" height="720px" width="720px" />
        </g>
        <g id="sez6fcd" class="stem">
         <rect x="2672" y="5669" height="570" width="18" />
        </g>
        <g id="m-176" class="verse">
         <g id="m-177" class="syl">
          <text x="2582" y="6630" font-size="0px">
           <tspan id="tddt924" class="text">
            <tspan font-size="405px" class="text">as</tspan>
           </tspan>
          </text>
         </g>
        </g>
       </g>
       <g id="m-170" class="note">
        <g class="notehead">
         <use xlink:href="#E0A4-mwv3tq" x="3468" y="5729" height="720px" width="720px" />
        </g>
        <g id="syxkwnm" class="stem">
         <rect x="3683" y="5099" height="602" width="18" />
        </g>
        <g id="m-178" class="verse">
         <g id="m-179" class="syl">
          <text x="3165" y="6630" font-size="0px">
           <tspan id="tbg7gkm" class="text">
            <tspan font-size="405px" class="text">brave</tspan>
           </tspan>
          </text>
         </g>
        </g>
       </g>
       <g id="m-171" class="note">
        <g class="notehead">
         <use xlink:href="#E0A4-mwv3tq" x="4264" y="5909" height="720px" width="720px" />
        </g>
        <g id="s78k889" class="stem">
         <rect x="4479" y="5279" height="602" width="18" />
        </g>
        <g id="m-172" class="accid" />
        <g id="m-180" class="verse">
         <g id="m-181" class="syl">
          <text x="4174" y="6630" font-size="0px">
           <tspan id="tphmomd" class="text">
            <tspan font-size="405px" class="text">as</tspan>
           </tspan>
          </text>
         </g>
        </g>
       </g>
       <g id="m-173" class="note">
        <g class="notehead">
         <use xlink:href="#E0A4-mwv3tq" x="5060" y="5729" height="720px" width="720px" />
        </g>
        <g id="sjr2lg1" class="stem">
         <rect x="5275" y="5099" height="602" width="18" />
        </g>
        <g id="m-182" class="verse">
         <g id="m-183" class="syl">
          <text x="4970" y="6630" font-size="0px">
           <tspan id="t3bluh" class="text">
            <tspan font-size="405px" class="text">the</tspan>
           </tspan>
          </text>
         </g>
        </g>
       </g>
      </g>
     </g>
     <g id="m-184" class="staff">
      <path d="M0 7079 L5861 7079" stroke="currentColor" stroke-width="10" />
      <path d="M0 7259 L5861 7259" stroke="currentColor" stroke-width="10" />
      <path d="M0 7439 L5861 7439" stroke="currentColor" stroke-width="10" />
      <path d="M0 7619 L5861 7619" stroke="currentColor" stroke-width="10" />
      <path d="M0 7799 L5861 7799" stroke="currentColor" stroke-width="10" />
      <g id="cfsdgu0" class="clef">
       <use xlink:href="#E062-mwv3tq" x="145" y="7259" height="720px" width="720px" />
      </g>
      <g id="kuw6zcu" class="keySig">
       <g class="keyAccid">
        <use xlink:href="#E262-mwv3tq" x="803" y="7259" height="720px" width="720px" />
       </g>
       <g class="keyAccid">
        <use xlink:href="#E262-mwv3tq" x="1015" y="7529" height="720px" width="720px" />
       </g>
      </g>
      <g id="m-185" class="layer">
       <g id="m-186" class="note">
        <g class="notehead">
         <use xlink:href="#E0A3-mwv3tq" x="1460" y="7259" height="720px" width="720px" />
        </g>
        <g id="seb72on" class="stem">
         <rect x="1460" y="7289" height="600" width="18" />
        </g>
        <g id="m-187" class="accid" />
       </g>
       <g id="m-188" class="note">
        <g class="notehead">
         <use xlink:href="#E0A4-mwv3tq" x="2672" y="7169" height="720px" width="720px" />
        </g>
        <g id="si1r8wb" class="stem">
         <rect x="2672" y="7199" height="600" width="18" />
        </g>
       </g>
       <g id="m-189" class="note">
        <g class="notehead">
         <use xlink:href="#E0A3-mwv3tq" x="3468" y="7079" height="720px" width="720px" />
        </g>
        <g id="srrrfti" class="stem">
         <rect x="3468" y="7109" height="600" width="18" />
        </g>
       </g>
       <g id="m-190" class="note">
        <g class="notehead">
         <use xlink:href="#E0A4-mwv3tq" x="5060" y="7709" height="720px" width="720px" />
        </g>
        <g id="st04ppd" class="stem">
         <rect x="5275" y="7079" height="602" width="18" />
        </g>
       </g>
      </g>
     </g>
     <g id="b4ebfqm" class="barLine">
      <path d="M5856 5999 L5856 5279" stroke="currentColor" stroke-width="10" />
      <path d="M5856 7799 L5856 7079" stroke="currentColor" stroke-width="10" />
     </g>
    </g>
    <g id="m-191" class="measure">
     <g id="m-192" class="staff">
      <path d="M5861 5279 L9763 5279" stroke="currentColor" stroke-width="10" />
      <path d="M5861 5459 L9763 5459" stroke="currentColor" stroke-width="10" />
      <path d="M5861 5639 L9763 5639" stroke="currentColor" stroke-width="10" />
      <path d="M5861 5819 L9763 5819" stroke="currentColor" stroke-width="10" />
      <path d="M5861 5999 L9763 5999" stroke="currentColor" stroke-width="10" />
      <g id="m-193" class="layer">
       <g id="m-194" class="note">
        <g class="notehead">
         <use xlink:href="#E0A3-mwv3tq" x="6041" y="6089" height="720px" width="720px" />
        </g>
        <g id="d6i5bsv" class="dots">
         <ellipse cx="6365" cy="6089" rx="36" ry="36" />
        </g>
        <g id="sz97zsj" class="stem">
         <rect x="6256" y="5459" height="602" width="18" />
        </g>
        <g id="m-198" class="verse">
         <g id="m-199" class="syl">
          <text x="5951" y="6630" font-size="0px">
           <tspan id="t7li7gz" class="text">
            <tspan font-size="405px" class="text">best.</tspan>
           </tspan>
          </text>
         </g>
        </g>
       </g>
       <g id="m-196" class="note">
        <g class="notehead">
         <use xlink:href="#E0A3-mwv3tq" x="7588" y="6089" height="720px" width="720px" />
        </g>
        <g id="suxsd3" class="stem">
         <rect x="7803" y="5459" height="602" width="18" />
        </g>
       </g>
       <g id="m-197" class="space" />
      </g>
     </g>
     <g id="m-200" class="staff">
      <path d="M5861 7079 L9763 7079" stroke="currentColor" stroke-width="10" />
      <path d="M5861 7259 L9763 7259" stroke="currentColor" stroke-width="10" />
      <path d="M5861 7439 L9763 7439" stroke="currentColor" stroke-width="10" />
      <path d="M5861 7619 L9763 7619" stroke="currentColor" stroke-width="10" />
      <path d="M5861 7799 L9763 7799" stroke="currentColor" stroke-width="10" />
      <g id="m-201" class="layer">
       <g id="m-202" class="note">
        <g class="notehead">
         <use xlink:href="#E0A3-mwv3tq" x="6041" y="7439" height="720px" width="720px" />
        </g>
        <g id="dl8e92v" class="dots">
         <ellipse cx="6365" cy="7349" rx="36" ry="36" />
        </g>
        <g id="sltp9ok" class="stem">
         <rect x="6041" y="7469" height="570" width="18" />
        </g>
       </g>
       <g id="m-204" class="note">
        <g class="notehead">
         <use xlink:href="#E0A3-mwv3tq" x="7588" y="7439" height="720px" width="720px" />
        </g>
        <g id="sefib4t" class="stem">
         <rect x="7588" y="7469" height="570" width="18" />
        </g>
       </g>
       <g id="m-205" class="space" />
      </g>
     </g>
     <g id="m-195" class="tie">
      <path d="M6320,6201 C6629,6311 7230,6311 7543,6201 C7240,6359 6619,6359 6320,6201" stroke="currentColor" stroke-linecap="round" stroke-linejoin="round" stroke-width="9" />
     </g>
     <g id="m-203" class="tie">
      <path d="M6320,7237 C6620,7081 7239,7081 7543,7237 C7229,7129 6630,7129 6320,7237" stroke="currentColor" stroke-linecap="round" stroke-linejoin="round" stroke-width="9" />
     </g>
     <g id="b29sykz" class="barLine">
      <path d="M9596 5999 L9596 5279" stroke="currentColor" stroke-width="10" />
      <path d="M9718 5999 L9718 5279" stroke="currentColor" stroke-width="90" />
      <path d="M9596 7799 L9596 7079" stroke="currentColor" stroke-width="10" />
      <path d="M9718 7799 L9718 7079" stroke="currentColor" stroke-width="90" />
     </g>
    </g>
    <g id="s92hni" class="systemMilestoneEnd m-43" />
   </g>
   <g id="pq3540n" class="pageMilestoneEnd m-33" />
   <g id="p6pnezd" class="pageMilestoneEnd m-31" />
  </g>
 </svg>
</svg>
