<svg width="1002px" height="200px" version="1.1" xmlns="http://www.w3.org/2000/svg" xmlns:xlink="http://www.w3.org/1999/xlink" xmlns:mei="http://www.music-encoding.org/ns/mei" overflow="visible">
 <desc>Engraved by Verovio 3.10.0-dev-e51b2ff</desc>
 <defs>
  <symbol id="E084-66mpnp" viewBox="0 0 1000 1000" overflow="inherit">
   <path transform="scale(1,-1)" d="M208 -127h-172c-9 0 -11 6 -11 6s-7 11 -10 18c-1 2 -1 4 -1 6c0 6 3 11 3 11c26 37 56 87 82 168s31 155 31 155c1 6 6 12 13 12h149c4 0 7 -2 10 -4l22 -22c1 -1 3 -5 3 -10c0 -4 -1 -9 -5 -14c-118 -158 -230 -278 -230 -278h116v82c0 4 1 8 4 11l91 83c2 2 6 3 9 3h2 c2 0 3 0 5 -1l12 -6c4 -2 7 -7 7 -13v-159h90c8 0 14 -7 14 -14v-19c0 -8 -6 -15 -14 -15h-90v-74h90c8 0 14 -6 14 -14v-19c0 -8 -6 -14 -14 -14h-303c-7 0 -14 6 -14 14v19c0 8 7 14 14 14h83v74z" />
  </symbol>
  <symbol id="E050-66mpnp" viewBox="0 0 1000 1000" overflow="inherit">
   <path transform="scale(1,-1)" d="M562 -21c0 89 -65 150 -155 150c7 -44 34 -203 55 -323c71 29 100 102 100 173zM420 -206l-58 329c-59 -14 -104 -63 -104 -124c0 -49 22 -75 61 -99c12 -8 22 -13 22 -22s-9 -13 -17 -13c-80 0 -135 96 -135 166c0 94 62 190 153 217c-7 41 -14 88 -23 142 c-15 -15 -31 -29 -48 -44c-88 -76 -174 -185 -174 -307c0 -151 122 -251 265 -251c19 0 38 2 58 6zM332 822c-8 -31 -11 -65 -11 -102c0 -42 5 -81 11 -121c69 68 146 146 146 250c0 69 -24 118 -39 118c-52 0 -98 -105 -107 -145zM122 -513c0 66 45 123 115 123 c75 0 116 -57 116 -111c0 -64 -47 -104 -94 -111c-3 -1 -5 -2 -5 -4c0 -1 2 -2 3 -3c2 0 23 -5 47 -5c101 0 154 55 154 159c0 53 -11 123 -30 219c-23 -4 -50 -7 -79 -7c-186 0 -349 147 -349 334c0 200 126 321 217 406c21 17 73 70 74 71c-17 112 -22 161 -22 215 c0 84 18 212 82 288c33 39 64 51 71 51c18 0 47 -35 71 -86c16 -36 44 -110 44 -201c0 -159 -73 -284 -179 -395c9 -56 19 -115 29 -175c146 0 253 -102 253 -253c0 -103 -73 -205 -171 -237c6 -39 12 -69 15 -89c10 -57 16 -102 16 -141c0 -63 -14 -129 -68 -167 c-36 -22 -77 -34 -124 -34c-135 0 -186 87 -186 153z" />
  </symbol>
  <symbol id="E083-66mpnp" viewBox="0 0 1000 1000" overflow="inherit">
   <path transform="scale(1,-1)" d="M272 16h-2c44 -14 94 -45 94 -118c0 -109 -104 -142 -200 -142c-22 0 -71 1 -110 37c-36 33 -39 69 -39 82v4c0 36 29 65 65 65s64 -29 64 -65c0 -33 -27 -62 -60 -64c11 -8 37 -16 65 -16c42 0 87 18 87 85c0 70 -23 100 -67 106c-32 5 -55 5 -72 6c-11 1 -13 12 -13 12 v20s1 14 13 14s68 4 80 6s59 11 59 74c0 54 -45 79 -87 79c-19 0 -38 -5 -52 -15l-3 -3c28 -6 50 -34 50 -63c0 -36 -28 -64 -64 -64s-65 28 -65 64l1 2h-1s-5 122 167 122s175 -113 175 -122v-5c0 -18 -5 -70 -85 -101z" />
  </symbol>
  <symbol id="E062-66mpnp" viewBox="0 0 1000 1000" overflow="inherit">
   <path transform="scale(1,-1)" d="M254 251c93 0 164 -29 211 -85c41 -49 63 -118 63 -201c0 -67 -25 -145 -69 -220c-25 -42 -56 -84 -92 -123c-40 -43 -86 -83 -137 -120c-91 -71 -205 -118 -206 -118s-4 -1 -5 -1c-6 0 -15 2 -18 12c0 2 -1 3 -1 5c0 12 12 19 12 19c1 0 99 45 203 140 c39 35 83 98 116 164c30 59 65 148 65 241c0 168 -50 250 -152 250c-35 0 -67 -6 -92 -20c-17 -9 -39 -29 -50 -45s-23 -45 -26 -64c8 7 25 17 35 21c9 3 20 5 32 5c17 0 37 -4 58 -18c30 -19 48 -51 48 -86c0 -39 -19 -75 -50 -92c-19 -11 -42 -17 -64 -17 c-13 0 -26 2 -38 6c-30 10 -53 29 -65 56c-9 19 -13 41 -13 65c0 17 2 35 7 53c9 35 32 86 90 129c1 0 62 44 138 44zM568 124c0 28 22 51 48 51s48 -23 48 -51s-22 -50 -48 -50s-48 22 -48 50zM568 -123c0 28 22 51 48 51s48 -23 48 -51s-22 -51 -48 -51s-48 23 -48 51z " />
  </symbol>
  <symbol id="E0A3-66mpnp" viewBox="0 0 1000 1000" overflow="inherit">
   <path transform="scale(1,-1)" d="M213 132c62 0 112 -33 112 -92c0 -88 -109 -173 -213 -173c-81 0 -112 48 -112 91c0 93 116 174 213 174zM186 -44c3 2 104 50 104 93c0 22 -16 36 -40 36c-36 0 -107 -40 -111 -42s-104 -51 -104 -93c0 -9 7 -36 40 -36c35 0 108 40 111 42z" />
  </symbol>
  <symbol id="E0A4-66mpnp" viewBox="0 0 1000 1000" overflow="inherit">
   <path transform="scale(1,-1)" d="M0 -42c0 92 116 174 213 174c62 0 112 -33 112 -92c0 -88 -109 -173 -213 -173c-81 0 -112 48 -112 91z" />
  </symbol>
 </defs>
 <style type="text/css">g.page-margin{font-family:Times;} g.ending, g.fing, g.reh, g.tempo{font-weight:bold;} g.dir, g.dynam, g.mNum{font-style:italic;} g.label{font-weight:normal;}</style>
 <svg class="definition-scale" color="black" viewBox="0 0 25050 5000">
  <g class="page-margin" transform="translate(300, 1000)">
   <g id="m-31" class="mdiv pageMilestone" />
   <g id="m-33" class="score pageMilestone" />
   <g id="swe7ltn" class="system">
    <path d="M5 540 L5 3060" stroke="currentColor" stroke-width="10" />
    <g id="gseaejk" class="grpSym">
     <path d="M-72,3042 C-432,2502 18,1980 -252,1800 C81,1980 -369,2502 -72,3042" stroke="currentColor" stroke-linecap="round" stroke-linejoin="round" stroke-width="18" />
     <path d="M-72,558 C-369,1098 81,1620 -252,1800 C18,1620 -432,1098 -72,558" stroke="currentColor" stroke-linecap="round" stroke-linejoin="round" stroke-width="18" />
    </g>
    <g id="m-45" class="sb" />
    <g id="m-43" class="section systemMilestone" />
    <g id="m-28" class="pb" />
    <g id="m-44" class="measure">
     <g id="m-46" class="staff">
      <path d="M0 540 L4829 540" stroke="currentColor" stroke-width="10" />
      <path d="M0 720 L4829 720" stroke="currentColor" stroke-width="10" />
      <path d="M0 900 L4829 900" stroke="currentColor" stroke-width="10" />
      <path d="M0 1080 L4829 1080" stroke="currentColor" stroke-width="10" />
      <path d="M0 1260 L4829 1260" stroke="currentColor" stroke-width="10" />
      <g id="ch2lalt" class="clef">
       <use xlink:href="#E050-66mpnp" x="145" y="1080" height="720px" width="720px" />
      </g>
      <g id="my7xyw7" class="meterSig">
       <use xlink:href="#E083-66mpnp" x="912" y="720" height="720px" width="720px" />
       <use xlink:href="#E084-66mpnp" x="883" y="1080" height="720px" width="720px" />
      </g>
      <g id="m-47" class="layer">
       <g id="m-48" class="note">
        <g class="notehead">
         <use xlink:href="#E0A4-66mpnp" x="1520" y="810" height="720px" width="720px" />
        </g>
        <g id="sl2g5lk" class="stem">
         <rect x="1520" y="840" height="600" width="18" />
        </g>
        <g id="m-51" class="verse">
         <g id="m-52" class="syl">
          <text x="1430" y="1812" font-size="0px">
           <tspan id="tjfe15e" class="text">
            <tspan font-size="405px" class="text">Their</tspan>
           </tspan>
          </text>
         </g>
        </g>
       </g>
       <g id="m-49" class="note">
        <g class="notehead">
         <use xlink:href="#E0A4-66mpnp" x="2770" y="630" height="720px" width="720px" />
        </g>
        <g id="sj88vs6" class="stem">
         <rect x="2770" y="660" height="600" width="18" />
        </g>
        <g id="m-53" class="verse">
         <g id="m-54" class="syl">
          <text x="2680" y="1812" font-size="0px">
           <tspan id="t4n9x17" class="text">
            <tspan font-size="405px" class="text">eyes,</tspan>
           </tspan>
          </text>
         </g>
        </g>
       </g>
       <g id="m-50" class="note">
        <g class="notehead">
         <use xlink:href="#E0A4-66mpnp" x="3950" y="540" height="720px" width="720px" />
        </g>
        <g id="s82l9dz" class="stem">
         <rect x="3950" y="570" height="600" width="18" />
        </g>
        <g id="m-55" class="verse">
         <g id="m-56" class="syl">
          <text x="3860" y="1812" font-size="0px">
           <tspan id="t1eyr9y" class="text">
            <tspan font-size="405px" class="text">their</tspan>
           </tspan>
          </text>
         </g>
        </g>
       </g>
      </g>
     </g>
     <g id="m-57" class="staff">
      <path d="M0 2340 L4829 2340" stroke="currentColor" stroke-width="10" />
      <path d="M0 2520 L4829 2520" stroke="currentColor" stroke-width="10" />
      <path d="M0 2700 L4829 2700" stroke="currentColor" stroke-width="10" />
      <path d="M0 2880 L4829 2880" stroke="currentColor" stroke-width="10" />
      <path d="M0 3060 L4829 3060" stroke="currentColor" stroke-width="10" />
      <g id="cj1hg48" class="clef">
       <use xlink:href="#E062-66mpnp" x="145" y="2520" height="720px" width="720px" />
      </g>
      <g id="mem8e1k" class="meterSig">
       <use xlink:href="#E083-66mpnp" x="912" y="2520" height="720px" width="720px" />
       <use xlink:href="#E084-66mpnp" x="883" y="2880" height="720px" width="720px" />
      </g>
      <g class="ledgerLines above">
       <path d="M1472 2160 L1802 2160" stroke="currentColor" stroke-width="22" />
      </g>
      <g id="m-58" class="layer">
       <g id="m-59" class="note">
        <g class="notehead">
         <use xlink:href="#E0A3-66mpnp" x="1520" y="2160" height="720px" width="720px" />
        </g>
        <g id="svuoqz" class="stem">
         <rect x="1520" y="2190" height="600" width="18" />
        </g>
       </g>
       <g id="m-60" class="note">
        <g class="notehead">
         <use xlink:href="#E0A4-66mpnp" x="3950" y="2520" height="720px" width="720px" />
        </g>
        <g id="s8txvv" class="stem">
         <rect x="3950" y="2550" height="600" width="18" />
        </g>
       </g>
      </g>
     </g>
     <g id="bfidw1k" class="barLine">
      <path d="M4824 1260 L4824 540" stroke="currentColor" stroke-width="10" />
      <path d="M4824 3060 L4824 2340" stroke="currentColor" stroke-width="10" />
     </g>
    </g>
    <g id="m-64" class="measure">
     <g id="m-65" class="staff">
      <path d="M4829 540 L7267 540" stroke="currentColor" stroke-width="10" />
      <path d="M4829 720 L7267 720" stroke="currentColor" stroke-width="10" />
      <path d="M4829 900 L7267 900" stroke="currentColor" stroke-width="10" />
      <path d="M4829 1080 L7267 1080" stroke="currentColor" stroke-width="10" />
      <path d="M4829 1260 L7267 1260" stroke="currentColor" stroke-width="10" />
      <g id="m-66" class="layer">
       <g id="m-67" class="note">
        <g class="notehead">
         <use xlink:href="#E0A3-66mpnp" x="5058" y="720" height="720px" width="720px" />
        </g>
        <g id="s7nfwet" class="stem">
         <rect x="5058" y="750" height="600" width="18" />
        </g>
        <g id="m-69" class="verse">
         <g id="m-70" class="syl">
          <text x="4968" y="1812" font-size="0px">
           <tspan id="tjdaf7w" class="text">
            <tspan font-size="405px" class="text">lips,</tspan>
           </tspan>
          </text>
         </g>
        </g>
       </g>
       <g id="m-68" class="note">
        <g class="notehead">
         <use xlink:href="#E0A4-66mpnp" x="6388" y="900" height="720px" width="720px" />
        </g>
        <g id="sakc8n1" class="stem">
         <rect x="6388" y="930" height="570" width="18" />
        </g>
        <g id="m-71" class="verse">
         <g id="m-72" class="syl">
          <text x="6298" y="1812" font-size="0px">
           <tspan id="tnke17m" class="text">
            <tspan font-size="405px" class="text">their</tspan>
           </tspan>
          </text>
         </g>
        </g>
       </g>
      </g>
     </g>
     <g id="m-73" class="staff">
      <path d="M4829 2340 L7267 2340" stroke="currentColor" stroke-width="10" />
      <path d="M4829 2520 L7267 2520" stroke="currentColor" stroke-width="10" />
      <path d="M4829 2700 L7267 2700" stroke="currentColor" stroke-width="10" />
      <path d="M4829 2880 L7267 2880" stroke="currentColor" stroke-width="10" />
      <path d="M4829 3060 L7267 3060" stroke="currentColor" stroke-width="10" />
      <g id="m-74" class="layer">
       <g id="m-75" class="note">
        <g class="notehead">
         <use xlink:href="#E0A3-66mpnp" x="5058" y="2430" height="720px" width="720px" />
        </g>
        <g id="d21cloz" class="dots">
         <ellipse cx="5382" cy="2430" rx="36" ry="36" />
        </g>
        <g id="sq1bic8" class="stem">
         <rect x="5058" y="2460" height="600" width="18" />
        </g>
       </g>
      </g>
     </g>
     <g id="bfx8jqg" class="barLine">
      <path d="M7262 1260 L7262 540" stroke="currentColor" stroke-width="10" />
      <path d="M7262 3060 L7262 2340" stroke="currentColor" stroke-width="10" />
     </g>
    </g>
    <g id="m-76" class="measure">
     <g id="m-77" class="staff">
      <path d="M7267 540 L10921 540" stroke="currentColor" stroke-width="10" />
      <path d="M7267 720 L10921 720" stroke="currentColor" stroke-width="10" />
      <path d="M7267 900 L10921 900" stroke="currentColor" stroke-width="10" />
      <path d="M7267 1080 L10921 1080" stroke="currentColor" stroke-width="10" />
      <path d="M7267 1260 L10921 1260" stroke="currentColor" stroke-width="10" />
      <g id="m-78" class="layer">
       <g id="m-81" class="beam">
        <polygon points="7496,1395 8084,1485 8084,1395 7496,1305 " />
        <g id="m-79" class="note">
         <g class="notehead">
          <use xlink:href="#E0A4-66mpnp" x="7496" y="810" height="720px" width="720px" />
         </g>
         <g id="sj0k9pv" class="stem">
          <rect x="7496" y="840" height="537" width="18" />
         </g>
         <g id="m-98" class="verse">
          <g id="m-99" class="syl">
           <text x="7406" y="1812" font-size="0px">
            <tspan id="tjoodmg" class="text">
             <tspan font-size="405px" class="text">bus</tspan>
            </tspan>
           </text>
           <rect x="8861" y="1709" height="22" width="108" />
           <rect x="10061" y="1709" height="22" width="108" />
          </g>
         </g>
        </g>
        <g id="m-82" class="note">
         <g class="notehead">
          <use xlink:href="#E0A4-66mpnp" x="8066" y="900" height="720px" width="720px" />
         </g>
         <g id="sgpd4av" class="stem">
          <rect x="8066" y="930" height="537" width="18" />
         </g>
        </g>
       </g>
       <g id="m-84" class="beam">
        <polygon points="8636,1440 9224,1260 9224,1170 8636,1350 " />
        <g id="m-83" class="note">
         <g class="notehead">
          <use xlink:href="#E0A4-66mpnp" x="8636" y="810" height="720px" width="720px" />
         </g>
         <g id="sjr120p" class="stem">
          <rect x="8636" y="840" height="582" width="18" />
         </g>
        </g>
        <g id="m-85" class="note">
         <g class="notehead">
          <use xlink:href="#E0A4-66mpnp" x="9206" y="630" height="720px" width="720px" />
         </g>
         <g id="svuj0xo" class="stem">
          <rect x="9206" y="660" height="582" width="18" />
         </g>
        </g>
       </g>
       <g id="m-87" class="beam">
        <polygon points="9776,1350 10364,1440 10364,1350 9776,1260 " />
        <g id="m-86" class="note">
         <g class="notehead">
          <use xlink:href="#E0A4-66mpnp" x="9776" y="720" height="720px" width="720px" />
         </g>
         <g id="s9bun65" class="stem">
          <rect x="9776" y="750" height="582" width="18" />
         </g>
        </g>
        <g id="m-88" class="note">
         <g class="notehead">
          <use xlink:href="#E0A4-66mpnp" x="10346" y="810" height="720px" width="720px" />
         </g>
         <g id="skawee5" class="stem">
          <rect x="10346" y="840" height="582" width="18" />
         </g>
        </g>
       </g>
      </g>
     </g>
     <g id="m-89" class="staff">
      <path d="M7267 2340 L10921 2340" stroke="currentColor" stroke-width="10" />
      <path d="M7267 2520 L10921 2520" stroke="currentColor" stroke-width="10" />
      <path d="M7267 2700 L10921 2700" stroke="currentColor" stroke-width="10" />
      <path d="M7267 2880 L10921 2880" stroke="currentColor" stroke-width="10" />
      <path d="M7267 3060 L10921 3060" stroke="currentColor" stroke-width="10" />
      <g id="m-90" class="layer">
       <g id="m-91" class="note">
        <g class="notehead">
         <use xlink:href="#E0A3-66mpnp" x="7496" y="2610" height="720px" width="720px" />
        </g>
        <g id="s3432fz" class="stem">
         <rect x="7496" y="2640" height="600" width="18" />
        </g>
       </g>
       <g id="m-92" class="note">
        <g class="notehead">
         <use xlink:href="#E0A4-66mpnp" x="9776" y="2520" height="720px" width="720px" />
        </g>
        <g id="sbkrr8v" class="stem">
         <rect x="9776" y="2550" height="600" width="18" />
        </g>
       </g>
      </g>
     </g>
     <g id="m-80" class="tie">
      <path d="M7775,765 C7972,609 8393,609 8591,765 C8379,656 7986,656 7775,765" stroke="currentColor" stroke-linecap="round" stroke-linejoin="round" stroke-width="9" />
     </g>
     <g id="bgy7w5d" class="barLine">
      <path d="M10916 1260 L10916 540" stroke="currentColor" stroke-width="10" />
      <path d="M10916 3060 L10916 2340" stroke="currentColor" stroke-width="10" />
     </g>
    </g>
    <g id="m-93" class="measure">
     <g id="m-94" class="staff">
      <path d="M10921 540 L13359 540" stroke="currentColor" stroke-width="10" />
      <path d="M10921 720 L13359 720" stroke="currentColor" stroke-width="10" />
      <path d="M10921 900 L13359 900" stroke="currentColor" stroke-width="10" />
      <path d="M10921 1080 L13359 1080" stroke="currentColor" stroke-width="10" />
      <path d="M10921 1260 L13359 1260" stroke="currentColor" stroke-width="10" />
      <g id="m-95" class="layer">
       <g id="m-96" class="note">
        <g class="notehead">
         <use xlink:href="#E0A3-66mpnp" x="11150" y="900" height="720px" width="720px" />
        </g>
        <g id="s4yneu4" class="stem">
         <rect x="11150" y="930" height="570" width="18" />
        </g>
        <g id="m-100" class="verse">
         <g id="m-101" class="syl">
          <text x="11060" y="1812" font-size="0px">
           <tspan id="t17k2w4" class="text">
            <tspan font-size="405px" class="text">ses</tspan>
           </tspan>
          </text>
         </g>
        </g>
       </g>
       <g id="m-97" class="note">
        <g class="notehead">
         <use xlink:href="#E0A4-66mpnp" x="12480" y="900" height="720px" width="720px" />
        </g>
        <g id="suexv4w" class="stem">
         <rect x="12480" y="930" height="570" width="18" />
        </g>
        <g id="m-116" class="verse">
         <g id="m-117" class="syl">
          <text x="12390" y="1812" font-size="0px">
           <tspan id="tj352wy" class="text">
            <tspan font-size="405px" class="text">re</tspan>
           </tspan>
          </text>
          <rect x="13047" y="1709" height="22" width="108" />
         </g>
        </g>
       </g>
      </g>
     </g>
     <g id="m-102" class="staff">
      <path d="M10921 2340 L13359 2340" stroke="currentColor" stroke-width="10" />
      <path d="M10921 2520 L13359 2520" stroke="currentColor" stroke-width="10" />
      <path d="M10921 2700 L13359 2700" stroke="currentColor" stroke-width="10" />
      <path d="M10921 2880 L13359 2880" stroke="currentColor" stroke-width="10" />
      <path d="M10921 3060 L13359 3060" stroke="currentColor" stroke-width="10" />
      <g id="m-103" class="layer">
       <g id="m-104" class="note">
        <g class="notehead">
         <use xlink:href="#E0A3-66mpnp" x="11150" y="2430" height="720px" width="720px" />
        </g>
        <g id="d8temqj" class="dots">
         <ellipse cx="11474" cy="2430" rx="36" ry="36" />
        </g>
        <g id="shgxfi8" class="stem">
         <rect x="11150" y="2460" height="600" width="18" />
        </g>
       </g>
      </g>
     </g>
     <g id="bf1053x" class="barLine">
      <path d="M13354 1260 L13354 540" stroke="currentColor" stroke-width="10" />
      <path d="M13354 3060 L13354 2340" stroke="currentColor" stroke-width="10" />
     </g>
    </g>
    <g id="m-106" class="sb" />
    <g id="m-105" class="measure">
     <g id="m-107" class="staff">
      <path d="M13359 540 L16747 540" stroke="currentColor" stroke-width="10" />
      <path d="M13359 720 L16747 720" stroke="currentColor" stroke-width="10" />
      <path d="M13359 900 L16747 900" stroke="currentColor" stroke-width="10" />
      <path d="M13359 1080 L16747 1080" stroke="currentColor" stroke-width="10" />
      <path d="M13359 1260 L16747 1260" stroke="currentColor" stroke-width="10" />
      <g id="m-108" class="layer">
       <g id="m-109" class="note">
        <g class="notehead">
         <use xlink:href="#E0A4-66mpnp" x="13588" y="810" height="720px" width="720px" />
        </g>
        <g id="sxalh52" class="stem">
         <rect x="13588" y="840" height="600" width="18" />
        </g>
        <g id="m-118" class="verse">
         <g id="m-119" class="syl">
          <text x="13498" y="1812" font-size="0px">
           <tspan id="t5fyx61" class="text">
            <tspan font-size="405px" class="text">call</tspan>
           </tspan>
          </text>
          <rect x="14129" y="1790" height="22" width="1137" />
         </g>
        </g>
       </g>
       <g id="m-111" class="beam">
        <polygon points="14462,1395 15050,1485 15050,1395 14462,1305 " />
        <g id="m-110" class="note">
         <g class="notehead">
          <use xlink:href="#E0A4-66mpnp" x="14462" y="810" height="720px" width="720px" />
         </g>
         <g id="sd2f1od" class="stem">
          <rect x="14462" y="840" height="537" width="18" />
         </g>
        </g>
        <g id="m-112" class="note">
         <g class="notehead">
          <use xlink:href="#E0A4-66mpnp" x="15032" y="900" height="720px" width="720px" />
         </g>
         <g id="smoemnw" class="stem">
          <rect x="15032" y="930" height="537" width="18" />
         </g>
        </g>
       </g>
       <g id="m-114" class="beam">
        <polygon points="15818,270 16406,450 16406,540 15818,360 " />
        <g id="m-113" class="note">
         <g class="notehead">
          <use xlink:href="#E0A4-66mpnp" x="15602" y="810" height="720px" width="720px" />
         </g>
         <g id="sw18bz" class="stem">
          <rect x="15818" y="288" height="494" width="18" />
         </g>
         <g id="m-120" class="verse">
          <g id="m-121" class="syl">
           <text x="15512" y="1812" font-size="0px">
            <tspan id="trht3aj" class="text">
             <tspan font-size="405px" class="text">my</tspan>
            </tspan>
           </text>
           <rect x="16076" y="1790" height="22" width="330" />
          </g>
         </g>
        </g>
        <g id="m-115" class="note">
         <g class="notehead">
          <use xlink:href="#E0A4-66mpnp" x="16172" y="1080" height="720px" width="720px" />
         </g>
         <g id="sami5u2" class="stem">
          <rect x="16388" y="468" height="584" width="18" />
         </g>
        </g>
       </g>
      </g>
     </g>
     <g id="m-122" class="staff">
      <path d="M13359 2340 L16747 2340" stroke="currentColor" stroke-width="10" />
      <path d="M13359 2520 L16747 2520" stroke="currentColor" stroke-width="10" />
      <path d="M13359 2700 L16747 2700" stroke="currentColor" stroke-width="10" />
      <path d="M13359 2880 L16747 2880" stroke="currentColor" stroke-width="10" />
      <path d="M13359 3060 L16747 3060" stroke="currentColor" stroke-width="10" />
      <g id="m-123" class="layer">
       <g id="m-124" class="note">
        <g class="notehead">
         <use xlink:href="#E0A3-66mpnp" x="13588" y="2610" height="720px" width="720px" />
        </g>
        <g id="df61zzl" class="dots">
         <ellipse cx="13912" cy="2610" rx="36" ry="36" />
        </g>
        <g id="sf4v3oi" class="stem">
         <rect x="13588" y="2640" height="600" width="18" />
        </g>
       </g>
      </g>
     </g>
     <g id="bydeb17" class="barLine">
      <path d="M16742 1260 L16742 540" stroke="currentColor" stroke-width="10" />
      <path d="M16742 3060 L16742 2340" stroke="currentColor" stroke-width="10" />
     </g>
    </g>
    <g id="m-125" class="measure">
     <g id="m-126" class="staff">
      <path d="M16747 540 L19603 540" stroke="currentColor" stroke-width="10" />
      <path d="M16747 720 L19603 720" stroke="currentColor" stroke-width="10" />
      <path d="M16747 900 L19603 900" stroke="currentColor" stroke-width="10" />
      <path d="M16747 1080 L19603 1080" stroke="currentColor" stroke-width="10" />
      <path d="M16747 1260 L19603 1260" stroke="currentColor" stroke-width="10" />
      <g id="m-127" class="layer">
       <g id="m-128" class="note">
        <g class="notehead">
         <use xlink:href="#E0A4-66mpnp" x="16976" y="990" height="720px" width="720px" />
        </g>
        <g id="sf5sxx9" class="stem">
         <rect x="17191" y="360" height="602" width="18" />
        </g>
        <g id="m-132" class="verse">
         <g id="m-133" class="syl">
          <text x="16886" y="1812" font-size="0px">
           <tspan id="tkovnug" class="text">
            <tspan font-size="405px" class="text">love,</tspan>
           </tspan>
          </text>
          <rect x="17732" y="1790" height="22" width="352" />
         </g>
        </g>
       </g>
       <g id="m-130" class="note">
        <g class="notehead">
         <use xlink:href="#E0A4-66mpnp" x="17850" y="900" height="720px" width="720px" />
        </g>
        <g id="sdsn7cy" class="stem">
         <rect x="17850" y="930" height="570" width="18" />
        </g>
       </g>
       <g id="m-131" class="note">
        <g class="notehead">
         <use xlink:href="#E0A4-66mpnp" x="18724" y="810" height="720px" width="720px" />
        </g>
        <g id="sqq1msk" class="stem">
         <rect x="18724" y="840" height="600" width="18" />
        </g>
        <g id="m-134" class="verse">
         <g id="m-135" class="syl">
          <text x="18634" y="1812" font-size="0px">
           <tspan id="totrnsl" class="text">
            <tspan font-size="405px" class="text">Ah</tspan>
           </tspan>
          </text>
         </g>
        </g>
       </g>
      </g>
     </g>
     <g id="m-136" class="staff">
      <path d="M16747 2340 L19603 2340" stroke="currentColor" stroke-width="10" />
      <path d="M16747 2520 L19603 2520" stroke="currentColor" stroke-width="10" />
      <path d="M16747 2700 L19603 2700" stroke="currentColor" stroke-width="10" />
      <path d="M16747 2880 L19603 2880" stroke="currentColor" stroke-width="10" />
      <path d="M16747 3060 L19603 3060" stroke="currentColor" stroke-width="10" />
      <g id="m-137" class="layer">
       <g id="m-138" class="note">
        <g class="notehead">
         <use xlink:href="#E0A3-66mpnp" x="16976" y="2520" height="720px" width="720px" />
        </g>
        <g id="sn5bhbf" class="stem">
         <rect x="16976" y="2550" height="600" width="18" />
        </g>
       </g>
       <g id="m-139" class="note">
        <g class="notehead">
         <use xlink:href="#E0A4-66mpnp" x="18724" y="2340" height="720px" width="720px" />
        </g>
        <g id="s3pr9qy" class="stem">
         <rect x="18724" y="2370" height="600" width="18" />
        </g>
       </g>
      </g>
     </g>
     <g id="m-129" class="tie" />
     <g id="btwfppk" class="barLine">
      <path d="M19598 1260 L19598 540" stroke="currentColor" stroke-width="10" />
      <path d="M19598 3060 L19598 2340" stroke="currentColor" stroke-width="10" />
     </g>
    </g>
    <g id="m-140" class="measure">
     <g id="m-141" class="staff">
      <path d="M19603 540 L22459 540" stroke="currentColor" stroke-width="10" />
      <path d="M19603 720 L22459 720" stroke="currentColor" stroke-width="10" />
      <path d="M19603 900 L22459 900" stroke="currentColor" stroke-width="10" />
      <path d="M19603 1080 L22459 1080" stroke="currentColor" stroke-width="10" />
      <path d="M19603 1260 L22459 1260" stroke="currentColor" stroke-width="10" />
      <g id="m-142" class="layer">
       <g id="m-143" class="note">
        <g class="notehead">
         <use xlink:href="#E0A4-66mpnp" x="19832" y="720" height="720px" width="720px" />
        </g>
        <g id="sp907ax" class="stem">
         <rect x="19832" y="750" height="600" width="18" />
        </g>
        <g id="m-147" class="verse">
         <g id="m-148" class="syl">
          <text x="19534" y="1812" font-size="0px">
           <tspan id="tamjvug" class="text">
            <tspan font-size="405px" class="text">must</tspan>
           </tspan>
          </text>
         </g>
        </g>
       </g>
       <g id="m-144" class="note">
        <g class="notehead">
         <use xlink:href="#E0A4-66mpnp" x="20706" y="810" height="720px" width="720px" />
        </g>
        <g id="sr3b9v7" class="stem">
         <rect x="20706" y="840" height="600" width="18" />
        </g>
        <g id="m-149" class="verse">
         <g id="m-150" class="syl">
          <text x="20616" y="1812" font-size="0px">
           <tspan id="tn24h6" class="text">
            <tspan font-size="405px" class="text">I</tspan>
           </tspan>
          </text>
          <rect x="20796" y="1790" height="22" width="1018" />
         </g>
        </g>
       </g>
       <g id="m-146" class="note">
        <g class="notehead">
         <use xlink:href="#E0A4-66mpnp" x="21580" y="630" height="720px" width="720px" />
        </g>
        <g id="sol400d" class="stem">
         <rect x="21580" y="660" height="600" width="18" />
        </g>
       </g>
      </g>
     </g>
     <g id="m-151" class="staff">
      <path d="M19603 2340 L22459 2340" stroke="currentColor" stroke-width="10" />
      <path d="M19603 2520 L22459 2520" stroke="currentColor" stroke-width="10" />
      <path d="M19603 2700 L22459 2700" stroke="currentColor" stroke-width="10" />
      <path d="M19603 2880 L22459 2880" stroke="currentColor" stroke-width="10" />
      <path d="M19603 3060 L22459 3060" stroke="currentColor" stroke-width="10" />
      <g id="m-152" class="layer">
       <g id="m-153" class="note">
        <g class="notehead">
         <use xlink:href="#E0A3-66mpnp" x="19832" y="2430" height="720px" width="720px" />
        </g>
        <g id="d4zig9o" class="dots">
         <ellipse cx="20156" cy="2430" rx="36" ry="36" />
        </g>
        <g id="srsz5xe" class="stem">
         <rect x="19832" y="2460" height="600" width="18" />
        </g>
       </g>
      </g>
     </g>
     <g id="m-145" class="tie">
      <path d="M20985,765 C21395,609 22230,609 22643,765 C22223,657 21402,657 20985,765" stroke="currentColor" stroke-linecap="round" stroke-linejoin="round" stroke-width="9" />
     </g>
     <g id="bid4jhl" class="barLine">
      <path d="M22454 1260 L22454 540" stroke="currentColor" stroke-width="10" />
      <path d="M22454 3060 L22454 2340" stroke="currentColor" stroke-width="10" />
     </g>
    </g>
    <g id="m-154" class="measure">
     <g id="m-155" class="staff">
      <path d="M22459 540 L24552 540" stroke="currentColor" stroke-width="10" />
      <path d="M22459 720 L24552 720" stroke="currentColor" stroke-width="10" />
      <path d="M22459 900 L24552 900" stroke="currentColor" stroke-width="10" />
      <path d="M22459 1080 L24552 1080" stroke="currentColor" stroke-width="10" />
      <path d="M22459 1260 L24552 1260" stroke="currentColor" stroke-width="10" />
      <g id="m-156" class="layer">
       <g id="m-157" class="note">
        <g class="notehead">
         <use xlink:href="#E0A3-66mpnp" x="22688" y="810" height="720px" width="720px" />
        </g>
        <g id="dtybr0o" class="dots">
         <ellipse cx="23012" cy="810" rx="36" ry="36" />
        </g>
        <g id="sfzfd3r" class="stem">
         <rect x="22688" y="840" height="600" width="18" />
        </g>
        <g id="m-158" class="verse">
         <g id="m-159" class="syl">
          <text x="22598" y="1812" font-size="0px">
           <tspan id="tpv83f3" class="text">
            <tspan font-size="405px" class="text">die!</tspan>
           </tspan>
          </text>
         </g>
        </g>
       </g>
      </g>
     </g>
     <g id="m-160" class="staff">
      <path d="M22459 2340 L24552 2340" stroke="currentColor" stroke-width="10" />
      <path d="M22459 2520 L24552 2520" stroke="currentColor" stroke-width="10" />
      <path d="M22459 2700 L24552 2700" stroke="currentColor" stroke-width="10" />
      <path d="M22459 2880 L24552 2880" stroke="currentColor" stroke-width="10" />
      <path d="M22459 3060 L24552 3060" stroke="currentColor" stroke-width="10" />
      <g id="m-161" class="layer">
       <g id="m-162" class="note">
        <g class="notehead">
         <use xlink:href="#E0A3-66mpnp" x="22688" y="2790" height="720px" width="720px" />
        </g>
        <g id="d437psu" class="dots">
         <ellipse cx="23012" cy="2790" rx="36" ry="36" />
        </g>
        <g id="s370fc8" class="stem">
         <rect x="22903" y="2160" height="602" width="18" />
        </g>
       </g>
      </g>
     </g>
     <g id="b69uwav" class="barLine">
      <path d="M24385 1260 L24385 540" stroke="currentColor" stroke-width="10" />
      <path d="M24507 1260 L24507 540" stroke="currentColor" stroke-width="90" />
      <path d="M24385 3060 L24385 2340" stroke="currentColor" stroke-width="10" />
      <path d="M24507 3060 L24507 2340" stroke="currentColor" stroke-width="90" />
     </g>
    </g>
    <g id="sphxgrk" class="systemMilestoneEnd m-43" />
   </g>
   <g id="pq42ja5" class="pageMilestoneEnd m-33" />
   <g id="p1qm58x" class="pageMilestoneEnd m-31" />
  </g>
 </svg>
</svg>
